<?xml version="1.0" standalone="no"?>
<!DOCTYPE svg PUBLIC "-//W3C//DTD SVG 1.1//EN" "http://www.w3.org/Graphics/SVG/1.1/DTD/svg11.dtd" >
<svg xmlns="http://www.w3.org/2000/svg">
<metadata></metadata>
<defs>
<font id="tangerinebold" horiz-adv-x="669" >
<font-face units-per-em="2048" ascent="1536" descent="-512" />
<missing-glyph horiz-adv-x="307" />
<glyph horiz-adv-x="2048" />
<glyph horiz-adv-x="2048" />
<glyph unicode="&#xd;" horiz-adv-x="307" />
<glyph unicode=" "  horiz-adv-x="307" />
<glyph unicode="&#x09;" horiz-adv-x="307" />
<glyph unicode="&#xa0;" horiz-adv-x="307" />
<glyph unicode="!" horiz-adv-x="409" d="M113 49q0 12 8 28.5t22.5 32t33 25.5t36.5 10q12 0 22.5 -9t10.5 -23q0 -16 -8.5 -37t-22.5 -37t-30.5 -27.5t-32.5 -11.5q-18 0 -28.5 10t-10.5 39zM246 283q25 55 59.5 147t71.5 195.5t69.5 206t53.5 180.5q14 23 49 46t67.5 37.5t52 11.5t5.5 -34 q-41 -84 -96.5 -196.5t-111.5 -226t-105.5 -216t-79.5 -166.5q-16 -18 -28.5 -13t-6.5 28z" />
<glyph unicode="&#x22;" horiz-adv-x="434" d="M104 569q8 18 24.5 50t34 66t35 66.5t27.5 55.5q18 23 99 22q16 0 23 -6t3 -12q-18 -20 -48 -54t-62.5 -72t-64.5 -72.5t-52 -59.5q-10 -4 -16.5 1t-2.5 15zM297 569q8 18 24.5 50t34 66t35 66.5t27.5 55.5q18 23 98 22q16 0 23.5 -6t3.5 -12q-18 -20 -48 -54t-63 -72 t-64.5 -72.5t-52.5 -59.5q-10 -4 -16 1t-2 15z" />
<glyph unicode="#" horiz-adv-x="608" d="M29 215q2 10 11 22.5t23.5 23.5t26.5 13l80 7q14 39 28.5 77.5t30.5 77.5q-31 -4 -57.5 -7t-48.5 -7q-10 2 -7 12t12 21.5t22.5 21.5t25.5 12q37 6 80 7q23 47 49 94q8 14 24.5 30.5t33 26.5t27.5 11t9 -17q-23 -35 -43 -70.5t-39 -70.5q35 2 70 2h70q27 51 49 84 q8 14 26.5 32.5t37 31t29.5 14.5t9 -17q-23 -37 -45 -72.5t-45 -72.5q31 0 59.5 -1t55.5 -3q6 -2 4 -10.5t-9 -17.5t-17.5 -18.5t-18.5 -13.5q-25 2 -51.5 3t-55.5 1q-23 -39 -43 -77.5t-39 -77.5h63t58 -2q6 -2 4 -10.5t-9 -19.5t-18.5 -20.5t-19.5 -13.5q-25 2 -51.5 3 t-54.5 1q-23 -53 -43.5 -103t-38.5 -99q-8 -23 -21 -23q-12 0 -8 14q12 41 30.5 96.5t41.5 114.5q-39 0 -76 -1t-74 -3q-41 -104 -67 -198q-8 -23 -21 -23q-12 0 -8 14q10 41 25.5 92.5t34.5 110.5q-31 -2 -60 -5t-53 -9q-10 2 -8 12zM213 283q37 2 74 3t73 1q31 78 66 155 q-35 0 -71 -1t-70 -3q-20 -39 -38 -77.5t-34 -77.5z" />
<glyph unicode="$" horiz-adv-x="587" d="M20 86q0 12 8.5 30.5t20.5 38t27.5 39t32.5 33.5q8 2 14 -4t2 -16q-18 -16 -23.5 -43t-1.5 -49q10 -51 70 -72q31 76 59.5 143.5t57.5 137.5q-31 35 -55.5 69.5t-24.5 83.5q0 66 56 114t161 50q27 63 61 135q10 14 22.5 11t8.5 -19q-14 -33 -28.5 -65.5t-28.5 -63.5 q45 -6 76.5 -24.5t31.5 -34.5q0 -29 -11 -64t-26 -57q-4 -4 -12 -1t-8 13q12 39 0 76q-16 41 -68 55q-25 -53 -47 -103t-45 -102q18 -23 40 -43t39 -43.5t29.5 -52.5t12.5 -65q0 -37 -17.5 -71t-52 -61.5t-86 -44t-118.5 -16.5h-13q-12 -31 -24.5 -61.5t-24.5 -65.5 q-12 -18 -25.5 -19t-11.5 17q14 35 27.5 67.5t28.5 63.5q-59 8 -96.5 32.5t-37.5 51.5zM199 37q6 -2 20 -2q72 0 113 33t41 90q0 47 -19.5 80.5t-44.5 62.5q-29 -66 -55.5 -131.5t-54.5 -132.5zM305 508q0 -25 7 -45.5t18 -36.5q18 41 37.5 85t42.5 93q-51 -2 -78 -27.5 t-27 -68.5z" />
<glyph unicode="%" horiz-adv-x="882" d="M41 377q0 47 20.5 94t56.5 85t82 61.5t95 23.5q53 0 86 -35t33 -88q0 -45 -22.5 -92t-58.5 -86t-81 -63.5t-92 -24.5q-49 0 -84 33.5t-35 91.5zM104 -121q80 113 155 219.5t150.5 213t157.5 218t176 236.5q12 10 33 6t15 -20q-166 -215 -332 -443.5t-307 -439.5 q-16 -16 -35 -11t-13 21zM125 432q0 -51 24.5 -84t65.5 -33q53 0 83 43t30 109q0 47 -25.5 81t-64.5 34q-55 0 -84 -43t-29 -107zM469 125q0 47 20.5 94t55.5 85t81 61.5t97 23.5q53 0 86 -35t33 -88q0 -45 -22.5 -92t-58.5 -86t-81 -63.5t-92 -24.5q-51 0 -85 34t-34 91z M551 180q0 -53 25.5 -85t66.5 -32q53 0 83 42t30 110q0 47 -25.5 80t-66.5 33q-55 0 -84 -42t-29 -106z" />
<glyph unicode="&#x26;" horiz-adv-x="1073" d="M41 209q0 68 26.5 115t69.5 82.5t97.5 62.5t109.5 55q-8 43 -12 85t-4 81q0 49 18.5 100.5t50 91.5t73.5 65.5t87 25.5q61 0 91 -36t30 -91q0 -59 -20.5 -103.5t-54.5 -80t-78 -64.5t-89 -55q23 -98 69 -186.5t111 -153.5q41 51 78 107.5t76 104.5t83 78.5t101 30.5 q51 0 80 -37.5t29 -85.5q0 -10 -8 -15t-17 5q-16 23 -43.5 37t-66.5 14q-49 0 -86 -23.5t-71 -60t-64.5 -83t-67.5 -91.5q53 -47 120.5 -74.5t145.5 -27.5q41 0 68.5 15.5t46.5 37.5q6 10 17.5 6t0.5 -22q-27 -53 -78 -86t-131 -33q-78 0 -144.5 27.5t-119.5 76.5 q-51 -47 -117.5 -75.5t-160.5 -28.5q-113 0 -179.5 55.5t-66.5 153.5zM156 254q0 -92 50 -143.5t154 -51.5q55 0 99.5 18.5t83.5 49.5q-72 72 -120 168t-73 201q-39 -23 -74.5 -47.5t-62.5 -53t-42 -63.5t-15 -78zM410 752q0 -88 18 -181q66 41 110 97.5t44 148.5 q0 43 -18.5 73t-59.5 30q-47 0 -70.5 -38t-23.5 -130z" />
<glyph unicode="'" horiz-adv-x="241" d="M104 569q8 18 24.5 50t34 66t35 66.5t27.5 55.5q18 23 99 22q16 0 23 -6t3 -12q-18 -20 -48 -54t-62.5 -72t-64.5 -72.5t-52 -59.5q-10 -4 -16.5 1t-2.5 15z" />
<glyph unicode="(" horiz-adv-x="532" d="M192.5 364.5q4.5 112.5 32.5 227.5q53 225 169 402.5t278 310.5q12 8 22.5 4t-0.5 -23q-41 -39 -88 -101.5t-86 -125.5q-53 -90 -97 -207t-75 -244t-48 -256t-17 -246q0 -33 2 -72.5t7 -79.5t13 -78t19 -66q2 -16 -10.5 -21.5t-20.5 6.5q-31 70 -56.5 160t-37 193.5 t-7 216z" />
<glyph unicode=")" horiz-adv-x="583" d="M59 -190q41 41 89.5 102t84.5 127q53 90 97.5 205.5t75 242.5t48 256t17.5 246q0 33 -2 73t-7 80t-13.5 77.5t-18.5 66.5q-2 18 10.5 22.5t22.5 -8.5q33 -76 57.5 -169t34.5 -196.5t5 -214t-32 -216.5q-51 -217 -167.5 -398.5t-276.5 -314.5q-14 -8 -24.5 -4t-0.5 23z " />
<glyph unicode="*" horiz-adv-x="393" d="M87 680q3 12 12.5 26.5t21.5 23.5t20 5q12 -8 27.5 -17t30.5 -18l32 -20q2 25 7 49q4 20 5 44t5 42q2 12 17.5 20.5t33.5 12.5t30.5 1t8.5 -11q-10 -23 -24.5 -48.5t-26.5 -50.5l-29 -57q31 12 59 25q25 10 51.5 20t49.5 21q10 4 13 -8.5t1 -28t-8 -29.5t-14 -14 q-23 -2 -49.5 -3t-49.5 -3q-27 -2 -55 -5l41 -41l34.5 -34.5t33.5 -30.5q8 -8 -0.5 -18.5t-22.5 -18.5t-27.5 -11t-17.5 7q-8 16 -17.5 39.5t-19.5 44.5q-10 23 -22 49q-16 -27 -31 -51q-12 -23 -24.5 -44.5t-22.5 -37.5q-6 -10 -19.5 -9t-27 8t-20.5 16.5t-1 15.5 q16 16 39 36.5t43 38.5q23 23 47 43q-25 2 -47 5q-20 2 -41.5 2t-38.5 2q-10 0 -7 12z" />
<glyph unicode="+" horiz-adv-x="616" d="M111 293.5q12 21.5 61 28.5q25 2 57.5 2h71.5q16 45 31.5 88t32.5 86q2 8 13 15t23.5 10t21.5 1t9 -10q-18 -51 -35.5 -98t-34.5 -92q47 -2 95.5 -2.5t93.5 -2.5q8 0 7 -7t-7 -15t-16.5 -15.5t-22.5 -9.5h-166q-16 -45 -30.5 -87t-28.5 -83q-4 -12 -14.5 -21t-21.5 -12 t-19.5 0t-8.5 11q14 49 28.5 97t31.5 95q-43 0 -86 -1t-84 -3q-14 4 -2 25.5z" />
<glyph unicode="," horiz-adv-x="249" d="M4 -174q-2 6 6 16q43 27 71 68t28 88q0 45 -23 55q-6 6 1 21.5t21.5 31t32 26.5t31.5 11q10 -4 18.5 -25.5t8.5 -45.5q0 -68 -51.5 -136.5t-133.5 -115.5q-8 0 -10 6z" />
<glyph unicode="-" horiz-adv-x="501" d="M79 304q13 28 40 36q27 2 69.5 6t90 7t92.5 5t80 2q8 -4 8 -15t-8.5 -24.5t-21.5 -25.5t-28 -16q-37 0 -81 -1.5t-88 -2.5t-85 -2t-67 -1q-14 4 -1 32z" />
<glyph unicode="." horiz-adv-x="245" d="M61 49q0 12 8.5 28.5t22.5 32t32.5 25.5t37.5 10q12 0 22.5 -9t10.5 -23q0 -16 -8.5 -37t-22.5 -37t-31 -27.5t-31 -11.5q-18 0 -29.5 10t-11.5 39z" />
<glyph unicode="/" horiz-adv-x="438" d="M-49 -68q45 80 106.5 186.5t130 227.5t143.5 250t146.5 254t138 237.5t119.5 202.5q12 10 32.5 8t16.5 -18q-47 -76 -111.5 -185.5t-138 -235.5t-150.5 -260t-147.5 -259t-131 -233.5t-99.5 -182.5q-6 -8 -16 -11t-19.5 -2t-15.5 6t-4 15z" />
<glyph unicode="0" horiz-adv-x="784" d="M113 213q0 76 32.5 152.5t89 138t132 99.5t161.5 38q102 0 164 -58.5t62 -152.5q0 -84 -35 -160.5t-92.5 -137t-132 -96.5t-156.5 -36q-98 0 -161.5 57.5t-63.5 155.5zM215 295q0 -111 50 -171.5t143 -60.5q104 0 173.5 77t69.5 212q0 98 -45 164t-141 66 q-57 0 -103.5 -22.5t-79 -60.5t-50 -90.5t-17.5 -113.5z" />
<glyph unicode="1" horiz-adv-x="417" d="M84 6q25 66 53.5 135.5t60 139t62.5 135t57 123.5q-49 -12 -91 -22.5t-76 -10.5q-10 2 -8.5 12t14.5 17q39 4 84 16t89 30.5t85 42t71 48.5q10 4 17.5 0t7.5 -15q-51 -68 -96 -147.5t-83 -162.5t-65.5 -166t-46.5 -154q-10 -16 -44 -27.5t-69 -11.5q-27 0 -22 18z" />
<glyph unicode="2" horiz-adv-x="598" d="M-2 13.5q0 13.5 10 23.5q88 57 172 104t148.5 94.5t103.5 100.5t39 125q0 53 -31.5 86t-87.5 33q-66 0 -109.5 -45.5t-58.5 -110.5q-6 -6 -14 0t-8 16q8 37 28.5 73t52 64.5t75 46t94.5 17.5q92 0 133 -44t41 -101q0 -59 -25.5 -105.5t-75 -87.5t-122 -84t-166.5 -98 q43 -14 100 -24.5t127 -10.5q47 0 71.5 13.5t36.5 35.5q10 8 16.5 1t2.5 -21q-35 -53 -81 -84t-118 -31q-57 0 -100 11.5t-77 21.5t-61.5 13t-54.5 -13q-16 -10 -28.5 -18.5t-22.5 -14.5q-10 0 -10 13.5z" />
<glyph unicode="3" horiz-adv-x="544" d="M-117 -193q2 6 10.5 9.5t12.5 -2.5q14 -39 62 -67t134 -28q123 0 203 71t80 204q0 102 -46 156.5t-134 54.5q-47 0 -86 -27q-10 0 -15.5 9.5t2.5 19.5q94 39 159 67.5t105 57t57 60.5t17 77q0 49 -28.5 87t-85.5 38q-53 0 -91 -22.5t-63 -63.5q-4 -6 -14 0t-6 16 q23 43 80 80t145 37q86 0 130 -43t44 -98q0 -82 -65.5 -135.5t-194.5 -104.5q43 8 81 -4t65.5 -39t44 -66.5t16.5 -89.5q0 -84 -41 -155.5t-108.5 -124.5t-157 -83t-185.5 -30q-66 0 -96.5 38t-30.5 101z" />
<glyph unicode="4" horiz-adv-x="761" d="M82 303q88 109 192.5 211t214 195.5t221 174.5t216.5 146q10 2 18 -6t4 -18q-29 -31 -50 -58.5t-40.5 -56.5t-37 -59.5t-38.5 -67.5q-47 -86 -94 -191.5t-90 -224.5h27q72 0 114.5 18.5t61.5 53.5q4 4 11 -1t5 -16q-39 -72 -93 -104.5t-157 -34.5q-39 -113 -65 -223 q-4 -10 -19.5 -19.5t-33 -16.5t-36 -12t-28.5 -5q-20 0 -23 12q23 66 45.5 133.5t49.5 136.5q-68 6 -123 16.5t-97 17.5t-72 9t-46 -10q-8 -6 -17 -14q-8 -4 -16 0t-4 14zM201 395q57 -16 129.5 -27.5t158.5 -15.5q57 141 120 273.5t126 238.5q-156 -111 -286 -222.5 t-248 -246.5z" />
<glyph unicode="5" horiz-adv-x="512" d="M-143 -193q2 10 11 12.5t13 -3.5q20 -35 77.5 -55.5t131.5 -20.5q123 0 189.5 78t66.5 200q0 78 -44 139.5t-122 84.5q-27 10 -31 31.5t7 62.5q18 68 49 146.5t61 142.5q10 10 33 10q41 2 88 3t96 3q92 6 109 41q4 8 12 4t8 -14q-18 -68 -44.5 -94.5t-92.5 -30.5 q-16 0 -39.5 -1t-48.5 -3t-48.5 -3t-37.5 -1q-43 -2 -51 -27q-10 -20 -17.5 -41.5t-15.5 -50.5q-10 -35 -1 -53.5t40 -32.5q92 -39 147.5 -110.5t55.5 -153.5q0 -74 -34 -143.5t-95.5 -124t-147.5 -86t-192 -31.5q-133 0 -133 122z" />
<glyph unicode="6" d="M102 219q0 76 28 166t76 179t114.5 172t144.5 146.5t164 101.5t172 38q72 0 103.5 -41t21.5 -104q-4 -6 -10.5 -7.5t-10.5 2.5q-25 41 -66.5 60.5t-107.5 19.5q-168 0 -278.5 -122.5t-194.5 -356.5q37 55 101.5 90t134.5 35q39 0 69.5 -15.5t52 -42t32.5 -59t11 -69.5 q0 -74 -36.5 -146.5t-94 -132t-128 -96.5t-138.5 -37q-76 0 -118 56.5t-42 162.5zM211 256q0 -106 32.5 -149.5t98.5 -43.5q35 0 71 19.5t65.5 57.5t48 94.5t18.5 132.5q0 72 -30.5 117.5t-96.5 45.5q-39 0 -76 -21.5t-66.5 -58t-47 -87t-17.5 -107.5z" />
<glyph unicode="7" horiz-adv-x="667" d="M-18 -311q82 121 160.5 209t159.5 174t166 186t181 246q-35 4 -64.5 8t-60 6t-67.5 3t-84 1q-100 0 -146.5 -35.5t-72.5 -121.5q-6 -8 -15.5 -1t-7.5 17q16 53 41 114.5t47 102.5q10 10 23.5 18.5t34 13.5t50 8t72.5 3q70 0 135.5 -9t139.5 -22q29 -6 51 17q18 20 23 30 q8 4 14 -3t2 -21q-98 -172 -181 -291t-158 -217t-143.5 -192.5t-138.5 -217.5q-8 -8 -25.5 -16t-39 -15.5t-43 -11.5t-37.5 -4q-8 0 -14.5 5t-1.5 16z" />
<glyph unicode="8" horiz-adv-x="688" d="M82 193q0 111 88 205t262 145q-39 45 -68.5 93t-29.5 118q0 39 20.5 78.5t58.5 71.5t93 51.5t125 19.5q86 0 139 -45.5t53 -108.5q0 -166 -245 -266q43 -47 77.5 -101.5t34.5 -138.5q0 -59 -29.5 -116.5t-82 -101.5t-121 -70.5t-148.5 -26.5q-111 0 -169 52t-58 141z M199 242q0 -84 47 -134.5t141 -50.5q88 0 140.5 51.5t52.5 143.5q0 94 -38 153.5t-85 110.5q-143 -41 -200.5 -111.5t-57.5 -162.5zM442 801q0 -76 34 -126t79 -97q164 70 164 202q0 70 -40 108t-106 38q-59 0 -95 -35t-36 -90z" />
<glyph unicode="9" horiz-adv-x="686" d="M-61 -203q2 6 8 10.5t10 -0.5q16 -25 53 -40t96 -15q80 0 141.5 24.5t108.5 76t84 132.5t70 195q-41 -59 -100.5 -98t-137.5 -39q-96 0 -138 44t-42 134q0 74 31 148.5t82 135t119.5 98.5t144.5 38q98 0 151.5 -55.5t53.5 -134.5q0 -150 -54.5 -287t-140.5 -242.5 t-194 -168t-219 -62.5q-63 0 -95 28.5t-32 77.5zM205 264q0 -155 137 -155q43 0 81 25.5t67.5 68.5t47 97t17.5 110q0 76 -34 125t-111 49q-96 0 -150.5 -80t-54.5 -240z" />
<glyph unicode=":" horiz-adv-x="327" d="M41 49q0 12 8 28.5t22.5 32t33 25.5t36.5 10q12 0 22.5 -9t10.5 -23q0 -16 -8 -37t-22.5 -37t-31 -27.5t-30.5 -11.5q-18 0 -29.5 10t-11.5 39zM162 428q0 12 8 28.5t21.5 32t32 25.5t36.5 10q12 0 22.5 -9t10.5 -23q0 -16 -8.5 -37t-22.5 -37.5t-30.5 -27.5t-30.5 -11 q-18 0 -28.5 10t-10.5 39z" />
<glyph unicode=";" horiz-adv-x="333" d="M-8 -168q-2 6 6 16q43 27 70.5 68t27.5 88q0 45 -22 55q-6 6 1 21.5t21.5 31t32 27t31.5 11.5q10 -4 18 -26t8 -46q0 -68 -51 -136.5t-133 -115.5q-8 0 -10 6zM166 428q0 12 8 28.5t21.5 32t32 25.5t38.5 10q10 0 21.5 -9t11.5 -23q0 -16 -9 -37t-22.5 -37.5t-31 -27.5 t-31.5 -11q-18 0 -28.5 10t-10.5 39z" />
<glyph unicode="&#x3c;" horiz-adv-x="616" d="M61 283q-10 6 1.5 22.5t41.5 26.5q33 10 89.5 28.5t121 39l129 41t111.5 34.5q12 -2 1 -22.5t-40 -30.5q-20 -6 -63 -20.5t-95.5 -31t-106.5 -35t-95 -32.5q61 -27 143 -63.5t154 -69.5q10 -10 -9.5 -25.5t-46.5 -11.5q-29 12 -72.5 31.5t-91 41t-93.5 42.5t-79 35z" />
<glyph unicode="=" horiz-adv-x="616" d="M87.5 219.5q11.5 20.5 62.5 28.5h75.5h95t103.5 -1t102 -1q16 -4 2 -24.5t-39 -22.5q-94 0 -198.5 -1t-202.5 -3q-12 4 -0.5 24.5zM138.5 369.5q11.5 21.5 60.5 27.5q31 0 75.5 1t96 1t104.5 -1t103 -3q8 0 7 -7t-7.5 -16.5t-15.5 -16.5t-21 -7q-94 2 -198.5 1t-203.5 -5 q-12 4 -0.5 25.5z" />
<glyph unicode="&#x3e;" horiz-adv-x="616" d="M60.5 149.5q11.5 20.5 39.5 30.5q20 6 63.5 20.5t95.5 31t106.5 35t95.5 32.5q-61 27 -143 63.5t-154 69.5q-10 10 9.5 25.5t45.5 11.5q29 -12 73 -31.5t91 -41t93 -42.5t79 -35q10 -6 -1 -22t-42 -27q-33 -10 -89 -28.5t-120.5 -39l-129 -41t-112.5 -34.5 q-12 2 -0.5 22.5z" />
<glyph unicode="?" horiz-adv-x="606" d="M113 49q0 12 8 28.5t21.5 32t32 25.5t36.5 10q12 0 22.5 -9t10.5 -23q0 -16 -8.5 -37t-22.5 -37t-30.5 -27.5t-30.5 -11.5q-18 0 -28.5 10t-10.5 39zM231 298q-2 24 8.5 51.5t36.5 53.5q55 59 129 100.5t139.5 84.5t111.5 98t46 141q0 72 -39.5 118t-113.5 46 q-76 0 -123 -42t-61 -101q-10 -10 -22.5 0t-10.5 20q14 39 41.5 74t63.5 61.5t79 43t90 16.5t86 -15.5t66.5 -41t43 -59.5t15.5 -68q0 -82 -29.5 -136.5t-75.5 -94.5t-102.5 -68.5t-110 -55t-97.5 -58.5t-66 -77q-16 -35 -4 -60.5t47 -29.5q14 -2 5 -12.5t-28.5 -22.5 t-42 -21.5t-37.5 -4.5q-18 4 -30.5 20t-14.5 40z" />
<glyph unicode="@" horiz-adv-x="1050" d="M102 238q0 100 37 192t105.5 162t167 111.5t221.5 41.5q74 0 135 -25.5t106.5 -68.5t70 -99t24.5 -118q0 -68 -30 -131t-76 -112.5t-103.5 -78t-114.5 -28.5q-72 0 -72 92q0 47 23 105q-45 -70 -94 -120t-103 -61q-37 0 -61.5 30t-24.5 89q0 55 26 109.5t68 97.5t94 69.5 t107 26.5q31 0 52.5 -7t39.5 -19q10 8 37 15t41 7q10 0 6 -8q-29 -35 -51 -75t-38.5 -80t-24.5 -75.5t-8 -60.5q0 -65 49 -65q82 0 136 60t54 177q0 59 -21.5 114.5t-63.5 97.5t-104.5 66.5t-146.5 24.5q-86 0 -155.5 -26.5t-120.5 -78.5t-79 -131t-28 -184 q0 -78 24.5 -144.5t72 -114.5t116 -75.5t158.5 -27.5q117 0 189.5 40t113.5 111q6 6 11 -1t3 -17q-51 -92 -149 -146.5t-225 -54.5q-180 0 -287 101.5t-107 292.5zM403 248q0 -35 12.5 -58.5t28.5 -23.5q18 0 46 24.5t56.5 62.5t57.5 86t51 97q-8 23 -27.5 38t-49.5 15 q-33 0 -65 -17t-56.5 -49t-39 -76t-14.5 -99z" />
<glyph unicode="A" horiz-adv-x="2078" d="M104 174q-11 37 -11 78q-1 42 11 88q22 90 91 174q6 4 14 -1t6 -19q-47 -51 -52 -118q-1 -9 -1 -17q0 -57 30 -108q34 -58 105.5 -98t179.5 -40q174 0 326.5 71.5t288.5 194.5q47 41 94 88l98 98q-72 -4 -135.5 -9t-118.5 -13q-10 2 -4 10t18.5 17.5t30 16.5t33.5 9 q27 2 83 3t128 3q115 119 255 257t333 290q-137 45 -283.5 74.5t-282.5 29.5q-154 0 -252 -85t-120 -267q-4 -10 -11.5 -8t-9.5 12q25 201 150 307.5t323 106.5q84 0 176.5 -11.5t181.5 -28.5t170 -39t142 -42q6 -4 6 -11t-12 -20q-68 -74 -121 -169t-90 -207.5 t-57.5 -237.5t-20.5 -256q0 -98 23.5 -152.5t83.5 -54.5q82 0 155 115q6 4 12.5 0t4.5 -12q-53 -86 -118 -139.5t-120 -53.5q-82 0 -124 63.5t-42 180.5q0 164 37 334q-96 0 -189.5 -2.5t-181.5 -6.5q-68 -72 -130 -135t-122 -117q-164 -150 -337 -233.5t-379 -83.5 q-111 0 -177 49t-88 125zM1370 602q98 2 193.5 2h150.5q33 147 92.5 286.5t145.5 256.5q-180 -145 -321.5 -282.5t-260.5 -262.5z" />
<glyph unicode="B" horiz-adv-x="1361" d="M61 242q-2 4 -2 8q-1 8 5 16q10 14 28.5 23.5t40 13.5t39.5 -4q39 -39 78 -50q20 -6 46 -6q23 0 50 5q53 10 89 39.5t65.5 93t61.5 166t75 258.5q43 154 107.5 266.5t156.5 190.5q-12 0 -25.5 1t-29.5 1q-68 0 -133.5 -18.5t-124 -55.5t-105.5 -89t-75 -120 q-6 -4 -11.5 -1t-3.5 13q25 63 74 123t118.5 105t157.5 71.5t187 26.5h26.5t24.5 -2q43 25 90 44t100 32q10 0 10.5 -7.5t-10.5 -11.5q-74 -18 -135 -61q180 -23 269.5 -103t89.5 -186q0 -61 -24.5 -112.5t-66.5 -88.5t-100.5 -57.5t-126.5 -20.5q61 -18 109.5 -55t82.5 -85 t52 -100t18 -102q0 -88 -33.5 -161.5t-102 -128t-175 -84t-252.5 -29.5q-231 0 -402 62.5t-313 179.5zM285 209q104 -78 243 -128t293 -50q92 0 165 25.5t122 69.5t74.5 103.5t25.5 128.5q0 266 -327 355q-6 6 5 19t29.5 26.5t39 21.5t32.5 6q20 -8 35.5 -12t40.5 -4 q37 0 72.5 16.5t63.5 44t45.5 66.5t17.5 84q0 98 -74 174t-221 98q-131 -135 -205 -411q-53 -199 -105.5 -321t-108.5 -190.5t-119.5 -93t-143.5 -28.5z" />
<glyph unicode="C" horiz-adv-x="1181" d="M141 502q0 174 62.5 324.5t176.5 259t269.5 171t343.5 62.5q74 0 135.5 -7t106.5 -21.5t70.5 -34t25.5 -44.5q0 -16 -8 -43.5t-19.5 -57.5t-25.5 -58.5t-27 -44.5q-6 -4 -15 1t-5 15q27 48 27 82q0 20 -9 35q-27 43 -112.5 82t-212.5 39q-160 0 -280 -49.5t-199.5 -139.5 t-119.5 -219t-40 -289q0 -115 30.5 -212t90 -167.5t145.5 -110.5t197 -40q147 0 245.5 91t139.5 243q4 10 14 8t10 -12q-8 -43 -23.5 -95.5t-34 -98.5t-37 -80t-30.5 -38q-66 -25 -146.5 -39t-170.5 -14q-287 0 -430.5 133t-143.5 369z" />
<glyph unicode="D" horiz-adv-x="1673" d="M61 57q0 27 19.5 58.5t55.5 58.5t84 44.5t108 17.5q80 0 146.5 -14.5t131.5 -37.5q72 82 135.5 221.5t132.5 356.5q41 127 89.5 225t111.5 170q-82 41 -173 62.5t-189 21.5q-90 0 -157 -26.5t-112 -71.5t-71.5 -104.5t-36.5 -125.5q-4 -4 -10.5 -2t-6.5 11q8 84 45 156.5 t99.5 125.5t148.5 84t195 31q94 0 182 -21.5t170 -60.5q53 43 115.5 71.5t140.5 45.5q6 0 6 -7.5t-6 -11.5q-121 -32 -213 -118q100 -55 185.5 -132t146.5 -169.5t95 -192.5t34 -201q0 -113 -43 -209t-121 -165.5t-187.5 -108.5t-242.5 -39q-78 0 -145.5 9t-128 24.5 t-116.5 35t-112 37.5q-78 -55 -173 -80.5t-212 -25.5q-66 0 -93.5 15.5t-27.5 41.5zM147 104q0 -31 26 -49t79 -18q86 0 154.5 17.5t128.5 62.5q-68 20 -139.5 34.5t-157.5 14.5q-47 0 -69 -16.5t-22 -45.5zM645 170q51 -18 105.5 -35.5t118 -33t137 -24.5t163.5 -9 q197 0 289 103t92 288q0 96 -30.5 192.5t-86 184.5t-133 163.5t-174.5 130.5q-92 -125 -157 -325q-72 -227 -149 -382t-175 -253z" />
<glyph unicode="E" horiz-adv-x="1050" d="M123 324q0 98 39 181t107.5 148.5t162.5 110.5t207 65q-78 33 -125 88.5t-47 126.5q0 55 27.5 105.5t81 87.5t131 59.5t178.5 22.5q55 0 104 -10.5t87 -26.5t59.5 -37.5t22.5 -42.5q0 -16 -7.5 -40.5t-19 -49.5t-22.5 -46.5t-17 -29.5q-6 -4 -12.5 0t-4.5 13 q12 23 16.5 49t-8.5 55q-25 51 -91 87t-156 36q-123 0 -184.5 -56.5t-61.5 -148.5q0 -72 49 -122t166 -85q6 -4 -1 -15t-19.5 -24.5t-27 -23.5t-22.5 -13q-19 1 -38 1q-200 0 -313 -98q-124 -107 -124 -318q0 -72 21.5 -133.5t61.5 -106.5t96.5 -70.5t127.5 -25.5 q168 0 274.5 78t153.5 252q6 10 13.5 6t9.5 -17q-25 -115 -58.5 -190.5t-62.5 -87.5q-86 -39 -174 -58.5t-207 -19.5q-193 0 -293 85t-100 239z" />
<glyph unicode="F" horiz-adv-x="1320" d="M102 262q0 72 42 133.5t120 96.5q8 0 12.5 -7.5t-0.5 -13.5q-37 -29 -54 -62.5t-17 -93.5q0 -53 18.5 -97t57 -78t100 -52t147.5 -18q98 0 173 24.5t136.5 89t115 177t108.5 288.5q-104 -4 -202.5 -12t-192.5 -23q-6 2 2 9.5t23.5 15.5t33.5 15.5t29 9.5q154 8 315 12 q10 33 20.5 67.5t20.5 71.5q45 166 114.5 255t190.5 132q-111 16 -212 29.5t-193 13.5q-154 0 -254.5 -58.5t-147.5 -199.5q-6 -6 -12 -2t-6 14q45 145 177 233.5t327 88.5q76 0 152.5 -8t156.5 -19.5t165 -24t177 -20.5q5 -3 5 -9q0 -4 -3 -10q-6 -13 -19.5 -26.5t-32 -24 t-32.5 -10.5q-49 4 -99.5 10.5t-99.5 14.5q-43 -12 -74.5 -35.5t-57 -62.5t-47 -97.5t-44.5 -142.5q-14 -47 -26.5 -92t-28.5 -86h211q10 -4 7 -9t-20 -10q-53 -2 -104 -3t-102 -3q-123 -338 -312.5 -495.5t-453.5 -157.5q-147 0 -228.5 69.5t-81.5 192.5z" />
<glyph unicode="G" horiz-adv-x="1249" d="M-76 -70q0 86 53.5 160t163.5 115q10 4 12.5 -7.5t-6.5 -19.5q-49 -29 -72.5 -75t-23.5 -123q0 -154 89 -239t251 -85q111 0 205 34t174 108.5t145.5 196.5t120.5 298q-63 -53 -144 -89t-179 -36q-303 0 -303 274q0 94 31.5 195.5t89 199t137.5 184.5t175 152.5 t203.5 104.5t225.5 39q98 0 157.5 -43t59.5 -109q0 -23 -14.5 -53.5t-36 -62t-44 -61.5t-36.5 -52q-6 -4 -14.5 1t-6.5 13q29 45 42.5 80t13.5 76q0 57 -52 95t-163 38q-139 0 -255 -58.5t-199 -159.5t-129 -237.5t-46 -294.5q0 -139 50 -210.5t155 -71.5q121 0 209 66.5 t122 189.5q4 16 27 27.5t47.5 15.5t45 1t20.5 -15q-66 -231 -156 -397.5t-202.5 -272t-246 -154.5t-282.5 -49q-203 0 -308.5 84t-105.5 227z" />
<glyph unicode="H" horiz-adv-x="1851" d="M102 188q0 78 48.5 152t142.5 130t235.5 91t325.5 35h53q8 29 16.5 57.5t18.5 61.5q33 121 67.5 203.5t69.5 138t72 88.5t76 53q-53 18 -127 33.5t-158 15.5q-96 0 -160.5 -26.5t-101.5 -72.5t-46 -108q-4 -24 -4 -51q0 -40 9 -82q-2 -10 -8 -12t-13 6q-9 42 -9 83 q-1 41 9 80q18 77 70.5 134t139.5 90t208 33q86 0 166 -19.5t144 -46.5q8 -12 -1.5 -22t-39.5 -23q-41 -16 -70 -44.5t-53.5 -78t-48 -121t-50.5 -173.5q-14 -53 -29.5 -104.5t-33.5 -98.5q135 -10 277.5 -30.5t273.5 -49.5q70 209 159 374t185 278.5t197.5 173t199.5 59.5 q92 0 92 -90q0 -29 -10 -67t-20 -60q-12 -4 -17 8q6 17 6 33q1 27 -17 47q-28 34 -114 34q-90 0 -162.5 -43t-138 -139t-127 -251.5t-125.5 -381.5q29 -8 53.5 -15t49.5 -13q4 -4 -5.5 -12.5t-25.5 -16.5t-38.5 -14t-43.5 -4q-2 0 -10 4q-6 -23 -11.5 -42.5t-11.5 -41.5 q-26 -99 -26 -157q0 -83 53 -83q80 0 154 115q6 6 12 2t4 -14q-23 -35 -50.5 -69t-58 -61.5t-63.5 -45t-62 -17.5q-77 0 -107 62q-14 29 -14 73q0 52 19 125q12 49 24.5 95t28.5 91q-121 35 -261 62t-285 39q-115 -291 -283 -419t-367 -128q-129 0 -190.5 54.5t-61.5 133.5z M205 229q0 -88 54.5 -134t152.5 -46q90 0 159.5 25.5t126 84t103.5 156t94 240.5q-29 2 -57.5 2h-57.5q-154 0 -263 -25.5t-178 -69.5t-101.5 -103.5t-32.5 -129.5z" />
<glyph unicode="I" horiz-adv-x="1214" d="M102 190q0 72 57.5 136.5t180.5 95.5q10 -2 11 -8t-3 -11q-125 -41 -125 -155q0 -86 67.5 -137.5t188.5 -51.5q160 0 287 67t223 224q-104 6 -159.5 80t-55.5 191q0 127 67.5 251.5t180.5 225t261 162t308 61.5q6 -3 6 -10q0 -3 -1 -5q-3 -12 -13 -25t-23.5 -25.5 t-25.5 -18.5q-45 -12 -78 -35.5t-60.5 -66.5t-52 -112t-51.5 -175q-72 -276 -207 -469q27 4 50.5 12t33.5 15q6 2 8.5 -3.5t-1.5 -11.5q-16 -10 -45 -20.5t-60 -14.5q-129 -174 -297 -265t-362 -91q-150 0 -230 53t-80 137zM801 629q0 -123 53 -187.5t145 -70.5 q96 164 166 432q23 92 49.5 157.5t59.5 113.5t75 83t97 66q-141 -16 -260 -76t-205 -142.5t-133 -181t-47 -194.5z" />
<glyph unicode="J" horiz-adv-x="1380" d="M0 -125q0 70 37 147.5t112.5 147.5t189.5 126t267 83q10 0 10 -8.5t-10 -12.5q-248 -47 -370.5 -163.5t-122.5 -264.5q0 -125 69.5 -188.5t204.5 -63.5q121 0 232.5 37t212 117t189.5 207t167 307q-106 4 -174 77t-68 195q0 127 67.5 252t180.5 225.5t261 162t308 61.5 q7 -4 7 -11q0 -3 -2 -8q-5 -12 -16 -25t-25.5 -24.5t-20.5 -15.5q-43 -12 -76 -34.5t-60.5 -65.5t-53 -113t-52.5 -176q-68 -262 -166 -467q23 6 40.5 12t25.5 12q8 0 10 -5t-2 -9q-14 -10 -35.5 -18.5t-48.5 -14.5q-92 -188 -203.5 -326.5t-236.5 -229.5t-260 -135 t-271 -44q-156 0 -236.5 62.5t-80.5 191.5zM973 627q0 -119 59.5 -186.5t163.5 -73.5q75 186 141 434q45 176 121 274.5t160 145.5q-141 -16 -260 -76t-205 -142.5t-133 -181t-47 -194.5z" />
<glyph unicode="K" horiz-adv-x="1986" d="M102 236q0 84 56.5 155.5t154.5 104.5q10 2 14.5 -4.5t0.5 -16.5q-53 -29 -83 -80t-30 -116q0 -98 68.5 -160t195.5 -62q123 0 215 32t158 100.5t110 180t72 271.5q25 141 55.5 236.5t65.5 159t75 100.5t85 59q-53 20 -125 33.5t-158 13.5q-127 0 -221 -42t-150.5 -116.5 t-74.5 -176.5q-8 -43 -9 -89q0 -63 15 -131q-2 -10 -10.5 -13t-12.5 5q-16 68 -16 133q0 57 12 111q25 116 95.5 204.5t187.5 140.5t274 52q84 0 164 -19.5t144 -46.5q8 -12 -0.5 -22t-40.5 -23q-43 -18 -75 -51t-56.5 -90t-45 -145t-43.5 -213q-31 -172 -99.5 -305.5 t-165.5 -223.5t-219 -136t-259 -46q-156 0 -240 65.5t-84 170.5zM1238 720q1 10 11 19q92 119 191.5 225.5t198 185.5t189.5 125t169 46q41 0 63.5 -30.5t22.5 -73.5q0 -29 -7.5 -68t-17.5 -68q-16 -10 -20 6q3 14 3 27q1 32 -17 58q-24 36 -93 36q-131 0 -286.5 -110 t-311.5 -307q45 -160 89 -289t98.5 -220.5t120 -139.5t153.5 -48q47 0 84 23.5t59 60.5q6 6 13.5 -1t3.5 -17q-37 -70 -101.5 -115t-144.5 -45q-94 0 -166 56.5t-128 152.5t-98 223t-77 268q-1 7 -1 13v7z" />
<glyph unicode="L" horiz-adv-x="1382" d="M61 100q0 27 19.5 57.5t54.5 57.5t83 45.5t108 18.5q76 0 148.5 -19.5t148.5 -48.5q35 57 67.5 143t65.5 211q47 176 112.5 316.5t146.5 238t174 149.5t195 52q63 0 102.5 -44t39.5 -108q0 -41 -18.5 -95t-39.5 -89q-8 -6 -17 -2t-7 14q10 32 10 63v11q-2 37 -20.5 67.5 t-56.5 50t-95 19.5q-78 0 -134 -27.5t-103.5 -96t-88.5 -183.5t-84 -287q-72 -274 -198 -424q92 -35 193.5 -62.5t224.5 -27.5q102 0 155 37t88 107q8 6 15.5 1t5.5 -18q-49 -111 -131 -169t-219 -58q-121 0 -220.5 36t-193.5 77q-150 -113 -367 -113q-82 0 -123 28.5 t-41 71.5zM141 147q0 -41 46 -67.5t130 -26.5q74 0 132.5 15.5t105.5 60.5q-76 33 -153.5 57.5t-165.5 24.5q-94 0 -95 -64z" />
<glyph unicode="M" horiz-adv-x="2615" d="M102 350q0 104 59.5 187.5t164.5 121.5q8 4 11 -4t-1 -14q-63 -41 -89 -94t-26 -139q0 -68 22.5 -128.5t65.5 -106.5t108.5 -72.5t151.5 -26.5q178 0 341 82t317.5 224t303 334.5t296.5 413.5q-143 49 -300 83t-302 34q-166 0 -256 -93t-111 -251q-4 -10 -11 -8t-9 12 q23 203 147.5 309.5t325.5 106.5q82 0 174 -11.5t181 -29.5t170 -39.5t142 -42.5q8 2 21 6q8 -2 10 -10t-2 -14q-29 -16 -48.5 -44t-41.5 -69q-102 -207 -162.5 -431t-99.5 -454q94 170 222 341t273.5 324.5t300.5 283t302 215.5q10 0 14 -12q2 -5 2 -8q0 -6 -4 -11 q-104 -102 -185 -228t-136.5 -259.5t-83 -263.5t-27.5 -238q0 -111 26.5 -173.5t73.5 -62.5q41 0 79 31t75 86q6 4 13 0t5 -14q-23 -35 -51.5 -69t-62 -61.5t-68.5 -45t-68 -17.5q-76 0 -112.5 69.5t-36.5 186.5q0 96 22.5 214t66.5 241t106.5 240.5t142.5 211.5 q-123 -92 -254 -221t-253 -275.5t-227.5 -302t-175.5 -303.5q-4 -8 -16 -19t-28.5 -20.5t-33 -15.5t-28.5 -6q-16 0 -12 14q39 317 111.5 565t170.5 457q-164 -246 -320.5 -439.5t-315 -325.5t-322.5 -201.5t-338 -69.5q-193 0 -296.5 96.5t-103.5 253.5z" />
<glyph unicode="N" horiz-adv-x="2033" d="M88 305q0 82 40 161t116 128q10 4 14 -4t0 -19q-37 -37 -58.5 -83t-21.5 -97q0 -129 86 -207t258 -78q295 0 493.5 243t270.5 730q-92 74 -188.5 114t-200.5 40q-98 0 -162.5 -45t-93.5 -98q-6 -6 -13 -4.5t-10 12.5q18 39 53.5 79t81.5 71.5t102 51t118 19.5 q86 0 169 -29.5t161 -85.5q4 12 12 27.5t17 28t16.5 17.5t9.5 -3q-2 -27 -4 -52.5t-6 -50.5q90 -72 170.5 -171t149.5 -215.5t124 -246.5t94 -264q16 113 49 234t80 236.5t103.5 220t119 183.5t128 125t131.5 46t95 -52.5t29 -156.5q-2 -12 -12 -14t-14 10q-4 33 -31 63.5 t-88 30.5q-66 0 -133.5 -51t-132 -137t-120.5 -202t-100 -245t-71 -265t-31 -263q0 -23 -4 -30t-14 -7t-14.5 9t-8.5 22q-92 338 -223 598t-297 413q-45 -252 -128 -446.5t-194.5 -326.5t-247.5 -200.5t-288 -68.5q-96 0 -168 23.5t-119 64.5t-70.5 96.5t-23.5 120.5z" />
<glyph unicode="O" horiz-adv-x="1323" d="M143 475q0 156 66.5 307.5t178.5 271.5t258 192.5t308 72.5q111 0 196 -36t144.5 -100.5t90 -154.5t30.5 -197q0 -166 -66.5 -316t-177 -265t-253 -182.5t-293.5 -67.5q-117 0 -206 36t-150.5 100.5t-93.5 150.5t-32 188zM270 543q0 -106 31 -192.5t90.5 -148t146 -95 t199.5 -33.5q106 0 205.5 50t177.5 141t125 219t47 286q0 98 -25.5 184t-78.5 149.5t-133 100.5t-191 37q-137 0 -246.5 -54t-186.5 -148.5t-119 -221.5t-42 -274z" />
<glyph unicode="P" horiz-adv-x="1681" d="M102 299q0 39 13.5 79t38 75.5t60.5 64.5t81 47q6 4 11 0t1 -14q-61 -33 -90 -88t-29 -119q0 -55 18.5 -105.5t58.5 -87t101.5 -58t147.5 -21.5q98 0 172 24.5t134.5 86t110.5 167t101 266.5q-37 59 -51 129q2 8 8 12.5t10 -1.5q14 -59 43 -107q8 27 15.5 55.5t15.5 57.5 q51 182 112.5 303t139.5 195q-10 2 -31 2q-217 0 -364.5 -99.5t-206.5 -304.5q-6 -6 -13.5 -1t-7.5 20q70 205 233 323.5t429 118.5h33q78 51 174 76q10 0 10 -9.5t-10 -13.5q-62 -18 -113 -57q94 -12 170 -47t128 -87.5t81 -119t29 -139.5q0 -96 -38 -180.5t-106.5 -145.5 t-167 -97t-221.5 -36q-133 0 -221 65q-129 -276 -303 -402t-375 -126q-170 0 -251 85t-81 214zM1126 561q85 -57 230 -57q86 0 155.5 28.5t119.5 80t77 119t27 145.5q0 145 -87 246.5t-249 129.5q-102 -129 -170 -393q-23 -84 -48.5 -158.5t-54.5 -140.5z" />
<glyph unicode="Q" horiz-adv-x="1232" d="M145 50q0 9 19 26q16 12 47 23.5t47 11.5q27 0 62.5 -16.5t66.5 -16.5q158 0 304.5 55t258 156.5t179 241t67.5 309.5q0 94 -22.5 175t-67.5 140t-109.5 92t-150.5 33q-115 0 -210 -48t-165 -134t-107.5 -206t-37.5 -265q0 -111 48 -192t142 -95q23 -4 41 -4q40 0 61 18 q6 4 11.5 -2t1.5 -16q-16 -23 -55 -37t-87 -14q-125 0 -200.5 79.5t-75.5 231.5q0 145 53 276.5t143.5 231.5t210 158.5t252.5 58.5q113 0 198 -35t143.5 -94t88 -139t29.5 -170q0 -160 -71.5 -302.5t-192.5 -253t-279.5 -184t-330.5 -96.5q53 -18 116.5 -48t133 -63.5 t143.5 -68.5t147 -64q80 -31 144.5 -45t142.5 -14q104 0 173 27.5t118 81.5q4 4 12 -1q5 -2 5 -8q0 -3 -1 -6q-55 -78 -152.5 -134t-217.5 -56q-43 0 -79 4t-72 13t-72.5 22.5t-79.5 33.5q-102 47 -209 102.5t-206.5 103.5t-189.5 80q-85 30 -149 30h-8q-11 4 -11 13z" />
<glyph unicode="R" horiz-adv-x="1781" d="M102 233q0 94 54.5 166t132.5 101q20 8 12 -15q-119 -63 -119 -188q0 -100 63.5 -160.5t190.5 -60.5q102 0 179 23.5t140.5 96t120 208t117.5 358.5q92 340 256 498q-190 -6 -326.5 -73t-234.5 -208q-8 -4 -14 0t-2 14q96 141 258 228.5t391 97.5q76 51 168 76 q10 0 10 -7.5t-10 -11.5q-55 -14 -109 -57q86 0 154 -26.5t115 -71.5t71.5 -102.5t24.5 -119.5q0 -86 -32 -155.5t-90 -118.5t-141 -73q-58 -16 -126 -16q-29 0 -60 3q31 -160 68 -267.5t81 -171t98 -90t118 -26.5q70 0 121 72q4 4 13 4q6 0 6 -5q0 -2 -1 -5 q-43 -70 -100.5 -110t-122.5 -40q-90 0 -153.5 52t-109.5 139.5t-77 202t-57 239.5q0 14 8 16q10 6 37.5 13.5t50.5 15.5q6 2 19.5 -1t33 -6t46 -4t61.5 7q88 20 137 91t49 191q0 59 -19.5 112.5t-57.5 93.5t-94 65.5t-132 32.5q-53 -68 -95 -168.5t-77 -231.5 q-61 -225 -142 -388t-179.5 -267.5t-213 -154.5t-239.5 -50q-141 0 -206 64.5t-65 168.5z" />
<glyph unicode="S" horiz-adv-x="1050" d="M102 268q0 88 46.5 149.5t125.5 94.5q10 4 14.5 -6t-1.5 -19q-37 -20 -58.5 -63t-21.5 -105q0 -125 92 -196.5t240 -71.5q193 0 275.5 76t82.5 199q0 115 -47 201.5t-103.5 163.5t-103.5 155t-47 176q0 57 25.5 110.5t71.5 95.5t109.5 66.5t139.5 24.5q104 0 164.5 -44 t60.5 -106q0 -35 -29.5 -85t-60.5 -87q-8 -4 -14 2.5t-4 14.5q10 16 17 39.5t7 52.5q0 33 -14 62.5t-41 51t-61.5 35t-73.5 13.5q-102 0 -149.5 -49.5t-47.5 -126.5q0 -61 23.5 -115.5t58.5 -109t75 -108.5t75 -112.5t58.5 -123t23.5 -140.5q0 -80 -40 -149.5t-109.5 -122 t-162 -82t-198.5 -29.5q-195 0 -296.5 75.5t-101.5 192.5z" />
<glyph unicode="T" horiz-adv-x="1214" d="M102 227q0 72 46.5 132.5t111.5 89.5q8 0 11 -8.5t-1 -14.5q-35 -27 -49 -59.5t-14 -75.5q0 -104 79 -161.5t222 -57.5q98 0 173 25.5t134 89t109.5 171t103.5 271.5q74 231 180.5 365t245.5 165q-135 35 -280.5 55.5t-294.5 20.5q-115 0 -201 -36t-142 -97 q-56 -60 -80 -142q-16 -55 -16 -114q0 -29 4 -60q-10 -20 -22 -4q-4 30 -4 60q0 70 20 138q28 96 96 172.5t175.5 121.5t257.5 45q217 0 397.5 -36t327.5 -81q7 -5 7 -12q0 -8 -9 -19q-18 -27 -46 -42t-45 -11q-20 6 -39.5 12.5t-41.5 12.5q-51 -4 -98.5 -32t-90.5 -82 t-82 -137t-76 -200q-106 -346 -297.5 -519t-459.5 -173q-147 0 -229.5 63.5t-82.5 163.5z" />
<glyph unicode="U" horiz-adv-x="1566" d="M142 890q24 122 92.5 217t178 153.5t255.5 58.5q86 0 165.5 -18.5t143.5 -47.5q10 -8 -6 -24q-109 -86 -192 -193.5t-141 -227.5t-88 -246t-30 -249q0 -117 44 -172t134 -55q106 0 208 69.5t208.5 215t225 370t257.5 533.5q8 16 47 30.5t85 14.5q33 0 32 -14 q-37 -43 -82 -122t-90 -178.5t-87 -212t-74.5 -220t-52 -203t-19.5 -162.5q0 -117 78 -117q76 0 151 115q6 6 13.5 1t5.5 -16q-55 -88 -118 -139t-120 -51q-59 0 -96 40t-37 120q0 102 30.5 243.5t96.5 305.5q-186 -350 -369.5 -529.5t-363.5 -179.5q-113 0 -175.5 69.5 t-62.5 186.5q0 111 33 232.5t94.5 242.5t151 237t206.5 218q-53 20 -132.5 36.5t-166.5 16.5q-119 0 -205.5 -50t-139.5 -133q-52 -84 -68 -190q-6 -43 -6 -86q0 -65 14 -133q-2 -8 -10 -12t-13 4q-16 71 -16 139q0 57 11 112z" />
<glyph unicode="V" horiz-adv-x="1421" d="M143 797q27 115 67 211t96 164.5t132 107.5t174 39q94 0 162 -47t113 -129t65.5 -193.5t20.5 -241.5t-21.5 -272.5t-60.5 -285.5q143 119 258 223t192.5 205.5t119.5 206t42 223.5q0 96 -41 155.5t-100 59.5q-37 0 -58.5 -17.5t-37.5 -54.5q-20 -8 -21 14 q10 29 29.5 56.5t41 49t44 35t41.5 13.5q49 0 89 -20.5t67.5 -54.5t43 -78t15.5 -89q0 -158 -73 -292t-190.5 -260t-265 -254t-296.5 -273q-25 0 -25 29q0 14 6 34q39 119 63.5 252t30.5 265q2 39 2 77q0 89 -10 173q-14 118 -52 209t-103.5 145.5t-161.5 54.5 q-139 0 -229.5 -109.5t-147.5 -334.5q-4 -8 -12.5 -6.5t-8.5 10.5z" />
<glyph unicode="W" horiz-adv-x="1730" d="M145 836v24q0 85 25 163q29 89 82 156.5t132 107.5t177 40q127 0 200 -80t97 -216q11 -66 11 -142q0 -81 -13 -174q-25 -180 -94 -381q55 117 122.5 239.5t144.5 239.5t161 222.5t170 185.5q10 4 16 -16.5t-2 -33.5q-33 -14 -57 -45q-35 -45 -48.5 -113.5t-14.5 -151.5 v-18q0 -75 8 -156l16 -182t12 -177q1 -29 1 -56q0 -54 -5 -102q51 74 114.5 141.5t129 135t127 136t110 145.5t78 164t29.5 189q0 68 -19.5 107t-54.5 39q-25 0 -42 -24.5t-34 -55.5q-6 -4 -12 0t-6 14q23 61 64.5 108.5t82.5 47.5q68 0 102 -53.5t34 -130.5 q0 -119 -38 -216.5t-99.5 -182.5t-140.5 -162.5t-161 -157.5t-160.5 -168t-140.5 -193q-16 -25 -29.5 -39t-29.5 -14q-10 0 -13 6t-3 16.5t3 23t3 24.5q3 49 3 100q-1 74 -7 153q-12 134 -21.5 260t-9.5 229t33 163q-70 -96 -130.5 -189.5t-118 -193.5t-111.5 -212 t-111 -243q-31 -72 -40 -104.5t-28 -32.5q-16 0 -21.5 15.5t11.5 54.5q57 143 92 286.5t45 272.5q5 59 5 113q0 66 -7 126q-12 110 -48 192.5t-94.5 128.5t-138.5 46q-78 0 -136 -33t-98 -87t-60.5 -124.5t-20.5 -148.5q-4 -12 -13.5 -14.5t-9.5 8.5z" />
<glyph unicode="X" horiz-adv-x="1665" d="M102 119q0 20 9.5 54t26 73t39 80t50.5 75q6 8 16.5 3t6.5 -17q-33 -47 -44 -90q-7 -28 -7 -56q0 -15 2 -30q6 -47 44 -73.5t109 -26.5q86 0 165 35.5t150.5 103t139.5 164t131 217.5q-29 133 -44 237.5t-29.5 177t-33 111.5t-53.5 39q-41 0 -78.5 -44t-66.5 -101 q-10 -10 -18.5 -5t-6.5 19q23 49 53.5 94t63.5 81t63.5 57.5t55.5 21.5q53 0 79.5 -48t42 -125t26 -175.5t30.5 -198.5q57 121 131 221.5t158 173t173 112.5t179 40q35 0 56.5 -27.5t21.5 -83.5q0 -49 -21.5 -114.5t-54.5 -112.5q-8 -6 -15 -1t-7 15q20 49 20 95 q0 53 -22.5 80.5t-77.5 27.5q-70 0 -141.5 -35t-140.5 -97t-132.5 -149.5t-116.5 -191.5q33 -143 77 -258t98.5 -194.5t120 -123t145.5 -43.5q59 0 99 35t64 95q6 6 13.5 0.5t7.5 -19.5q-55 -123 -110.5 -170t-127.5 -47q-88 0 -161.5 46t-134 126t-104.5 185.5t-71 224.5 q-154 -291 -330 -436.5t-352 -145.5q-78 0 -122 33t-44 86z" />
<glyph unicode="Y" horiz-adv-x="1433" d="M14 90q0 78 32 151.5t92.5 134t148.5 101.5t202 53q10 -2 9.5 -10t-11.5 -18q-94 -12 -160.5 -43t-109.5 -78t-62.5 -107.5t-19.5 -128.5q0 -156 94.5 -244.5t272.5 -88.5q131 0 248.5 45t230.5 150.5t227.5 279.5t241.5 432q-57 -94 -126 -175t-143.5 -141.5 t-152.5 -94.5t-154 -34q-98 0 -141 52q-34 42 -34 109q0 19 3 40q16 113 50 225.5t67 217.5q33 102 47 164q11 53 11 86q0 6 -1 12q-2 34 -17 45.5t-40 11.5q-47 0 -89 -36t-64 -73q-8 -6 -15.5 0.5t-5.5 16.5q18 33 48 64.5t65 56t73.5 39t77.5 14.5q35 0 58.5 -18.5 t30.5 -60.5q2 -16 2 -36q0 -32 -6 -74q-11 -69 -44 -169q-41 -127 -73.5 -228.5t-49.5 -204.5q-4 -29 -4 -53q0 -50 17 -80q24 -45 104 -45q178 0 370.5 236.5t424.5 699.5q23 20 52.5 26.5t55.5 6.5q22 0 22 -16q0 -2 -1 -5q-211 -451 -396.5 -750.5t-359.5 -480t-344 -255 t-352 -74.5q-193 0 -297.5 98t-104.5 254z" />
<glyph unicode="Z" horiz-adv-x="1280" d="M106 29q174 164 314.5 298t271.5 260t265.5 253t295.5 278q-96 33 -209.5 61.5t-230.5 28.5q-123 0 -181.5 -63.5t-78.5 -186.5q-6 -10 -15.5 -7t-11.5 14q14 78 41 143.5t70 112.5t105.5 72.5t150.5 25.5q102 0 188 -19.5t191 -52.5q48 -15 73 -15h3q24 1 53 25 q10 10 49 11q14 0 14 -8q0 -3 -2 -7q-129 -121 -269 -251t-284.5 -266t-290 -273t-282.5 -268q11 1 22 1q38 0 77 -10q50 -14 113.5 -31.5t147.5 -33t199 -15.5q141 0 221 59.5t131 178.5q6 4 17.5 -2t7.5 -16q-41 -86 -86 -149.5t-101.5 -106.5t-129 -63.5t-164.5 -20.5 q-74 0 -133.5 7t-109.5 19.5t-97.5 27.5t-98.5 30q-35 10 -64 10q-23 0 -42 -6q-43 -14 -101 -74q-13 -4 -29 7q-12 8 -12 16q0 3 2 6z" />
<glyph unicode="[" horiz-adv-x="677" d="M162 -172q92 358 183 726.5t163 698.5q4 23 33 23h91h83t85 -1t97 -3q18 -4 8 -18.5t-35 -16.5q-49 4 -114.5 4h-124.5q-100 -381 -186.5 -739.5t-143.5 -663.5q35 0 60.5 -1t49 -1t49 1t62.5 1q12 -6 8 -19.5t-38 -15.5h-77t-65 1t-70.5 2t-95.5 1q-23 0 -22 21z" />
<glyph unicode="\" horiz-adv-x="440" d="M61 1272q4 16 22 25t26 -7q20 -133 53 -312t69.5 -366.5t72.5 -362.5t65 -298q0 -23 -19.5 -33t-30.5 6q-27 135 -60.5 305t-68 350.5t-68.5 359.5t-61 333z" />
<glyph unicode="]" horiz-adv-x="720" d="M29 -175.5q10 15.5 34 17.5q49 -4 115 -5t125 1q100 381 187.5 738.5t142.5 662.5q-35 2 -60.5 3t-48 1t-48 -1t-62.5 -1q-14 4 -10 17.5t38 17.5q45 0 77 -1t64.5 -1t70.5 -1t96 -3q23 0 22 -19q-45 -178 -92 -361t-91 -365.5t-86 -359.5t-77 -341q-4 -12 -10 -16.5 t-23 -4.5h-91h-83t-86 1t-96 1q-18 4 -8 19.5z" />
<glyph unicode="^" horiz-adv-x="569" d="M106 385q47 66 117 155.5t148 198.5q20 25 35 -4q29 -78 60.5 -156.5t59.5 -150.5q2 -10 -4 -23.5t-16 -23.5t-22.5 -16.5t-18.5 0.5q-29 70 -58.5 143.5t-56.5 134.5q-55 -72 -116.5 -147.5t-110.5 -130.5q-8 -6 -15.5 1t-1.5 19z" />
<glyph unicode="_" horiz-adv-x="729" d="M-25.5 -107.5q7.5 9.5 22.5 19.5t35 18.5t36 10.5q35 2 108.5 4t159.5 3t168 1h135q10 -4 5 -20.5t-23 -20.5q-53 0 -131 -1t-166 -3t-178.5 -8.5t-168.5 -14.5q-10 2 -2.5 11.5z" />
<glyph unicode="`" horiz-adv-x="317" d="M37 744.5q0 5.5 4 9.5q27 23 58.5 33t37.5 4q25 -29 61.5 -63.5t73.5 -61.5q4 -4 0 -11.5t-14 -7.5q-53 14 -114.5 39t-102.5 51q-4 2 -4 7.5z" />
<glyph unicode="a" d="M63 150q0 68 33 134t87.5 119.5t121 87t133.5 33.5q72 0 113 -35q20 14 52 24.5t56 10.5q8 0 9 -10q-47 -57 -81 -126t-53 -131q-18 -61 -22 -111q-1 -12 -1 -23q0 -31 9 -45q10 -12 35 -7t68 58q4 4 10 0t4 -12q-37 -53 -82 -85t-86 -32q-47 0 -61 66q-4 22 -4 48 q0 50 18 111q-55 -88 -119.5 -150.5t-136.5 -74.5q-49 0 -76 45t-27 105zM178 174q0 -45 15.5 -71.5t35.5 -26.5q25 0 61 30.5t74.5 82t76.5 115t67 128.5q-8 27 -38 43.5t-69 16.5q-47 0 -88 -24t-70.5 -66t-47 -100t-17.5 -128z" />
<glyph unicode="b" horiz-adv-x="653" d="M150 94q0 57 15 136t41.5 168t64.5 186.5t81 191.5q174 375 353 573.5t372 198.5q39 0 65.5 -17.5t41 -46t16.5 -64.5v-14q0 -29 -6 -60q-12 -8 -18 2q-6 41 -43 70.5t-109 29.5q-115 0 -213 -57.5t-185 -185.5t-166 -331.5t-155 -496.5q14 23 40 48.5t58.5 48t68.5 36.5 t71 14q43 0 69.5 -39t26.5 -92q0 -78 -39 -148.5t-98.5 -124.5t-129 -87t-130.5 -33q-51 0 -71.5 24.5t-20.5 69.5zM262 141q-1 -9 -1 -17q1 -30 13 -46q16 -18 45 -19q39 0 78 26t71 68t51.5 93t19.5 102q0 59 -18.5 84t-47.5 25q-31 0 -65.5 -19.5t-65.5 -59.5 t-52.5 -99.5t-27.5 -137.5z" />
<glyph unicode="c" horiz-adv-x="468" d="M61 121q0 72 30 144.5t77 130t102.5 93t108.5 35.5q47 0 73.5 -26.5t26.5 -59.5q0 -12 -7 -26.5t-18.5 -28.5t-24.5 -26.5t-23 -16.5q-12 -4 -13 10q6 18 6 35q0 22 -11 41q-19 33 -71 33q-66 0 -105.5 -82t-39.5 -213q0 -96 76 -96q35 0 77 25.5t76 66.5q8 4 14.5 -2 t2.5 -15q-51 -66 -114.5 -104.5t-135.5 -38.5q-45 0 -76 31.5t-31 89.5z" />
<glyph unicode="d" horiz-adv-x="649" d="M61 125q0 80 29 152.5t78 128t116.5 88t145.5 32.5q43 0 76 -14q37 111 88 230.5t112.5 234.5t130 219t140.5 182t145.5 124t143.5 46q31 0 50 -16q20 -16 28 -43q6 -18 5 -38q1 -11 -1 -23q-4 -34 -21 -66q-4 -4 -10 -3t-8 9q4 31 -16.5 46.5t-57.5 15.5 q-111 0 -213 -74t-193.5 -226.5t-168 -387t-138.5 -558.5q-6 -25 -6 -46q0 -16 4 -30q8 -32 31 -32t43 18.5t37 46.5q4 4 11 0t5 -12q-10 -20 -29.5 -43t-43 -42t-49 -31.5t-46.5 -12.5q-45 0 -63 33q-15 27 -16 59q0 7 1 14q4 35 10.5 66t14.5 66q-41 -88 -114.5 -153 t-145.5 -85q-47 0 -76 35t-29 90zM174 156q0 -33 15 -54.5t42 -21.5q23 0 53.5 23.5t63.5 63.5t61.5 92t49.5 112q8 18 14 37.5t10 37.5q-8 25 -31.5 36.5t-52.5 11.5q-43 0 -84 -26t-71.5 -71t-50 -106.5t-19.5 -134.5z" />
<glyph unicode="e" horiz-adv-x="485" d="M61 137q0 63 27 132t69 126.5t96 93t109 35.5t89 -31.5t34 -70.5q0 -117 -309 -160q-2 -20 -3 -40.5t-1 -43.5q0 -53 24.5 -81.5t77.5 -28.5q39 0 80 22.5t66 56.5q8 4 12 -3t2 -15q-41 -53 -103.5 -91t-133.5 -38q-72 0 -104 36t-32 101zM180 291q98 10 145.5 37.5 t47.5 68.5q0 31 -18.5 52.5t-47.5 21.5q-47 0 -80.5 -44t-46.5 -136z" />
<glyph unicode="f" horiz-adv-x="354" d="M-606 -381q0 55 39 100q6 6 11 2t5 -10q-10 -20 -8 -43.5t17.5 -44t46 -34t79.5 -13.5q94 0 168 27.5t142.5 119t139 261.5t159.5 456l12 37q-39 -4 -74 -9t-68 -11q-10 2 -3.5 10t19.5 16.5t31.5 15.5t34.5 9t34 3t36 3q84 254 177 438.5t191.5 304t200 176t201.5 56.5 q39 0 66.5 -19.5t42.5 -49.5q13 -29 13 -63q0 -40 -17 -79q-16 -12 -21 6q-4 41 -45 71.5t-131 30.5q-55 0 -102.5 -10t-89.5 -40.5t-82.5 -89t-86 -155t-96.5 -237.5t-112 -338q51 2 104 2h104q10 -4 8.5 -12t-18.5 -10q-47 -2 -100 -3t-107 -6q-4 -10 -7 -21t-7 -22 q-80 -256 -172 -435t-191.5 -291.5t-202 -164t-202.5 -51.5q-68 0 -103.5 33t-35.5 84z" />
<glyph unicode="g" horiz-adv-x="487" d="M-231 -291q0 72 50 128.5t148 82.5q10 0 13.5 -7t-0.5 -13q-45 -16 -72 -49t-27 -87q0 -104 72 -168.5t188 -64.5q98 0 145.5 51t47.5 129q0 47 -14.5 84t-40.5 84q-35 60 -35 116v11q4 62 41 125q2 4 3 5t3 5q-23 -23 -48.5 -37t-49.5 -14q-59 0 -91 35t-32 102 q0 51 22.5 104.5t58 96.5t80.5 69.5t93 26.5q70 0 108.5 5.5t61.5 25.5q3 2 5 2l7 -3q4 -4 4 -8v-3q-16 -23 -36.5 -41.5t-51.5 -22.5q29 -33 29 -80q0 -51 -15.5 -89t-36 -70.5t-41 -60t-32 -56.5t-8 -62.5t31.5 -76.5q45 -70 66.5 -123.5t21.5 -114.5q0 -51 -23.5 -95 t-66.5 -78t-105.5 -53.5t-138.5 -19.5q-156 0 -245.5 57.5t-89.5 151.5zM160 272q0 -118 77 -118h1q23 0 49.5 17t42.5 42q12 29 20 59.5t8 63.5q0 57 -19.5 92t-62.5 35q-53 0 -84.5 -46t-31.5 -145z" />
<glyph unicode="h" horiz-adv-x="663" d="M49 18q92 352 212 635t253 481.5t269.5 306t258.5 107.5q51 0 81 -24q29 -22 41 -56q7 -19 7 -41q1 -16 -3 -32q-8 -39 -31 -70q-6 -6 -12.5 -4t-6.5 10q2 10 2 19q0 31 -24 59q-32 37 -105 37q-111 0 -210 -59.5t-193 -197.5t-184.5 -366.5t-184.5 -568.5 q31 55 71 104.5t87 86t100 58t111 21.5q25 0 36 -12t11 -29q0 -27 -19 -59q-43 -76 -69.5 -156t-26.5 -145q0 -29 6 -47.5t23 -18.5q20 0 44.5 21.5t41.5 48.5q6 4 12 -1t4 -11q-27 -45 -75 -80t-87 -35q-35 0 -57 19.5t-22 66.5q0 37 7 79t18 83t26.5 81t34.5 72 q10 25 10 35q0 18 -21 19q-39 0 -84 -30t-88 -84t-83 -130t-68 -168q-4 -14 -33 -28.5t-63 -14.5q-18 0 -18 13q0 2 1 5z" />
<glyph unicode="i" horiz-adv-x="339" d="M81 155q11 50 30.5 102t43 102.5t48.5 86.5q-23 -12 -51 -30.5t-46 -34.5q-6 -4 -10 3t-2 13q76 61 211 127q16 0 17 -18q-27 -47 -52.5 -102.5t-45 -109.5t-32 -104.5t-12.5 -83.5q0 -41 29 -40q23 0 44 19t50 50q4 4 10 -1t2 -15q-45 -53 -89 -86t-85 -33q-71 0 -71 66 q0 39 11 89zM297 654.5q0 13.5 6 23.5q23 29 67 73t91 74q1 1 2 1q3 0 8 -4t5 -7q0 -1 -1 -2q-43 -39 -81.5 -93.5t-67.5 -107.5q-3 -3 -6.5 -3t-7.5 3q-8 6 -11.5 17.5t-3.5 25z" />
<glyph unicode="j" horiz-adv-x="313" d="M-604 -299q4 6 10 6t8 -8q-2 -10 -2 -20q0 -46 40 -77q48 -38 147 -38q82 0 155.5 34.5t143 131t136 267.5t134.5 443q-43 -23 -80 -53q-6 -4 -10 2t-2 12q12 12 35.5 28.5t53.5 34t60.5 33t57.5 27.5q20 0 16 -18q-72 -285 -164 -477.5t-196.5 -310t-215 -168 t-221.5 -50.5q-72 0 -100 56q-16 32 -16 73q0 33 10 72zM276 654.5q0 13.5 7 23.5q23 29 66.5 73t90.5 74q2 1 3 1q5 0 9 -4q5 -3 5 -6q0 -1 -2 -3q-43 -39 -82 -93.5t-68 -107.5q-3 -3 -6 -3t-7 3q-7 6 -11.5 17.5t-4.5 25z" />
<glyph unicode="k" horiz-adv-x="595" d="M49 20q43 227 109.5 429t148.5 372t175 305.5t187.5 228.5t186.5 143t174 50q51 0 81 -20t40 -52q6 -19 5 -39q0 -14 -2 -30q-7 -37 -30 -68q-14 -14 -18 7q2 10 2 20q0 30 -22 60q-30 38 -103 38q-111 0 -214 -64.5t-199.5 -200.5t-183.5 -348t-163 -507 q39 76 103.5 128t152.5 52q59 0 79 -29.5t20 -58.5q0 -66 -62 -112t-156 -54q23 -109 59 -167t87 -58q23 0 41 10.5t41 38.5q6 2 11 -3t3 -11q-63 -80 -160 -80q-78 0 -117.5 68.5t-64.5 205.5q-6 16 8 21q21 -5 42 -5l32 3q37 6 66.5 22.5t47 43t17.5 59.5q0 51 -51 51 q-72 0 -133.5 -68.5t-89.5 -201.5q-10 -35 -18.5 -73t-14.5 -67q-4 -16 -8 -23t-19 -16q-16 -8 -40.5 -14t-37.5 -6q-14 0 -12 20z" />
<glyph unicode="l" horiz-adv-x="307" d="M61 80q0 96 41 240.5t110 305t159 320.5t187 288t195.5 208t184.5 80q31 0 50 -16q20 -14 27 -40q4 -15 4 -33q0 -12 -2 -26q-5 -33 -24 -66q-4 -4 -10 0.5t-8 10.5q4 25 -17.5 41t-66.5 16q-84 0 -169 -62.5t-165 -165t-149.5 -235.5t-120.5 -274.5t-81 -280.5t-30 -254 q0 -61 35 -61q25 0 48.5 20.5t53.5 61.5q6 4 11.5 -1t3.5 -14q-41 -61 -96.5 -102t-100.5 -41q-39 0 -54.5 22.5t-15.5 57.5z" />
<glyph unicode="m" horiz-adv-x="946" d="M49 18q16 45 34.5 99.5t37 110t34 108.5t27.5 100q6 37 -12 37q-16 0 -38.5 -22.5t-45.5 -53.5q-6 -4 -12 1t-2 12q31 47 73.5 80.5t92.5 33.5q33 0 44 -20.5t5 -48.5q-8 -45 -16.5 -76t-22.5 -70q53 94 117.5 154.5t138.5 60.5q37 0 56.5 -20.5t19.5 -48.5 q0 -80 -29 -162q66 113 128 172t150 59q41 0 58.5 -21.5t17.5 -43.5q0 -35 -15.5 -77t-34.5 -88t-34.5 -92t-15.5 -89q0 -51 33 -52q33 0 88 68q6 4 11 -2q3 -3 3 -7q0 -3 -2 -7q-41 -51 -84 -82t-84 -31q-68 0 -68 78q0 49 14.5 99t32 96t32 87t14.5 70q0 43 -31 43 q-61 0 -145 -113.5t-156 -324.5q-4 -12 -34 -23.5t-56 -11.5q-25 0 -19 18q12 37 34 92.5t41.5 114t33.5 110.5t14 81q0 55 -35 55q-53 0 -134 -109.5t-156 -326.5q-4 -12 -33 -23.5t-51 -11.5q-10 0 -16 4q-4 2 -5 7q0 3 2 7z" />
<glyph unicode="n" horiz-adv-x="659" d="M41 18q35 88 70.5 193.5t62.5 212.5q6 20 2 29.5t-14 9.5q-23 0 -43.5 -19.5t-36.5 -42.5q-6 -4 -11 2.5t-3 12.5q10 14 27.5 32.5t40 36t47 28.5t48.5 11q35 0 46.5 -21.5t5.5 -51.5q-10 -45 -21.5 -85t-28.5 -90q25 45 61 89.5t80 80t95 57t109 21.5q25 0 38 -12 t13 -29q0 -29 -15 -51q-43 -78 -72.5 -161t-29.5 -148q0 -53 35 -53q23 0 45 18t51 55q4 4 10 -1q5 -4 5 -9q0 -2 -1 -4q-37 -51 -85 -90t-95 -39q-35 0 -54.5 22.5t-19.5 59.5q0 72 26 156t69 170q6 14 6 30q0 20 -19 21q-76 0 -168 -103.5t-170 -328.5q-2 -6 -13 -11.5 t-25.5 -8.5t-28.5 -5t-23 -2q-10 0 -15 4q-3 2 -3 6t2 8z" />
<glyph unicode="o" horiz-adv-x="528" d="M61 150q0 59 26 124.5t68 121t97.5 92t114.5 36.5q72 0 106.5 -43t34.5 -100q0 -80 -32 -148.5t-78 -121t-99 -82t-96 -29.5q-70 0 -106 42t-36 108zM162 207q0 -72 25.5 -108t66.5 -36q63 0 107.5 67t44.5 183q0 61 -25 102.5t-72 41.5q-66 0 -106.5 -63.5t-40.5 -186.5 z" />
<glyph unicode="p" horiz-adv-x="604" d="M-70 -467q0 104 34 242.5t87 285.5q-12 16 -14 27q-2 8 31 18q27 74 57.5 148t60.5 145q36 78 36 101q0 26 -25 12q-31 -16 -68 -57q-4 -4 -9 3t-3 11q14 16 36.5 35.5t48 36t50 28t43.5 11.5q23 0 30 -19.5t-3 -42.5q-27 -72 -70 -162q20 29 47 58.5t56.5 54.5t62 40 t65.5 15q45 0 73 -44t28 -103q0 -84 -34 -152.5t-89 -119t-127 -78t-146 -27.5q-35 0 -59 8q-35 -100 -62.5 -215t-27.5 -213q0 -39 31 -39q6 0 14 2q16 2 31.5 8.5t29.5 16.5q8 0 9.5 -8.5t-2.5 -16.5q-12 -6 -36 -13t-50.5 -14.5t-53 -11.5t-45.5 -4q-16 0 -26.5 8.5 t-10.5 24.5zM147 63q34 -22 93 -22q49 0 92 19.5t74.5 57.5t51 94t19.5 130q0 49 -18.5 80t-52.5 31q-47 0 -113 -84t-121 -236q-6 -16 -12 -33.5t-13 -36.5z" />
<glyph unicode="q" horiz-adv-x="618" d="M51 127q0 70 33 140.5t89 128t133 93t165 35.5q29 0 55.5 -8t44.5 -24q10 8 24.5 12t29 4t23.5 -2t9 -6q-68 -96 -123 -211t-98 -233.5t-70.5 -232.5t-35.5 -208q-4 -35 3 -52.5t32 -17.5q26 1 61 13q8 0 6 -10.5t-6 -14.5q-31 -10 -81 -21.5t-93 -11.5q-47 0 -47 53 q0 11 2 25q8 55 26.5 133t44 164t56.5 169t61 146q-27 -35 -58.5 -67.5t-64 -59t-64.5 -43t-58 -20.5q-45 0 -72 31.5t-27 95.5zM162 141q0 -69 47 -69q20 0 53 24.5t68 59t64.5 71.5t43.5 64q29 49 44.5 77.5t33.5 63.5q-2 20 -23.5 40t-62.5 20q-59 0 -108.5 -28t-84 -76 t-55 -111.5t-20.5 -135.5z" />
<glyph unicode="r" horiz-adv-x="434" d="M59 422q12 16 29.5 33.5t39.5 33t45.5 25.5t47.5 10q33 0 45.5 -15t12.5 -44q0 -31 -6.5 -70t-16.5 -80q41 98 90 153.5t107 55.5q31 0 47 -14t16 -37q0 -20 -15.5 -53t-25.5 -45q-4 -2 -8 1t-4 7q0 14 -11.5 24.5t-33.5 10.5q-72 0 -130.5 -97.5t-107.5 -279.5 q-2 -10 -14 -17.5t-27.5 -12.5t-32 -8t-28.5 -3q-23 0 -12 25q18 43 35.5 93t31.5 101t24.5 99.5t16.5 89.5q4 31 3 47t-17 16q-20 0 -42 -17.5t-40 -43.5q-8 -6 -16 -1q-5 3 -4 8q0 2 1 5z" />
<glyph unicode="s" horiz-adv-x="421" d="M-10 72q0 8 6 22.5t16.5 30.5t22.5 32.5t26 26.5q6 4 11.5 -2t1.5 -12q-12 -12 -18.5 -25.5t-6.5 -35.5q0 -37 24.5 -60.5t63.5 -23.5q53 0 83 29.5t30 72.5q0 39 -17.5 72.5t-38 65.5t-38 64.5t-17.5 69.5q0 53 45 89t133 36q45 0 73 -12t28 -31q0 -23 -11.5 -51.5 t-21.5 -46.5q-4 -4 -10 -1t-6 11q6 14 6 41q0 29 -15.5 47.5t-42.5 18.5q-35 0 -56 -21.5t-21 -60.5q0 -33 17 -62.5t38.5 -59.5t40 -63.5t18.5 -76.5q0 -74 -59 -115t-156 -41q-70 0 -109.5 22.5t-39.5 49.5z" />
<glyph unicode="t" horiz-adv-x="382" d="M83 467q5 8 18.5 17.5t32 16.5t34.5 7h16.5t16.5 2q27 59 55.5 114.5t56.5 100.5q12 14 34 25.5t42.5 17.5t33.5 7h3q10 0 8 -7q-35 -53 -68.5 -118.5t-64.5 -137.5q39 2 79 2h75q8 -3 8 -9q0 -9 -19 -13q-31 0 -70.5 -2.5t-84.5 -6.5q-41 -100 -67.5 -195t-26.5 -155 q0 -70 53 -70t119 93q6 4 11 0t3 -15q-35 -57 -88 -99t-105 -42q-53 0 -78.5 25.5t-25.5 70.5q0 59 28.5 164t73.5 213q-53 -6 -98 -16q-7 1 -7 5q0 2 2 5z" />
<glyph unicode="u" horiz-adv-x="679" d="M66 94q0 33 7 76t22.5 89t36 93t48.5 90q-23 -14 -43 -29.5t-37 -31.5q-6 -4 -11 3t-1 13q35 37 99.5 76t123.5 62q10 0 15.5 -5.5t1.5 -13.5q-66 -86 -106 -186.5t-40 -194.5q0 -59 37 -59q27 0 66 35.5t82 94t87 132.5t81 149q6 12 35.5 24.5t60.5 12.5t18 -16 q-29 -53 -50 -99.5t-35.5 -91.5t-21.5 -91t-7 -101q0 -66 34 -66q35 0 78 62q6 4 12.5 0t4.5 -12q-35 -53 -77 -81t-77 -28q-86 0 -86 100q0 104 37 207q-78 -141 -164 -224t-145 -83q-86 0 -86 94z" />
<glyph unicode="v" horiz-adv-x="624" d="M66 436q37 37 83 62.5t93 25.5q31 0 41 -18.5t10 -46.5q0 -39 -8.5 -92.5t-21.5 -111.5t-28.5 -114.5t-29.5 -101.5q57 14 113.5 53t101.5 90t72.5 111.5t27.5 122.5q0 53 -33 53q-18 0 -29.5 -7t-23.5 -26q-6 -4 -10 2t-2 13q14 23 50 48t75 25q33 0 50 -23.5t17 -58.5 q0 -59 -30.5 -119.5t-81.5 -115.5t-118.5 -101t-139.5 -77q-29 -10 -67 -19.5t-75 -9.5q-25 0 -14 27q35 86 59.5 187t34.5 181q1 13 1 23q0 49 -23 49q-31 0 -76 -47q-10 -4 -16 2q-4 3 -4 7t2 7z" />
<glyph unicode="w" horiz-adv-x="858" d="M45 440q10 25 48 54.5t81 29.5q49 0 70.5 -51t21.5 -168q0 -53 -4 -97t-10 -77q41 72 78 123t69 94q12 16 21.5 38t19.5 60q2 12 19.5 23.5t37 18t34 7.5t14.5 -10q-33 -68 -49.5 -156.5t-16.5 -164.5q0 -51 24.5 -74.5t59.5 -23.5q37 0 71 22.5t60.5 59t43 87 t16.5 105.5q0 80 -31 102q-14 10 -28 10q-18 0 -38 -16q-8 -2 -12 3t-2 12q6 10 20.5 23t30 24.5t31 18.5t23.5 7q35 0 59 -37.5t24 -97.5q0 -80 -35.5 -150.5t-89 -124t-115 -84t-112.5 -30.5q-49 0 -72.5 30.5t-23.5 84.5q0 49 8 112.5t19 104.5q-41 -53 -86 -127 t-91 -152q-12 -23 -38.5 -38t-51.5 -15q-16 0 -12 23q14 49 23.5 121.5t9.5 142t-9.5 121t-33.5 61.5q-14 4 -32.5 -8t-29.5 -35q-4 -4 -10 1q-5 4 -5 9q0 2 1 4z" />
<glyph unicode="x" horiz-adv-x="579" d="M-14 43q0 57 34 121q4 4 10.5 0t4.5 -10q-12 -31 -3 -51.5t34 -20.5q74 0 157 143q-14 51 -18 95.5t-6 77t-5.5 50t-13.5 17.5q-16 0 -32.5 -23.5t-26.5 -48.5q-4 -6 -11.5 -4t-5.5 8q4 18 16.5 40t30 41.5t39 32.5t46.5 13q23 0 34 -18.5t17 -47t9 -67.5t9 -78 q49 90 111.5 150.5t120.5 60.5q29 0 47 -17.5t18 -45.5q0 -18 -13.5 -49t-27.5 -54q-6 -4 -11 0t-5 11q20 33 11 57.5t-40 24.5q-53 0 -101 -39t-102 -138q25 -98 63 -157.5t77 -59.5q27 0 50.5 22.5t43.5 53.5q6 4 12 0t4 -12q-29 -45 -76 -83t-98 -38t-88 46t-68 147 q-53 -94 -107 -143.5t-108 -49.5q-33 0 -32 43z" />
<glyph unicode="y" horiz-adv-x="641" d="M-362 -309q0 45 30.5 88t83.5 61q8 2 12.5 -4t-0.5 -12q-33 -35 -32 -88q0 -86 53 -139.5t154 -53.5q72 0 131 22.5t111 80t101.5 154t100.5 241.5q25 68 44 121t40 117q-39 -61 -80 -112.5t-83 -88.5t-81 -57.5t-71 -20.5q-41 0 -59.5 24.5t-18.5 67.5q0 72 29.5 165 t80.5 179q-23 -14 -41 -26.5t-34 -28.5q-6 -4 -11.5 3t-1.5 13q14 14 39 31.5t53.5 34t58 33t58.5 28.5q20 0 17 -18q-33 -41 -58.5 -91t-44 -100.5t-28 -99.5t-9.5 -88q0 -57 37 -57q33 0 78 41t89 101t82 129t58 124q8 20 45 39.5t66 19.5q15 0 15 -9q0 -2 -1 -5 q-45 -127 -89 -247t-91 -247q-102 -264 -255 -389t-325 -125q-119 0 -186 55.5t-67 133.5z" />
<glyph unicode="z" horiz-adv-x="493" d="M-20 31q45 45 96 95t102 99t100.5 96.5t90.5 86.5q-47 10 -105.5 17t-97.5 7q-59 0 -82 -65q-4 -6 -12.5 -2t-8.5 10q27 74 62 111.5t96 37.5q47 0 101.5 -10t83.5 -16q23 -6 40 0t33 20q6 6 19 6q21 0 21 -12q0 -2 -1 -6q-113 -104 -208 -193.5t-181 -175.5 q47 -16 97 -27.5t100 -11.5q51 0 80.5 24.5t46.5 67.5q6 6 13 2t5 -12q-68 -180 -199 -180q-43 0 -87 10t-89 27q-27 8 -47 1t-53 -38q-10 0 -16 10q-3 5 -2 11q0 5 2 10z" />
<glyph unicode="{" horiz-adv-x="626" d="M176 33q12 57 28.5 99t33 81l33 78t28.5 88q8 31 3 54.5t-19.5 41t-35 28.5t-42.5 15q-10 10 -3 24.5t42 22.5q63 16 93 55t50 119q20 82 21.5 145.5t15.5 131.5q29 135 118 196.5t265 61.5q16 -4 14 -15.5t-22 -13.5q-117 0 -176.5 -48t-83.5 -161q-10 -43 -14.5 -76.5 t-7.5 -66.5t-7 -66.5t-14 -76.5q-16 -61 -58.5 -112.5t-105.5 -80.5q51 -12 71.5 -59t8.5 -105q-12 -53 -28.5 -95t-33 -83t-32 -82t-25.5 -90q-20 -104 17.5 -156.5t142.5 -52.5q10 -4 7 -15.5t-22 -13.5q-162 0 -222 63.5t-40 164.5z" />
<glyph unicode="|" horiz-adv-x="348" d="M164 -498v1819h61v-1819h-61z" />
<glyph unicode="}" horiz-adv-x="612" d="M-2 -180.5q2 12.5 22 14.5q117 0 176.5 48t84.5 161q10 43 14 77t7 66.5t7 66.5t15 77q16 61 59 111.5t104 78.5q-51 14 -71.5 61.5t-5.5 104.5q12 51 27.5 94t31.5 83t31.5 81t25.5 90q20 104 -16.5 156.5t-140.5 52.5q-10 4 -8.5 15.5t20.5 15.5q82 0 137 -17.5t86 -47 t40 -71.5t-1 -91q-12 -57 -28.5 -100.5t-33 -81.5t-33 -76.5t-28.5 -88.5q-8 -31 -3 -54t19.5 -40.5t35 -29t42.5 -15.5q12 -10 4 -24.5t-43 -22.5q-63 -16 -92.5 -55t-50.5 -119q-10 -41 -14 -77t-7 -69.5t-6.5 -65.5t-9.5 -65q-29 -137 -117 -197.5t-266 -60.5 q-16 2 -14 14.5z" />
<glyph unicode="~" horiz-adv-x="784" d="M104 287q47 59 100.5 97t112.5 38q37 0 66 -12.5t57.5 -25.5t60 -25.5t74.5 -12.5q41 0 73 19.5t71 60.5q10 4 17 -1t3 -17q-51 -59 -106 -98.5t-115 -39.5q-45 0 -77.5 12.5t-60.5 26t-54.5 25.5t-59.5 12q-47 0 -77.5 -19.5t-65.5 -60.5q-10 -4 -16.5 3.5t-2.5 17.5z " />
<glyph unicode="&#xa1;" horiz-adv-x="401" d="M-170 -551q41 84 96.5 196.5t111.5 226.5t105.5 215t79.5 167q16 18 28.5 13t6.5 -27q-25 -55 -59.5 -147.5t-71.5 -196t-69.5 -207t-53.5 -178.5q-14 -23 -49 -46.5t-67.5 -38t-53 -11.5t-4.5 34zM258 410q0 16 8 35.5t22.5 37t31 28.5t32.5 11q18 0 28.5 -10t10.5 -39 q0 -12 -8 -28.5t-22.5 -32t-33 -25.5t-36.5 -10q-12 0 -22.5 9t-10.5 24z" />
<glyph unicode="&#xa2;" horiz-adv-x="417" d="M23 238q0 76 30.5 147.5t79.5 127.5t107.5 91t113.5 37q14 33 28.5 66.5t31.5 68.5q10 14 23.5 11t8.5 -19q-16 -35 -30.5 -66.5t-28.5 -64.5q31 -10 51.5 -31.5t20.5 -44.5q0 -10 -6.5 -24.5t-15.5 -28.5t-20 -25.5t-20 -15.5q-4 -2 -8 1t-4 7q10 23 3 47.5t-36 38.5 q-43 -98 -84 -192.5t-82 -190.5h15q41 0 71.5 16.5t61.5 53.5q6 4 12 -2t2 -15q-35 -45 -85 -77.5t-101 -36.5q-25 -59 -49.5 -119.5t-46.5 -126.5q-12 -18 -25.5 -19.5t-11.5 17.5q29 68 53 129t49 119q-51 4 -79.5 33.5t-28.5 87.5zM131 287q0 -70 31 -97 q39 92 76.5 182.5t85.5 196.5q-6 2 -23 2q-80 0 -125 -74.5t-45 -209.5z" />
<glyph unicode="&#xa3;" horiz-adv-x="722" d="M12 31q0 18 13.5 37.5t37 36t56.5 26.5t71 10q29 0 58 -6q12 29 24.5 70t22.5 94q-29 -4 -57.5 -7t-59.5 -9q-10 2 -4 10t19.5 16t32 15.5t34.5 9.5q10 0 21.5 1t21.5 1q16 68 48 124t74 96t92.5 62.5t103.5 22.5q31 0 49 -15.5t26.5 -39t6 -53t-14.5 -60.5q-6 -8 -13 -5 t-9 9q-4 37 -31 61.5t-82 24.5q-37 0 -61.5 -8t-42 -31.5t-30.5 -67.5t-28 -118h88t103 -2q10 -4 8 -11.5t-19 -11.5q-98 0 -186 -6q-12 -61 -32.5 -107t-47.5 -81q51 -20 108.5 -41t135.5 -21q39 0 58.5 9.5t41.5 29.5q8 4 13.5 0t1.5 -14q-45 -45 -86 -69.5t-101 -24.5 q-74 0 -129 21.5t-104 43.5q-41 -29 -86 -42t-86 -13q-59 0 -60 33zM74 66q0 -14 13 -21.5t36 -7.5q49 0 82 33q-51 20 -99 20q-33 0 -32 -24z" />
<glyph unicode="&#xa4;" horiz-adv-x="716" d="M35 29q29 29 64.5 60.5t76.5 70.5q-33 47 -33 123q0 57 25 109t70 91q-14 29 -28.5 54.5t-31.5 52.5q-6 18 8.5 37.5t28.5 11.5q16 -29 33.5 -60.5t34.5 -66.5q29 16 62.5 26.5t72.5 10.5q70 0 119 -43q41 35 78.5 68.5t70.5 62.5q8 4 21.5 -6t5.5 -21q-31 -29 -68 -62.5 t-80 -72.5q31 -43 31 -104q0 -66 -27.5 -121t-74.5 -92q16 -29 30.5 -55.5t28.5 -51.5q6 -20 -7.5 -39.5t-29.5 -9.5q-16 29 -33.5 60.5t-33.5 66.5q-59 -31 -130 -31q-74 0 -112 33q-41 -35 -78 -67.5t-68 -61.5q-14 -6 -24 5t-2 22zM195 297q0 -66 34.5 -110t118.5 -44 q39 0 74 16.5t61.5 44t43 64.5t16.5 78q0 72 -39 114t-109 42q-45 0 -82 -17.5t-63.5 -45t-40.5 -65.5t-14 -77z" />
<glyph unicode="&#xa5;" horiz-adv-x="665" d="M52 209q5 8 18.5 16t32 15.5t34.5 7.5q23 4 42.5 4t41.5 2q14 35 17 55q-35 -4 -71 -8t-75 -12q-10 4 -4 12t19.5 16.5t32 14.5t34.5 8t33.5 3t34.5 1q8 104 -17.5 166.5t-79.5 62.5q-27 0 -45 -18q-8 -4 -13 0t-1 12q23 27 63.5 50.5t67.5 23.5q23 0 46.5 -17.5 t39.5 -53t24.5 -92t0.5 -132.5q86 160 162.5 227.5t150.5 67.5q33 0 48.5 -26.5t19.5 -61.5q-6 -18 -19 -10q-23 41 -88 41q-35 0 -67.5 -19.5t-64.5 -52.5t-60.5 -76t-53.5 -90q31 0 65 -1t73 -1q10 -4 8 -11t-19 -11h-71.5t-69.5 -5q-12 -27 -27 -63h144q10 -4 8 -12.5 t-21 -12.5h-71.5t-69.5 -2q-31 -86 -31 -151q0 -25 6.5 -35t24.5 -10q31 0 47 8q6 0 8 -7t-2 -12q-6 -4 -23.5 -7t-39 -6t-43 -5t-35.5 -2q-23 0 -33 11.5t-10 43.5q0 45 11.5 87t23.5 77q-37 -4 -75 -9t-77 -11q-10 2 -5 10z" />
<glyph unicode="&#xa6;" horiz-adv-x="350" d="M166 180h61v-678h-61v678zM166 641v680h61v-680h-61z" />
<glyph unicode="&#xa7;" horiz-adv-x="919" d="M-102 -283q0 53 30.5 105.5t100.5 93.5q8 4 13 -3t1 -17q-41 -43 -41 -121q0 -94 59.5 -153.5t163.5 -59.5q111 0 165 60.5t54 166.5q0 111 -21.5 206t-46 187t-46 187.5t-21.5 210.5q0 102 33 190t98.5 152.5t167 100.5t238.5 36q123 0 180 -47t57 -119q0 -45 -28.5 -86 t-71.5 -70q-6 -4 -12 1t-4 16q10 16 16 35.5t6 50.5q0 63 -41 111t-127 48q-104 0 -161.5 -55t-57.5 -162q0 -109 20.5 -203t46 -187t46 -193.5t20.5 -216.5q0 -117 -39 -206t-110.5 -149.5t-173 -92.5t-226.5 -32t-206.5 57.5t-81.5 157.5zM385 -432q49 8 92 37.5t77 76 t53.5 109t19.5 133.5q0 117 -18.5 219.5t-42 197.5t-42 187.5t-18.5 188.5q0 86 42 158.5t114 119.5q-49 -6 -93.5 -33.5t-78 -71.5t-53 -103.5t-19.5 -133.5q0 -121 19.5 -221t43 -194.5t43 -185.5t19.5 -193q0 -104 -46 -177t-112 -114z" />
<glyph unicode="&#xa8;" horiz-adv-x="356" d="M29 692q0 12 7 27.5t18.5 30t26.5 24.5t34 10q10 0 19 -12t9 -24q0 -16 -7 -34t-18.5 -32t-26 -24.5t-28.5 -10.5t-24 13.5t-10 31.5zM215 692q0 12 7 27.5t19.5 30t28 24.5t33.5 10q10 0 19.5 -12t9.5 -24q0 -16 -7.5 -34t-19.5 -32t-26.5 -24.5t-28.5 -10.5t-24.5 13.5 t-10.5 31.5z" />
<glyph unicode="&#xa9;" horiz-adv-x="698" d="M123 453q0 55 24.5 108t66.5 95t99.5 67t124.5 25q43 0 81 -14.5t66.5 -40t45 -61.5t16.5 -79q0 -63 -24.5 -118.5t-67.5 -97.5t-101 -65.5t-126 -23.5q-98 0 -151.5 56t-53.5 149zM168 467q0 -84 47 -134t152 -50q47 0 89 19.5t73.5 52t50 77.5t18.5 96q0 88 -52 137.5 t-138 49.5q-55 0 -100.5 -20.5t-76 -54.5t-47 -79t-16.5 -94zM240 463q0 33 13 64.5t38.5 57t60.5 41t78 15.5q41 0 62.5 -11.5t21.5 -23.5q0 -16 -9 -43.5t-20 -40.5q-14 -4 -14 10q10 18 2 37q-6 14 -26.5 25.5t-49.5 11.5q-55 0 -80.5 -33.5t-25.5 -87.5q0 -106 90 -106 q35 0 54.5 12t29.5 31q4 4 9 0t5 -10q-12 -25 -42.5 -44.5t-76.5 -19.5q-57 0 -88.5 31t-31.5 84z" />
<glyph unicode="&#xaa;" horiz-adv-x="503" d="M113 432q0 39 17 77t46 66.5t67 47t79 18.5q39 0 63 -18q6 6 26.5 11t30.5 5t11 -6q-27 -31 -46.5 -68t-30.5 -68.5t-13.5 -57t4.5 -36.5q14 -18 45 23q4 4 8 0t2 -10q-25 -35 -48.5 -50.5t-39.5 -15.5q-25 0 -31 33t10 92q-37 -57 -68.5 -87t-68.5 -38q-29 0 -46 22.5 t-17 59.5zM178 449q0 -25 9.5 -37.5t19.5 -12.5q12 0 30.5 15.5t38 40t39 57.5t33.5 70q-10 29 -51 28q-53 0 -86 -40t-33 -121z" />
<glyph unicode="&#xab;" horiz-adv-x="624" d="M39 230.5q2 9.5 10 17.5q78 70 168 139.5t172 126.5q14 4 19.5 -10.5t-13.5 -26.5q-29 -18 -66.5 -47t-75.5 -58.5t-74 -59t-56 -50.5q43 -35 90 -84t76 -90q4 -10 0 -25.5t-12.5 -30t-19.5 -22.5t-24 -4q-39 59 -92 115.5t-96 91.5q-8 8 -6 17.5zM260 230.5 q2 9.5 10 17.5q78 70 168 139.5t172 126.5q14 4 19.5 -10.5t-13.5 -26.5q-29 -18 -66.5 -47t-75.5 -58.5t-73.5 -59t-56.5 -50.5q43 -35 90 -84t76 -90q4 -10 0 -25.5t-12.5 -30t-19.5 -22.5t-23 -4q-39 59 -92.5 115.5t-96.5 91.5q-8 8 -6 17.5z" />
<glyph unicode="&#xac;" horiz-adv-x="542" d="M33 458.5q4 10.5 24 14.5q33 2 90.5 3t119 2t118.5 2t92 1q16 -4 10 -28q-6 -12 -15 -35t-19.5 -49.5t-21.5 -56t-19 -54.5q-6 -10 -21.5 -15t-31 -5t-28 5t-12.5 15q6 18 16.5 46t21 56.5t19.5 53t13 37.5h-85t-97 -1t-94 -2.5t-72 -3.5q-12 4 -8 14.5z" />
<glyph unicode="&#xad;" horiz-adv-x="501" d="M79 304q13 28 40 36q27 2 69.5 6t90 7t92.5 5t80 2q8 -4 8 -15t-8.5 -24.5t-21.5 -25.5t-28 -16q-37 0 -81 -1.5t-88 -2.5t-85 -2t-67 -1q-14 4 -1 32z" />
<glyph unicode="&#xae;" horiz-adv-x="698" d="M123 453q0 55 23.5 108t66.5 95t100 67t125 25q43 0 81 -14.5t66.5 -40t45 -61.5t16.5 -79q0 -63 -24.5 -118.5t-67.5 -97.5t-101.5 -65.5t-125.5 -23.5q-100 0 -152.5 56t-52.5 149zM168 467q0 -84 46.5 -134t150.5 -50q47 0 89 19.5t73.5 52t50 77.5t18.5 96 q0 88 -51 137.5t-137 49.5q-55 0 -100.5 -20.5t-76 -54.5t-47 -79t-16.5 -94zM233 354q16 63 40 127t53 113q6 10 22 16q-20 -4 -39.5 -8t-38.5 -14q-8 0 -2 10t17 16q57 27 127 27q45 0 68.5 -20.5t23.5 -51.5q0 -72 -105 -90q12 -53 24.5 -75.5t35.5 -22.5q16 0 26 10 q4 2 7.5 -2t1.5 -12q-10 -10 -27.5 -19.5t-36.5 -9.5q-35 0 -51.5 32t-26.5 97q0 10 2 12q6 4 16.5 8.5t16.5 6.5q4 4 8 2t11 -2q18 -4 32 8q16 10 17 37q0 61 -78 61q-10 -18 -22.5 -48t-25 -62.5t-22.5 -67.5t-16 -65q-6 -8 -20.5 -13.5t-30.5 -5.5q-6 0 -7 6z" />
<glyph unicode="&#xb0;" horiz-adv-x="229" d="M164 678q0 47 36 85t91 38q35 0 58.5 -22.5t23.5 -59.5q0 -53 -36 -90t-91 -37q-41 0 -61.5 23.5t-20.5 62.5zM201 686q0 -27 13 -43t46 -16q29 0 51.5 23.5t22.5 54.5q0 59 -55 59q-35 0 -56.5 -23.5t-21.5 -54.5z" />
<glyph unicode="&#xb1;" horiz-adv-x="616" d="M22 25.5q11 21.5 62 27.5q31 0 76 1t95 1t103.5 -1t102.5 -3q8 0 8 -7t-6 -16.5t-16.5 -16.5t-22.5 -7q-94 0 -198.5 -1t-202.5 -3q-12 4 -1 25.5zM114 293.5q11 21.5 62 28.5q25 2 57.5 2h69.5q16 43 31.5 86t32.5 88q2 8 13 15t23.5 10t22.5 1t10 -10 q-20 -53 -36.5 -100t-32.5 -90q47 -2 95 -2.5t93 -2.5q8 0 7 -7t-7 -15t-16.5 -15.5t-22.5 -9.5h-168q-27 -74 -51 -147q-4 -12 -15.5 -20.5t-22.5 -11.5t-19.5 -1t-8.5 10q14 47 26.5 88t27.5 82q-43 -2 -86 -2t-84 -2q-12 4 -1 25.5z" />
<glyph unicode="&#xb2;" horiz-adv-x="456" d="M94 307q-4 8 4 17q51 33 94.5 59.5t76 53t51 53t18.5 59.5q0 25 -12.5 40t-46.5 15q-33 0 -54.5 -24.5t-27.5 -53.5q-4 -6 -10.5 -3t-6.5 12q8 39 44 72.5t89 33.5q43 0 68 -19.5t25 -54.5q0 -31 -13.5 -55.5t-39 -47t-62.5 -46t-86 -51.5q49 -16 110 -17q41 0 56 23 q4 4 9 1t1 -12q-16 -29 -39 -45t-57 -16q-31 0 -53.5 6t-41 11.5t-33 6.5t-28.5 -8l-25 -16q-6 -2 -10 6z" />
<glyph unicode="&#xb3;" horiz-adv-x="409" d="M96 377q4 10 13 2q6 -18 30.5 -34.5t67.5 -16.5q39 0 59.5 22.5t20.5 61.5q0 29 -15.5 45t-42.5 16t-45 -12q-6 -2 -8 6t2 12q66 23 88.5 46.5t22.5 47.5q0 18 -11.5 30.5t-27.5 12.5q-25 0 -43.5 -14t-26.5 -33q-4 -4 -10 0t-4 11q12 23 38.5 42t67.5 19t61.5 -15.5 t20.5 -37.5q0 -29 -28.5 -51.5t-69.5 -38.5q39 10 69.5 -6.5t30.5 -53.5q0 -29 -16 -53.5t-43 -42.5t-60.5 -28.5t-70.5 -10.5q-41 0 -59.5 19.5t-10.5 54.5z" />
<glyph unicode="&#xb4;" horiz-adv-x="321" d="M41 651q0 8 6 15q29 18 66.5 50.5t66.5 67.5q14 8 44 -3t59 -23q6 -2 7 -8.5t-3 -10.5q-20 -14 -50 -27.5t-63 -25.5t-65.5 -23.5t-59.5 -19.5q-8 0 -8 8z" />
<glyph unicode="&#xb6;" horiz-adv-x="870" d="M-190 -344q0 66 38.5 104.5t92.5 55.5q10 0 13 -10.5t-3 -16.5q-16 -12 -24.5 -31.5t-8.5 -52.5q0 -72 38 -117t124 -45q61 0 113.5 63.5t111.5 219.5q16 45 31.5 91t32.5 93q-78 20 -128.5 76.5t-50.5 138.5q0 94 54.5 173t153 135.5t235.5 88t303 31.5q10 -4 6 -19.5 t-20 -19.5q-18 0 -37 -1t-35 -1q-25 -92 -52.5 -191t-57 -196.5t-60.5 -185.5t-62 -158q-86 -197 -235.5 -288t-353.5 -91q-106 0 -162.5 41t-56.5 113zM193 -444q98 23 175 93.5t138 211.5q29 66 59.5 152.5t60 185t59.5 202t54 201.5q-35 -4 -63.5 -10t-54.5 -12 q-25 -92 -52.5 -196.5t-56.5 -206t-59.5 -194t-59.5 -161.5q-43 -104 -89 -168t-111 -98z" />
<glyph unicode="&#xb7;" horiz-adv-x="245" d="M61 289q0 12 8.5 28.5t22.5 32t32.5 25.5t37.5 10q12 0 22.5 -9t10.5 -24q0 -16 -8.5 -36.5t-22.5 -37t-31 -27.5t-31 -11q-18 0 -29.5 10t-11.5 39z" />
<glyph unicode="&#xb8;" horiz-adv-x="235" d="M42 -245q-1 7 3 14q53 25 64.5 53t-3.5 69q-10 35 3.5 66t66.5 63q10 2 14.5 -3t2.5 -9q-23 -16 -32 -39.5t-1 -44.5q18 -45 -10.5 -96t-100.5 -80q-6 0 -7 7z" />
<glyph unicode="&#xb9;" horiz-adv-x="372" d="M102 313q27 72 61 144.5t62 134.5q-27 -8 -48 -11t-42 -8q-4 2 -4 9.5t6 9.5q37 6 82 22.5t86 38.5q6 2 11.5 -1t2.5 -9q-47 -72 -84.5 -162t-60.5 -162q-6 -8 -21.5 -14t-31.5 -6q-18 0 -19 14z" />
<glyph unicode="&#xba;" horiz-adv-x="399" d="M102 440q0 37 13.5 74t37 64.5t54 45t65.5 17.5t56.5 -28.5t21.5 -63.5q0 -37 -15.5 -73t-40 -63.5t-54 -45t-60.5 -17.5q-35 0 -56.5 23.5t-21.5 66.5zM166 479q0 -41 15 -62.5t38 -21.5q29 0 49.5 30t20.5 83q0 41 -15.5 64.5t-40.5 23.5q-68 0 -67 -117z" />
<glyph unicode="&#xbb;" horiz-adv-x="598" d="M-23.5 15.5q-5.5 13.5 11.5 27.5q25 23 57.5 51.5t68.5 58t70.5 57.5t63.5 48q-23 16 -46.5 42t-47 53.5t-43 56t-33.5 53.5q-4 10 6 22.5t23.5 21.5t29 12t25.5 -5q31 -59 77 -115.5t91 -93.5q8 -6 6 -16t-10 -17q-84 -59 -174 -131t-158 -135q-12 -4 -17.5 9.5z M198 15.5q-5 13.5 11 27.5q25 23 57.5 51.5t68.5 58t70.5 57.5t63.5 48q-23 16 -46.5 42t-47 53.5t-43 56t-33.5 53.5q-4 10 6 22.5t23.5 21.5t29 12t25.5 -5q31 -59 77 -115.5t91 -93.5q8 -6 6 -16t-10 -17q-84 -59 -174 -131t-158 -135q-12 -4 -17 9.5z" />
<glyph unicode="&#xbc;" horiz-adv-x="899" d="M98 -61q88 106 163 195t148.5 176t155 182.5t185.5 212.5q14 10 33.5 2.5t11.5 -21.5q-90 -100 -173 -194.5t-163 -188.5t-158 -187t-156 -192q-18 -16 -36.5 -9t-10.5 24zM111 215q33 90 80 189.5t81 177.5q-33 -8 -60.5 -14.5t-53.5 -10.5q-4 2 -6 9t8 12 q47 8 106.5 26.5t106.5 44.5q8 4 14 0t4 -12q-31 -47 -58.5 -100.5t-51 -107.5t-43 -108.5t-33.5 -99.5q-6 -8 -29.5 -15t-46.5 -7t-18 16zM459 137q37 37 85 79t101 83t108.5 79t106.5 66q8 2 12 -3t0 -9q-16 -23 -30.5 -48.5t-30.5 -55.5q-18 -37 -38.5 -82t-41.5 -92 q37 0 56.5 10t29.5 26q4 4 9 0t3 -10q-16 -29 -44.5 -48t-69.5 -23q-10 -23 -17.5 -44.5t-15.5 -44.5q-4 -8 -30.5 -14t-41.5 -6q-10 0 -10 10q10 27 18.5 52.5t18.5 50.5q-57 8 -100 17t-58 -1l-6 -6q-6 -4 -12 1t-2 13zM532 176q23 -6 55.5 -11t67.5 -9q43 106 95 192 q-115 -78 -218 -172z" />
<glyph unicode="&#xbd;" horiz-adv-x="919" d="M98 -61q88 106 162 195t148.5 176t155.5 182.5t186 212.5q14 10 33.5 2.5t11.5 -21.5q-90 -100 -173 -194.5t-163 -188.5t-158 -187t-156 -192q-18 -16 -36.5 -9t-10.5 24zM111 215q33 90 79 189.5t82 177.5q-33 -8 -61.5 -14.5t-52.5 -10.5q-6 2 -7 9t9 12 q47 8 106.5 26.5t106.5 44.5q8 4 14 0t4 -12q-31 -47 -58.5 -100.5t-51 -107.5t-43 -108.5t-33.5 -99.5q-6 -8 -29.5 -15t-46.5 -7t-18 16zM441.5 9q-3.5 11 4.5 20q66 39 127.5 73.5t109.5 68.5t76.5 68.5t28.5 75.5q0 33 -17 52.5t-58 19.5q-45 0 -71 -27.5t-36 -74.5 q-4 -6 -14 -2t-10 14q10 51 57 93t125 42q53 0 84 -29.5t31 -68.5q0 -35 -19.5 -64.5t-55.5 -57.5t-86 -55.5t-114 -60.5q29 -10 61.5 -17t79.5 -7q29 0 44.5 10t27.5 29q6 6 12.5 -0.5t4.5 -16.5q-29 -41 -64 -67.5t-86 -26.5q-39 0 -67.5 7t-52 14.5t-41 9.5t-36.5 -8 q-12 -8 -19 -12.5t-13 -10.5q-10 -2 -13.5 9z" />
<glyph unicode="&#xbe;" horiz-adv-x="1015" d="M104 293q2 4 6.5 6t8.5 -2q10 -27 39.5 -47.5t79.5 -20.5q53 0 81.5 33t28.5 80q0 35 -16.5 56.5t-52.5 21.5q-20 0 -35 -5t-27 -14q-8 -2 -10 8.5t2 14.5q78 29 112.5 56.5t34.5 66.5q0 51 -53 51q-35 0 -56.5 -16.5t-37.5 -44.5q-6 -6 -13.5 0t-2.5 16q16 29 51 53.5 t86 24.5q53 0 77.5 -20.5t24.5 -49.5q0 -35 -37 -63.5t-88 -51.5q57 14 90 -9t33 -66q0 -35 -19.5 -66t-52 -54.5t-75.5 -37.5t-90 -14q-43 0 -68 23.5t-21 70.5zM215 -61q88 106 163 195t148.5 176t154.5 182.5t185 212.5q14 10 34 2.5t11 -21.5q-90 -100 -173 -194.5 t-162.5 -188.5t-157.5 -187t-156 -192q-18 -16 -36.5 -9t-10.5 24zM575 137q37 37 85.5 79t101.5 83t108.5 79t106.5 66q8 2 12 -3t0 -9q-16 -23 -30.5 -48.5t-30.5 -55.5q-18 -37 -39 -82t-41 -92q37 0 56.5 10t29.5 26q4 4 9 0t3 -10q-16 -29 -45 -48t-70 -23 q-10 -23 -17 -44.5t-15 -44.5q-4 -8 -31 -14t-41 -6q-10 0 -10 10q10 27 18 52.5t19 50.5q-57 8 -100.5 17t-57.5 -1l-6 -6q-6 -4 -12.5 1t-2.5 13zM649 176q23 -6 55.5 -11t67.5 -9q43 106 94 192q-115 -78 -217 -172z" />
<glyph unicode="&#xbf;" horiz-adv-x="595" d="M-119 -356q0 80 30 135t76 95t102 68.5t109.5 55.5t97.5 58.5t66 76.5q16 35 4 60.5t-47 29.5q-14 2 -4.5 12.5t28.5 22.5t42 20.5t37 6.5q18 -4 30.5 -20.5t14.5 -40t-8 -51.5t-37 -54q-55 -59 -129 -100.5t-139.5 -84.5t-111.5 -98t-46 -141q0 -72 40 -118t114 -46 q76 0 122.5 42t61.5 101q10 10 22.5 0t10.5 -20q-14 -39 -42 -74t-64 -61.5t-80 -43t-89 -16.5q-47 0 -86 15.5t-66.5 41t-43 59.5t-15.5 69zM455 410q0 16 8 35.5t22.5 37t30 28.5t31.5 11q18 0 28.5 -10t10.5 -39q0 -12 -8.5 -28.5t-21.5 -32t-31.5 -25.5t-37.5 -10 q-12 0 -22 9t-10 24z" />
<glyph unicode="&#xc0;" horiz-adv-x="2078" d="M103.5 174q-21.5 76 1 166t90.5 174q6 4 14 -1t6 -19q-47 -51 -52 -118t28.5 -125t105.5 -98t180 -40q174 0 326.5 71.5t288.5 194.5q47 41 94 88l98 98q-72 -4 -135.5 -9t-118.5 -13q-10 2 -4 10t18.5 17.5t30 16.5t33.5 9q27 2 83 3t128 3q115 119 255 257t333 290 q-137 45 -283.5 74.5t-282.5 29.5q-154 0 -252 -85t-120 -267q-4 -10 -11.5 -8t-9.5 12q25 201 150 307.5t323 106.5q84 0 176.5 -11.5t181.5 -28.5t170 -39t142 -42q6 -4 6 -11t-12 -20q-68 -74 -121 -169t-90 -207.5t-57.5 -237.5t-20.5 -256q0 -98 23.5 -152.5 t83.5 -54.5q82 0 155 115q6 4 12.5 0t4.5 -12q-53 -86 -118 -139.5t-120 -53.5q-82 0 -124 63.5t-42 180.5q0 164 37 334q-96 0 -189.5 -2.5t-181.5 -6.5q-68 -72 -130 -135t-122 -117q-164 -150 -337 -233.5t-379 -83.5q-111 0 -177.5 49t-88 125zM1370 602q98 2 193.5 2 h150.5q33 147 92.5 286.5t145.5 256.5q-180 -145 -321.5 -282.5t-260.5 -262.5zM1767.5 1459q-0.5 5 4.5 9q20 16 48.5 24.5t32.5 4.5q35 -29 83.5 -62.5t103.5 -64.5q4 -4 -1 -11t-16 -7q-25 6 -59.5 18t-69 26.5t-67.5 29t-55 26.5q-4 2 -4.5 7z" />
<glyph unicode="&#xc1;" horiz-adv-x="2078" d="M103.5 174q-21.5 76 1 166t90.5 174q6 4 14 -1t6 -19q-47 -51 -52 -118t28.5 -125t105.5 -98t180 -40q174 0 326.5 71.5t288.5 194.5q47 41 94 88l98 98q-72 -4 -135.5 -9t-118.5 -13q-10 2 -4 10t18.5 17.5t30 16.5t33.5 9q27 2 83 3t128 3q115 119 255 257t333 290 q-137 45 -283.5 74.5t-282.5 29.5q-154 0 -252 -85t-120 -267q-4 -10 -11.5 -8t-9.5 12q25 201 150 307.5t323 106.5q84 0 176.5 -11.5t181.5 -28.5t170 -39t142 -42q6 -4 6 -11t-12 -20q-68 -74 -121 -169t-90 -207.5t-57.5 -237.5t-20.5 -256q0 -98 23.5 -152.5 t83.5 -54.5q82 0 155 115q6 4 12.5 0t4.5 -12q-53 -86 -118 -139.5t-120 -53.5q-82 0 -124 63.5t-42 180.5q0 164 37 334q-96 0 -189.5 -2.5t-181.5 -6.5q-68 -72 -130 -135t-122 -117q-164 -150 -337 -233.5t-379 -83.5q-111 0 -177.5 49t-88 125zM1370 602q98 2 193.5 2 h150.5q33 147 92.5 286.5t145.5 256.5q-180 -145 -321.5 -282.5t-260.5 -262.5zM1839 1356q0 8 6 14q41 25 90 58.5t88 74.5q10 6 38 -3t46 -17q4 -4 6.5 -9.5t-4.5 -9.5q-20 -14 -52 -30.5t-67.5 -32t-73.5 -29.5t-69 -24q-8 0 -8 8z" />
<glyph unicode="&#xc2;" horiz-adv-x="2078" d="M103.5 174q-21.5 76 1 166t90.5 174q6 4 14 -1t6 -19q-47 -51 -52 -118t28.5 -125t105.5 -98t180 -40q174 0 326.5 71.5t288.5 194.5q47 41 94 88l98 98q-72 -4 -135.5 -9t-118.5 -13q-10 2 -4 10t18.5 17.5t30 16.5t33.5 9q27 2 83 3t128 3q115 119 255 257t333 290 q-137 45 -283.5 74.5t-282.5 29.5q-154 0 -252 -85t-120 -267q-4 -10 -11.5 -8t-9.5 12q25 201 150 307.5t323 106.5q84 0 176.5 -11.5t181.5 -28.5t170 -39t142 -42q6 -4 6 -11t-12 -20q-68 -74 -121 -169t-90 -207.5t-57.5 -237.5t-20.5 -256q0 -98 23.5 -152.5 t83.5 -54.5q82 0 155 115q6 4 12.5 0t4.5 -12q-53 -86 -118 -139.5t-120 -53.5q-82 0 -124 63.5t-42 180.5q0 164 37 334q-96 0 -189.5 -2.5t-181.5 -6.5q-68 -72 -130 -135t-122 -117q-164 -150 -337 -233.5t-379 -83.5q-111 0 -177.5 49t-88 125zM1370 602q98 2 193.5 2 h150.5q33 147 92.5 286.5t145.5 256.5q-180 -145 -321.5 -282.5t-260.5 -262.5zM1817 1391q35 20 89 59t87 78q10 10 24 -2q27 -35 69 -71t83 -54q10 -10 -9.5 -20.5t-43.5 -6.5q-39 16 -71 40t-65 50q-12 -10 -32.5 -22t-42 -25.5t-43 -26t-35.5 -18.5q-20 0 -10 19z" />
<glyph unicode="&#xc3;" horiz-adv-x="2078" d="M103.5 174q-21.5 76 1 166t90.5 174q6 4 14 -1t6 -19q-47 -51 -52 -118t28.5 -125t105.5 -98t180 -40q174 0 326.5 71.5t288.5 194.5q47 41 94 88l98 98q-72 -4 -135.5 -9t-118.5 -13q-10 2 -4 10t18.5 17.5t30 16.5t33.5 9q27 2 83 3t128 3q115 119 255 257t333 290 q-137 45 -283.5 74.5t-282.5 29.5q-154 0 -252 -85t-120 -267q-4 -10 -11.5 -8t-9.5 12q25 201 150 307.5t323 106.5q84 0 176.5 -11.5t181.5 -28.5t170 -39t142 -42q6 -4 6 -11t-12 -20q-68 -74 -121 -169t-90 -207.5t-57.5 -237.5t-20.5 -256q0 -98 23.5 -152.5 t83.5 -54.5q82 0 155 115q6 4 12.5 0t4.5 -12q-53 -86 -118 -139.5t-120 -53.5q-82 0 -124 63.5t-42 180.5q0 164 37 334q-96 0 -189.5 -2.5t-181.5 -6.5q-68 -72 -130 -135t-122 -117q-164 -150 -337 -233.5t-379 -83.5q-111 0 -177.5 49t-88 125zM1370 602q98 2 193.5 2 h150.5q33 147 92.5 286.5t145.5 256.5q-180 -145 -321.5 -282.5t-260.5 -262.5zM1782 1378q23 33 60.5 64t72.5 31q25 0 44 -11.5t40.5 -25t47.5 -24.5t58 -11q37 0 60.5 23.5t44.5 66.5q4 4 11 1t5 -9q-25 -55 -59.5 -88t-95.5 -33q-29 0 -52.5 10t-45 23.5t-42 24 t-41.5 10.5q-27 0 -49 -17.5t-45 -46.5q-8 -4 -13 1t-1 11z" />
<glyph unicode="&#xc4;" horiz-adv-x="2078" d="M103.5 174q-21.5 76 1 166t90.5 174q6 4 14 -1t6 -19q-47 -51 -52 -118t28.5 -125t105.5 -98t180 -40q174 0 326.5 71.5t288.5 194.5q47 41 94 88l98 98q-72 -4 -135.5 -9t-118.5 -13q-10 2 -4 10t18.5 17.5t30 16.5t33.5 9q27 2 83 3t128 3q115 119 255 257t333 290 q-137 45 -283.5 74.5t-282.5 29.5q-154 0 -252 -85t-120 -267q-4 -10 -11.5 -8t-9.5 12q25 201 150 307.5t323 106.5q84 0 176.5 -11.5t181.5 -28.5t170 -39t142 -42q6 -4 6 -11t-12 -20q-68 -74 -121 -169t-90 -207.5t-57.5 -237.5t-20.5 -256q0 -98 23.5 -152.5 t83.5 -54.5q82 0 155 115q6 4 12.5 0t4.5 -12q-53 -86 -118 -139.5t-120 -53.5q-82 0 -124 63.5t-42 180.5q0 164 37 334q-96 0 -189.5 -2.5t-181.5 -6.5q-68 -72 -130 -135t-122 -117q-164 -150 -337 -233.5t-379 -83.5q-111 0 -177.5 49t-88 125zM1370 602q98 2 193.5 2 h150.5q33 147 92.5 286.5t145.5 256.5q-180 -145 -321.5 -282.5t-260.5 -262.5zM1896 1401q0 20 20.5 48t53.5 28q18 0 19 -27q0 -29 -20.5 -56.5t-49.5 -27.5q-23 0 -23 35zM2052 1401q0 20 20.5 48t51.5 28q18 0 18 -27q0 -29 -20 -56.5t-45 -27.5t-25 35z" />
<glyph unicode="&#xc5;" horiz-adv-x="2078" d="M103.5 174q-21.5 76 1 166t90.5 174q6 4 14 -1t6 -19q-47 -51 -52 -118t28.5 -125t105.5 -98t180 -40q174 0 326.5 71.5t288.5 194.5q47 41 94 88l98 98q-72 -4 -135.5 -9t-118.5 -13q-10 2 -4 10t18.5 17.5t30 16.5t33.5 9q27 2 83 3t128 3q115 119 255 257t333 290 q-137 45 -283.5 74.5t-282.5 29.5q-154 0 -252 -85t-120 -267q-4 -10 -11.5 -8t-9.5 12q25 201 150 307.5t323 106.5q84 0 176.5 -11.5t181.5 -28.5t170 -39t142 -42q6 -4 6 -11t-12 -20q-68 -74 -121 -169t-90 -207.5t-57.5 -237.5t-20.5 -256q0 -98 23.5 -152.5 t83.5 -54.5q82 0 155 115q6 4 12.5 0t4.5 -12q-53 -86 -118 -139.5t-120 -53.5q-82 0 -124 63.5t-42 180.5q0 164 37 334q-96 0 -189.5 -2.5t-181.5 -6.5q-68 -72 -130 -135t-122 -117q-164 -150 -337 -233.5t-379 -83.5q-111 0 -177.5 49t-88 125zM1370 602q98 2 193.5 2 h150.5q33 147 92.5 286.5t145.5 256.5q-180 -145 -321.5 -282.5t-260.5 -262.5zM1925 1446q0 47 36 84t89 37q35 0 51.5 -20.5t16.5 -51.5q0 -47 -35 -85t-90 -38q-33 0 -50.5 21.5t-17.5 52.5zM1958 1462q0 -29 14.5 -47t46.5 -18q31 0 48.5 22.5t17.5 59.5q-1 63 -60 63 q-33 0 -50 -21.5t-17 -58.5z" />
<glyph unicode="&#xc6;" horiz-adv-x="2711" d="M104.5 174q-22.5 76 0 166t90.5 174q8 4 16 -1t6 -19q-47 -51 -52 -118t28.5 -125t105.5 -98t180 -40q174 0 326.5 71.5t288.5 194.5q47 41 93 87t97 99q-74 -4 -138.5 -9t-113.5 -13q-10 2 -4 10t18.5 17.5t30 16.5t33.5 9q23 2 80 3t129 3q117 119 257 257t333 290 q-137 45 -283.5 74.5t-282.5 29.5q-154 0 -252 -85t-120 -267q-4 -10 -11.5 -8t-9.5 12q23 201 149 307.5t324 106.5q84 0 174.5 -11.5t177.5 -28.5t165.5 -38.5t140.5 -42.5q6 -4 10 -9t-4 -22q-70 -129 -105.5 -249.5t-52.5 -266.5q70 66 164 112t209 66q-78 33 -125 88.5 t-47 126.5q0 55 27.5 105.5t81 87.5t131.5 59.5t178 22.5q55 0 104 -10.5t87 -26.5t59.5 -37.5t21.5 -42.5q0 -16 -8 -40.5t-18.5 -49.5t-22.5 -46.5t-18 -29.5q-4 -4 -11.5 0t-3.5 13q10 23 15.5 49t-9.5 55q-23 51 -89 87t-156 36q-123 0 -184.5 -56.5t-61.5 -148.5 q0 -72 48 -122t165 -85q6 -4 0 -15t-18.5 -24.5t-27 -23.5t-22.5 -13q-227 10 -351 -97t-124 -318q0 -72 21.5 -133.5t61.5 -106.5t96.5 -70.5t127.5 -25.5q168 0 274.5 78t153.5 252q6 10 13.5 6t9.5 -17q-27 -115 -59.5 -190.5t-61.5 -87.5q-86 -39 -174 -58.5t-209 -19.5 q-190 0 -290.5 85t-100.5 239q0 59 3 123.5t13 130.5q-109 0 -228.5 -3.5t-236.5 -7.5q-68 -72 -129 -134t-121 -116q-164 -150 -336.5 -233.5t-379.5 -83.5q-111 0 -177.5 49t-89 125zM1372 602q59 0 123 1t121 1h106.5h81.5q20 147 58.5 289.5t91.5 253.5 q-180 -145 -321.5 -283.5t-260.5 -261.5z" />
<glyph unicode="&#xc7;" horiz-adv-x="1183" d="M141 504q0 174 63.5 323.5t176.5 258t269.5 171t344.5 62.5q74 0 135.5 -7t106.5 -21.5t70.5 -34t25.5 -44.5q0 -16 -8 -43.5t-19.5 -57.5t-25.5 -57.5t-27 -43.5q-6 -4 -15 1t-5 13q43 76 18 117q-27 43 -113.5 83t-213.5 40q-160 0 -280 -49.5t-199.5 -140.5 t-118.5 -220t-39 -289q0 -115 30.5 -211t89 -166.5t144.5 -110.5t197 -40q147 0 245.5 90t139.5 244q6 8 16 6t10 -12q-8 -43 -24.5 -94.5t-35 -98.5t-35.5 -80t-30 -39q-59 -23 -135 -36t-160 -17q-14 -12 -17 -30.5t3 -35.5q18 -47 -10.5 -98t-100.5 -80q-6 2 -7 9.5 t3 11.5q53 25 64.5 53.5t-2.5 69.5q-8 27 -2 52t35 48q-283 4 -423.5 136t-140.5 368z" />
<glyph unicode="&#xc8;" horiz-adv-x="1050" d="M123 324q0 98 39 181t107.5 148.5t162.5 110.5t207 65q-78 33 -125 88.5t-47 126.5q0 55 27.5 105.5t81 87.5t131 59.5t178.5 22.5q55 0 104 -10.5t87 -26.5t59.5 -37.5t21.5 -42.5q0 -16 -7 -40.5t-18.5 -49.5t-22.5 -46.5t-17 -29.5q-6 -4 -12.5 0t-4.5 13 q12 23 16.5 49t-8.5 55q-25 51 -91 87t-156 36q-123 0 -184.5 -56.5t-61.5 -148.5q0 -72 49 -122t166 -85q6 -4 -1 -15t-19.5 -24.5t-27 -23.5t-22.5 -13q-227 10 -351 -97t-124 -318q0 -72 21.5 -133.5t61.5 -106.5t96.5 -70.5t127.5 -25.5q168 0 274.5 78t153.5 252 q6 10 13.5 6t9.5 -17q-25 -115 -58.5 -190.5t-62.5 -87.5q-86 -39 -174 -58.5t-207 -19.5q-193 0 -293 85t-100 239zM688 1459q0 5 4 9q20 16 49 24.5t33 4.5q35 -29 83.5 -62.5t103.5 -64.5q4 -4 -1.5 -11t-15.5 -7q-25 6 -59.5 18t-69.5 26.5t-67.5 29t-55.5 26.5 q-4 2 -4 7z" />
<glyph unicode="&#xc9;" horiz-adv-x="1050" d="M123 324q0 98 39 181t107.5 148.5t162.5 110.5t207 65q-78 33 -125 88.5t-47 126.5q0 55 27.5 105.5t81 87.5t131 59.5t178.5 22.5q55 0 104 -10.5t87 -26.5t59.5 -37.5t21.5 -42.5q0 -16 -7 -40.5t-18.5 -49.5t-22.5 -46.5t-17 -29.5q-6 -4 -12.5 0t-4.5 13 q12 23 16.5 49t-8.5 55q-25 51 -91 87t-156 36q-123 0 -184.5 -56.5t-61.5 -148.5q0 -72 49 -122t166 -85q6 -4 -1 -15t-19.5 -24.5t-27 -23.5t-22.5 -13q-227 10 -351 -97t-124 -318q0 -72 21.5 -133.5t61.5 -106.5t96.5 -70.5t127.5 -25.5q168 0 274.5 78t153.5 252 q6 10 13.5 6t9.5 -17q-25 -115 -58.5 -190.5t-62.5 -87.5q-86 -39 -174 -58.5t-207 -19.5q-193 0 -293 85t-100 239zM700.5 1356q-0.5 8 6.5 14q41 25 90 58.5t88 74.5q10 6 37.5 -3t46.5 -17q4 -4 6 -9.5t-4 -9.5q-20 -14 -52 -30.5t-68 -32t-74 -29.5t-68 -24q-8 0 -8.5 8 z" />
<glyph unicode="&#xca;" horiz-adv-x="1050" d="M123 324q0 98 39 181t107.5 148.5t162.5 110.5t207 65q-78 33 -125 88.5t-47 126.5q0 55 27.5 105.5t81 87.5t131 59.5t178.5 22.5q55 0 104 -10.5t87 -26.5t59.5 -37.5t21.5 -42.5q0 -16 -7 -40.5t-18.5 -49.5t-22.5 -46.5t-17 -29.5q-6 -4 -12.5 0t-4.5 13 q12 23 16.5 49t-8.5 55q-25 51 -91 87t-156 36q-123 0 -184.5 -56.5t-61.5 -148.5q0 -72 49 -122t166 -85q6 -4 -1 -15t-19.5 -24.5t-27 -23.5t-22.5 -13q-227 10 -351 -97t-124 -318q0 -72 21.5 -133.5t61.5 -106.5t96.5 -70.5t127.5 -25.5q168 0 274.5 78t153.5 252 q6 10 13.5 6t9.5 -17q-25 -115 -58.5 -190.5t-62.5 -87.5q-86 -39 -174 -58.5t-207 -19.5q-193 0 -293 85t-100 239zM625 1391q35 20 89 59t87 78q10 10 24 -2q27 -35 69 -71t83 -54q10 -10 -9.5 -20.5t-43.5 -6.5q-39 16 -71 40t-65 50q-12 -10 -32.5 -22t-42 -25.5 t-43 -26t-35.5 -18.5q-20 0 -10 19z" />
<glyph unicode="&#xcb;" horiz-adv-x="1050" d="M123 324q0 98 39 181t107.5 148.5t162.5 110.5t207 65q-78 33 -125 88.5t-47 126.5q0 55 27.5 105.5t81 87.5t131 59.5t178.5 22.5q55 0 104 -10.5t87 -26.5t59.5 -37.5t21.5 -42.5q0 -16 -7 -40.5t-18.5 -49.5t-22.5 -46.5t-17 -29.5q-6 -4 -12.5 0t-4.5 13 q12 23 16.5 49t-8.5 55q-25 51 -91 87t-156 36q-123 0 -184.5 -56.5t-61.5 -148.5q0 -72 49 -122t166 -85q6 -4 -1 -15t-19.5 -24.5t-27 -23.5t-22.5 -13q-227 10 -351 -97t-124 -318q0 -72 21.5 -133.5t61.5 -106.5t96.5 -70.5t127.5 -25.5q168 0 274.5 78t153.5 252 q6 10 13.5 6t9.5 -17q-25 -115 -58.5 -190.5t-62.5 -87.5q-86 -39 -174 -58.5t-207 -19.5q-193 0 -293 85t-100 239zM717 1401q0 20 20.5 48t53.5 28q18 0 18 -27q0 -29 -20.5 -56.5t-49.5 -27.5q-23 0 -22 35zM872 1401q0 20 20.5 48t51.5 28q18 0 19 -27 q0 -29 -20.5 -56.5t-45.5 -27.5t-25 35z" />
<glyph unicode="&#xcc;" horiz-adv-x="1214" d="M102 190q0 72 57.5 136.5t180.5 95.5q10 -2 11 -8t-3 -11q-125 -41 -125 -155q0 -86 67.5 -137.5t188.5 -51.5q160 0 287 67t223 224q-104 6 -159.5 80t-55.5 191q0 127 67.5 251.5t180.5 225t261 162t308 61.5q8 -4 5 -15.5t-13 -24.5t-23.5 -25.5t-25.5 -18.5 q-45 -12 -78 -35.5t-60.5 -66.5t-52 -112t-51.5 -175q-72 -276 -207 -469q27 4 50.5 12t33.5 15q6 2 8.5 -3.5t-1.5 -11.5q-16 -10 -45 -20.5t-60 -14.5q-129 -174 -297 -265t-362 -91q-150 0 -230 53t-80 137zM801 629q0 -123 53 -187.5t145 -70.5q96 164 166 432 q23 92 49.5 157.5t59.5 113.5t75 83t97 66q-141 -16 -260 -76t-205 -142.5t-133 -181t-47 -194.5zM987 1459q0 5 4 9q20 16 49 24.5t33 4.5q35 -29 83.5 -62.5t103.5 -64.5q4 -4 -1.5 -11t-15.5 -7q-25 6 -59.5 18t-69.5 26.5t-67.5 29t-55.5 26.5q-4 2 -4 7z" />
<glyph unicode="&#xcd;" horiz-adv-x="1214" d="M102 190q0 72 57.5 136.5t180.5 95.5q10 -2 11 -8t-3 -11q-125 -41 -125 -155q0 -86 67.5 -137.5t188.5 -51.5q160 0 287 67t223 224q-104 6 -159.5 80t-55.5 191q0 127 67.5 251.5t180.5 225t261 162t308 61.5q8 -4 5 -15.5t-13 -24.5t-23.5 -25.5t-25.5 -18.5 q-45 -12 -78 -35.5t-60.5 -66.5t-52 -112t-51.5 -175q-72 -276 -207 -469q27 4 50.5 12t33.5 15q6 2 8.5 -3.5t-1.5 -11.5q-16 -10 -45 -20.5t-60 -14.5q-129 -174 -297 -265t-362 -91q-150 0 -230 53t-80 137zM801 629q0 -123 53 -187.5t145 -70.5q96 164 166 432 q23 92 49.5 157.5t59.5 113.5t75 83t97 66q-141 -16 -260 -76t-205 -142.5t-133 -181t-47 -194.5zM1108 1356q0 8 6 14q41 25 90 58.5t88 74.5q10 6 38 -3t46 -17q4 -4 6 -9.5t-4 -9.5q-20 -14 -52 -30.5t-67.5 -32t-73.5 -29.5t-69 -24q-8 0 -8 8z" />
<glyph unicode="&#xce;" horiz-adv-x="1214" d="M102 190q0 72 57.5 136.5t180.5 95.5q10 -2 11 -8t-3 -11q-125 -41 -125 -155q0 -86 67.5 -137.5t188.5 -51.5q160 0 287 67t223 224q-104 6 -159.5 80t-55.5 191q0 127 67.5 251.5t180.5 225t261 162t308 61.5q8 -4 5 -15.5t-13 -24.5t-23.5 -25.5t-25.5 -18.5 q-45 -12 -78 -35.5t-60.5 -66.5t-52 -112t-51.5 -175q-72 -276 -207 -469q27 4 50.5 12t33.5 15q6 2 8.5 -3.5t-1.5 -11.5q-16 -10 -45 -20.5t-60 -14.5q-129 -174 -297 -265t-362 -91q-150 0 -230 53t-80 137zM801 629q0 -123 53 -187.5t145 -70.5q96 164 166 432 q23 92 49.5 157.5t59.5 113.5t75 83t97 66q-141 -16 -260 -76t-205 -142.5t-133 -181t-47 -194.5zM1030 1391q35 20 89 59t87 78q10 10 25 -2q27 -35 68.5 -71t82.5 -54q10 -10 -9 -20.5t-44 -6.5q-39 16 -70.5 40t-64.5 50q-12 -10 -32.5 -22t-42 -25.5t-43 -26 t-36.5 -18.5q-20 0 -10 19z" />
<glyph unicode="&#xcf;" horiz-adv-x="1214" d="M102 190q0 72 57.5 136.5t180.5 95.5q10 -2 11 -8t-3 -11q-125 -41 -125 -155q0 -86 67.5 -137.5t188.5 -51.5q160 0 287 67t223 224q-104 6 -159.5 80t-55.5 191q0 127 67.5 251.5t180.5 225t261 162t308 61.5q8 -4 5 -15.5t-13 -24.5t-23.5 -25.5t-25.5 -18.5 q-45 -12 -78 -35.5t-60.5 -66.5t-52 -112t-51.5 -175q-72 -276 -207 -469q27 4 50.5 12t33.5 15q6 2 8.5 -3.5t-1.5 -11.5q-16 -10 -45 -20.5t-60 -14.5q-129 -174 -297 -265t-362 -91q-150 0 -230 53t-80 137zM801 629q0 -123 53 -187.5t145 -70.5q96 164 166 432 q23 92 49.5 157.5t59.5 113.5t75 83t97 66q-141 -16 -260 -76t-205 -142.5t-133 -181t-47 -194.5zM1094 1401q0 20 20.5 48t52.5 28q18 0 19 -27q0 -29 -20.5 -56.5t-49.5 -27.5q-23 0 -22 35zM1249 1401q0 20 20.5 48t51.5 28q18 0 18 -27q0 -29 -20 -56.5t-45 -27.5 t-25 35z" />
<glyph unicode="&#xd0;" horiz-adv-x="1673" d="M61 57q0 27 20.5 58.5t55.5 58.5t84 44.5t109 17.5q78 0 144.5 -14.5t131.5 -37.5q55 63 105.5 160.5t103.5 239.5q-74 -4 -141.5 -11.5t-118.5 -17.5q-8 4 3 16.5t34 20.5q31 4 94.5 9t136.5 9q14 35 26.5 74t27.5 80q41 125 89 223t109 170q-82 41 -173 62.5t-189 21.5 q-90 0 -155.5 -26.5t-112 -70.5t-73 -103.5t-36.5 -125.5q-4 -6 -9 -3t-8 10q8 86 45 158.5t99.5 126t148.5 83t195 29.5q94 0 182 -20.5t170 -59.5q104 84 256 117q6 0 7 -7.5t-7 -11.5q-119 -32 -213 -120q100 -55 185.5 -132t146.5 -169.5t95 -192.5t34 -201 q0 -113 -43 -209t-121 -165.5t-187.5 -108.5t-242.5 -39q-78 0 -145.5 10t-128 25.5t-115.5 34t-111 36.5q-80 -55 -175 -80.5t-212 -25.5q-66 0 -93.5 15.5t-27.5 41.5zM147 104q0 -31 26 -49t79 -18q86 0 155.5 17.5t129.5 62.5q-68 23 -139.5 36t-157.5 13 q-47 0 -70 -16.5t-23 -45.5zM645 172q51 -18 106.5 -36.5t118 -34t137 -24.5t164.5 -9q195 0 287 104t92 287q0 96 -30.5 192.5t-86 184.5t-133 163.5t-174.5 130.5q-47 -63 -86 -144t-71 -181q-16 -53 -33.5 -100.5t-34.5 -92.5q72 4 136.5 4t109.5 -2q4 -4 3 -9t-13 -9 q-53 0 -116 -2t-128 -6q-55 -141 -115.5 -242.5t-132.5 -173.5z" />
<glyph unicode="&#xd1;" horiz-adv-x="2033" d="M88 305q0 82 40 161t116 128q10 4 14 -4t0 -19q-37 -37 -58.5 -83t-21.5 -97q0 -129 86 -207t258 -78q295 0 493.5 243t270.5 730q-92 74 -188.5 114t-200.5 40q-98 0 -162.5 -45t-93.5 -98q-6 -6 -13 -4.5t-10 12.5q18 39 53.5 79t81.5 71.5t102 51t118 19.5 q86 0 169 -29.5t161 -85.5q4 12 12 27.5t17 28t16.5 17.5t9.5 -3q-2 -27 -4 -52.5t-6 -50.5q90 -72 170.5 -171t149.5 -215.5t124 -246.5t94 -264q16 113 49 234t80 236.5t103.5 220t119 183.5t128 125t131.5 46t95 -52.5t29 -156.5q-2 -12 -12 -14t-14 10q-4 33 -31 63.5 t-88 30.5q-66 0 -133.5 -51t-132 -137t-120.5 -202t-100 -245t-71 -265t-31 -263q0 -23 -4 -30t-14 -7t-14.5 9t-8.5 22q-92 338 -223 598t-297 413q-45 -252 -128 -446.5t-194.5 -326.5t-247.5 -200.5t-288 -68.5q-96 0 -168 23.5t-119 64.5t-70.5 96.5t-23.5 120.5z M1583 1378q23 33 60.5 64t72.5 31q25 0 44.5 -11.5t41 -25t47 -24.5t58.5 -11q37 0 60.5 23.5t43.5 66.5q4 4 11.5 1t5.5 -9q-25 -55 -60 -88t-96 -33q-29 0 -52.5 10t-45 23.5t-42 24t-40.5 10.5q-27 0 -49.5 -17.5t-45.5 -46.5q-8 -4 -13 1t-1 11z" />
<glyph unicode="&#xd2;" horiz-adv-x="1323" d="M143 475q0 156 66.5 307.5t178.5 271.5t258 192.5t308 72.5q111 0 196 -36t144.5 -100.5t90 -154.5t30.5 -197q0 -166 -66.5 -316t-177 -265t-253 -182.5t-293.5 -67.5q-117 0 -206 36t-150.5 100.5t-93.5 150.5t-32 188zM270 543q0 -106 31 -192.5t90.5 -148t146 -95 t199.5 -33.5q106 0 205.5 50t177.5 141t125 219t47 286q0 98 -25.5 184t-78.5 149.5t-133 100.5t-191 37q-137 0 -246.5 -54t-186.5 -148.5t-119 -221.5t-42 -274zM739 1459q0 5 4 9q20 16 49 24.5t33 4.5q35 -29 83.5 -62.5t103.5 -64.5q4 -4 -1 -11t-16 -7q-25 6 -59.5 18 t-69.5 26.5t-67.5 29t-55.5 26.5q-4 2 -4 7z" />
<glyph unicode="&#xd3;" horiz-adv-x="1323" d="M143 475q0 156 66.5 307.5t178.5 271.5t258 192.5t308 72.5q111 0 196 -36t144.5 -100.5t90 -154.5t30.5 -197q0 -166 -66.5 -316t-177 -265t-253 -182.5t-293.5 -67.5q-117 0 -206 36t-150.5 100.5t-93.5 150.5t-32 188zM270 543q0 -106 31 -192.5t90.5 -148t146 -95 t199.5 -33.5q106 0 205.5 50t177.5 141t125 219t47 286q0 98 -25.5 184t-78.5 149.5t-133 100.5t-191 37q-137 0 -246.5 -54t-186.5 -148.5t-119 -221.5t-42 -274zM774 1356q0 8 6 14q41 25 90 58.5t88 74.5q10 6 38 -3t46 -17q4 -4 6.5 -9.5t-4.5 -9.5q-20 -14 -51.5 -30.5 t-67.5 -32t-74 -29.5t-69 -24q-8 0 -8 8z" />
<glyph unicode="&#xd4;" horiz-adv-x="1323" d="M143 475q0 156 66.5 307.5t178.5 271.5t258 192.5t308 72.5q111 0 196 -36t144.5 -100.5t90 -154.5t30.5 -197q0 -166 -66.5 -316t-177 -265t-253 -182.5t-293.5 -67.5q-117 0 -206 36t-150.5 100.5t-93.5 150.5t-32 188zM270 543q0 -106 31 -192.5t90.5 -148t146 -95 t199.5 -33.5q106 0 205.5 50t177.5 141t125 219t47 286q0 98 -25.5 184t-78.5 149.5t-133 100.5t-191 37q-137 0 -246.5 -54t-186.5 -148.5t-119 -221.5t-42 -274zM745 1391q35 20 89.5 59t87.5 78q10 10 24 -2q27 -35 69 -71t83 -54q10 -10 -9.5 -20.5t-44.5 -6.5 q-39 16 -70.5 40t-64.5 50q-12 -10 -32.5 -22t-42 -25.5t-43 -26t-35.5 -18.5q-20 0 -11 19z" />
<glyph unicode="&#xd5;" horiz-adv-x="1323" d="M143 475q0 156 66.5 307.5t178.5 271.5t258 192.5t308 72.5q111 0 196 -36t144.5 -100.5t90 -154.5t30.5 -197q0 -166 -66.5 -316t-177 -265t-253 -182.5t-293.5 -67.5q-117 0 -206 36t-150.5 100.5t-93.5 150.5t-32 188zM270 543q0 -106 31 -192.5t90.5 -148t146 -95 t199.5 -33.5q106 0 205.5 50t177.5 141t125 219t47 286q0 98 -25.5 184t-78.5 149.5t-133 100.5t-191 37q-137 0 -246.5 -54t-186.5 -148.5t-119 -221.5t-42 -274zM707 1378q23 33 60.5 64t72.5 31q25 0 44 -11.5t40.5 -25t47 -24.5t58.5 -11q37 0 60.5 23.5t44.5 66.5 q4 4 11 1t5 -9q-25 -55 -59.5 -88t-96.5 -33q-29 0 -52 10t-44.5 23.5t-42 24t-41.5 10.5q-27 0 -49.5 -17.5t-44.5 -46.5q-8 -4 -13 1t-1 11z" />
<glyph unicode="&#xd6;" horiz-adv-x="1323" d="M143 475q0 156 66.5 307.5t178.5 271.5t258 192.5t308 72.5q111 0 196 -36t144.5 -100.5t90 -154.5t30.5 -197q0 -166 -66.5 -316t-177 -265t-253 -182.5t-293.5 -67.5q-117 0 -206 36t-150.5 100.5t-93.5 150.5t-32 188zM270 543q0 -106 31 -192.5t90.5 -148t146 -95 t199.5 -33.5q106 0 205.5 50t177.5 141t125 219t47 286q0 98 -25.5 184t-78.5 149.5t-133 100.5t-191 37q-137 0 -246.5 -54t-186.5 -148.5t-119 -221.5t-42 -274zM809 1401q0 20 20.5 48t53.5 28q18 0 18 -27q0 -29 -20.5 -56.5t-49.5 -27.5q-23 0 -22 35zM965 1401 q0 20 20.5 48t50.5 28q18 0 19 -27q0 -29 -20.5 -56.5t-45.5 -27.5t-24 35z" />
<glyph unicode="&#xd7;" horiz-adv-x="616" d="M106 119q49 43 99.5 87t101.5 91q-23 41 -44 81t-44 79q-2 12 15.5 24.5t25.5 -0.5q14 -25 35.5 -64.5t48.5 -86.5q41 37 80 74.5t80 76.5q8 4 20.5 5t22.5 -1t16 -6t2 -12q-51 -43 -102 -87t-98 -89l46 -86t42 -80q2 -4 -3.5 -10t-12.5 -10.5t-15 -5.5t-10 3 q-20 37 -41 76t-43 80q-41 -39 -81 -76t-77 -71q-10 -6 -22.5 -8.5t-22.5 -1.5t-16.5 5.5t-2.5 12.5z" />
<glyph unicode="&#xd8;" horiz-adv-x="1320" d="M143 475q0 104 30 207.5t84 197t130 174.5t166 139t191.5 92t209.5 34q113 0 205 -41q27 37 49 68q12 10 29.5 6t11.5 -17q-24 -34 -55 -73q106 -59 162.5 -171t56.5 -260q0 -166 -66.5 -316t-176 -265t-252 -182.5t-293.5 -67.5q-90 0 -162 20.5t-129 59.5 q-25 -35 -44.5 -62.5t-35.5 -50.5q-10 -12 -27.5 -8t-13.5 14q18 27 40.5 60t49.5 69q-78 66 -119 161t-41 212zM270 543q0 -205 111 -332q78 109 170 235.5t186 258t185.5 255t167.5 226.5q-94 53 -226 53q-137 0 -247.5 -54.5t-187.5 -148.5t-118 -221t-41 -272zM408 184 q59 -53 141 -82.5t188 -29.5t205.5 50t176.5 141t124 220t47 287q0 125 -41 228.5t-127 164.5q-76 -100 -168 -225t-189 -257t-189.5 -261t-167.5 -236z" />
<glyph unicode="&#xd9;" horiz-adv-x="1566" d="M142 890q24 122 92.5 217t178 153.5t255.5 58.5q86 0 165.5 -18.5t143.5 -47.5q10 -8 -6 -24q-109 -86 -192 -193.5t-141 -227.5t-88 -246t-30 -249q0 -117 44 -172t134 -55q106 0 208 69.5t208.5 215t225 370t257.5 533.5q8 16 47 30.5t85 14.5q33 0 32 -14 q-37 -43 -82 -122t-90 -178.5t-87 -212t-74.5 -220t-52 -203t-19.5 -162.5q0 -117 78 -117q76 0 151 115q6 6 13.5 1t5.5 -16q-55 -88 -118 -139t-120 -51q-59 0 -96 40t-37 120q0 102 30.5 243.5t96.5 305.5q-186 -350 -369.5 -529.5t-363.5 -179.5q-113 0 -175.5 69.5 t-62.5 186.5q0 111 33 232.5t94.5 242.5t151 237t206.5 218q-53 20 -132.5 36.5t-166.5 16.5q-119 0 -205.5 -50t-139 -133t-68 -189.5t7.5 -219.5q-2 -8 -10 -12t-13 4q-29 129 -5 251zM1145 1459q0 5 4 9q20 16 49 24.5t33 4.5q35 -29 83 -62.5t103 -64.5q4 -4 -1 -11 t-15 -7q-25 6 -59.5 18t-69.5 26.5t-68 29t-55 26.5q-4 2 -4 7z" />
<glyph unicode="&#xda;" horiz-adv-x="1566" d="M142 890q24 122 92.5 217t178 153.5t255.5 58.5q86 0 165.5 -18.5t143.5 -47.5q10 -8 -6 -24q-109 -86 -192 -193.5t-141 -227.5t-88 -246t-30 -249q0 -117 44 -172t134 -55q106 0 208 69.5t208.5 215t225 370t257.5 533.5q8 16 47 30.5t85 14.5q33 0 32 -14 q-37 -43 -82 -122t-90 -178.5t-87 -212t-74.5 -220t-52 -203t-19.5 -162.5q0 -117 78 -117q76 0 151 115q6 6 13.5 1t5.5 -16q-55 -88 -118 -139t-120 -51q-59 0 -96 40t-37 120q0 102 30.5 243.5t96.5 305.5q-186 -350 -369.5 -529.5t-363.5 -179.5q-113 0 -175.5 69.5 t-62.5 186.5q0 111 33 232.5t94.5 242.5t151 237t206.5 218q-53 20 -132.5 36.5t-166.5 16.5q-119 0 -205.5 -50t-139 -133t-68 -189.5t7.5 -219.5q-2 -8 -10 -12t-13 4q-29 129 -5 251zM1141 1356q0 8 6 14q41 25 90 58.5t88 74.5q10 6 38 -3t46 -17q4 -4 6 -9.5t-4 -9.5 q-20 -14 -52 -30.5t-68 -32t-73.5 -29.5t-68.5 -24q-8 0 -8 8z" />
<glyph unicode="&#xdb;" horiz-adv-x="1566" d="M142 890q24 122 92.5 217t178 153.5t255.5 58.5q86 0 165.5 -18.5t143.5 -47.5q10 -8 -6 -24q-109 -86 -192 -193.5t-141 -227.5t-88 -246t-30 -249q0 -117 44 -172t134 -55q106 0 208 69.5t208.5 215t225 370t257.5 533.5q8 16 47 30.5t85 14.5q33 0 32 -14 q-37 -43 -82 -122t-90 -178.5t-87 -212t-74.5 -220t-52 -203t-19.5 -162.5q0 -117 78 -117q76 0 151 115q6 6 13.5 1t5.5 -16q-55 -88 -118 -139t-120 -51q-59 0 -96 40t-37 120q0 102 30.5 243.5t96.5 305.5q-186 -350 -369.5 -529.5t-363.5 -179.5q-113 0 -175.5 69.5 t-62.5 186.5q0 111 33 232.5t94.5 242.5t151 237t206.5 218q-53 20 -132.5 36.5t-166.5 16.5q-119 0 -205.5 -50t-139 -133t-68 -189.5t7.5 -219.5q-2 -8 -10 -12t-13 4q-29 129 -5 251zM1059 1391q35 20 89 59t87 78q10 10 25 -2q27 -35 68.5 -71t82.5 -54 q10 -10 -9.5 -20.5t-43.5 -6.5q-39 16 -71 40t-64 50q-12 -10 -33 -22t-42.5 -25.5t-43 -26t-35.5 -18.5q-20 0 -10 19z" />
<glyph unicode="&#xdc;" horiz-adv-x="1566" d="M142 890q24 122 92.5 217t178 153.5t255.5 58.5q86 0 165.5 -18.5t143.5 -47.5q10 -8 -6 -24q-109 -86 -192 -193.5t-141 -227.5t-88 -246t-30 -249q0 -117 44 -172t134 -55q106 0 208 69.5t208.5 215t225 370t257.5 533.5q8 16 47 30.5t85 14.5q33 0 32 -14 q-37 -43 -82 -122t-90 -178.5t-87 -212t-74.5 -220t-52 -203t-19.5 -162.5q0 -117 78 -117q76 0 151 115q6 6 13.5 1t5.5 -16q-55 -88 -118 -139t-120 -51q-59 0 -96 40t-37 120q0 102 30.5 243.5t96.5 305.5q-186 -350 -369.5 -529.5t-363.5 -179.5q-113 0 -175.5 69.5 t-62.5 186.5q0 111 33 232.5t94.5 242.5t151 237t206.5 218q-53 20 -132.5 36.5t-166.5 16.5q-119 0 -205.5 -50t-139 -133t-68 -189.5t7.5 -219.5q-2 -8 -10 -12t-13 4q-29 129 -5 251zM1151 1401q0 20 20.5 48t53.5 28q18 0 18 -27q0 -29 -20 -56.5t-49 -27.5 q-23 0 -23 35zM1307 1401q0 20 20.5 48t50.5 28q18 0 19 -27q0 -29 -20.5 -56.5t-45.5 -27.5t-24 35z" />
<glyph unicode="&#xdd;" horiz-adv-x="1433" d="M14 90q0 78 32 151.5t92.5 134t148.5 101.5t202 53q10 -2 9.5 -10t-11.5 -18q-94 -12 -160.5 -43t-109.5 -78t-62.5 -107.5t-19.5 -128.5q0 -156 94.5 -244.5t272.5 -88.5q131 0 248.5 45t230.5 150.5t227.5 279.5t241.5 432q-57 -94 -126 -175t-143.5 -141.5 t-152.5 -94.5t-154 -34q-98 0 -141 52.5t-31 148.5q16 113 50 225.5t67 217.5q33 102 46.5 164.5t11 97t-17.5 46t-40 11.5q-47 0 -89 -36t-64 -73q-8 -6 -15.5 0.5t-5.5 16.5q18 33 48 64.5t65 56t73.5 39t77.5 14.5q35 0 58.5 -18.5t30 -60.5t-4 -110.5t-43.5 -168.5 q-41 -127 -73.5 -228.5t-49.5 -204.5q-12 -88 12.5 -133t104.5 -45q178 0 370.5 236.5t424.5 699.5q23 20 52.5 26.5t55.5 6.5q25 0 21 -21q-211 -451 -396.5 -750.5t-359.5 -480t-344 -255t-352 -74.5q-193 0 -297.5 98t-104.5 254zM1243 1356q0 8 6 14q41 25 90 58.5 t88 74.5q10 6 38 -3t46 -17q4 -4 6.5 -9.5t-4.5 -9.5q-20 -14 -51.5 -30.5t-67.5 -32t-74 -29.5t-69 -24q-8 0 -8 8z" />
<glyph unicode="&#xde;" horiz-adv-x="1605" d="M102 281q0 100 55.5 179t137.5 105q18 4 12 -14q-59 -33 -89 -88t-30 -119q0 -55 18.5 -105.5t58.5 -87t102.5 -58t148.5 -21.5q78 0 140.5 14t114.5 50t97 99.5t86 161.5q-23 16 -43 41q-2 8 3.5 13.5t11.5 3.5q20 -20 39 -31q29 66 55.5 149.5t54.5 188.5 q23 78 45.5 143.5t50.5 122.5q-141 -10 -222 -77.5t-113 -178.5q-6 -6 -13.5 -1t-7.5 20q18 51 49 100t77 89t109.5 66.5t147.5 34.5q72 135 164 210t209 104q10 0 11 -9.5t-9 -13.5q-90 -25 -153.5 -91.5t-116.5 -195.5q90 -4 161.5 -32.5t120.5 -74.5t76 -106.5t27 -128.5 q0 -102 -42 -179t-114 -128t-167 -77.5t-204 -26.5q-80 0 -137 24q-119 -188 -267.5 -272t-322.5 -84q-74 0 -135 20.5t-104 57.5t-68 89t-25 114zM1042 389q61 -16 127 -16q94 0 167 27.5t122 73.5t73.5 108.5t24.5 134.5q0 129 -70.5 211t-205.5 98q-14 -37 -26.5 -78 t-24.5 -88q-76 -289 -187 -471z" />
<glyph unicode="&#xdf;" horiz-adv-x="692" d="M-637 -350q0 8 5 11t9 -3q25 -43 78 -73.5t129 -30.5q66 0 120 11t100 45t87 94t82 158.5t85 240t96 335.5q68 260 161 452.5t200.5 320.5t223 191.5t228.5 63.5q49 0 86 -16t61.5 -41t36.5 -56.5t12 -62.5q0 -94 -49 -167.5t-124 -135t-161 -117t-160.5 -115 t-123.5 -128t-49 -156.5q0 -51 20.5 -89t45 -72t45 -69.5t20.5 -84.5q0 -66 -53.5 -111t-167.5 -45q-63 0 -103.5 22.5t-40.5 49.5q0 8 6 22.5t16.5 30.5t24 32.5t27.5 26.5q4 4 10 -2t2 -12q-25 -25 -24 -59q0 -37 23.5 -61.5t64.5 -24.5q53 0 81.5 29.5t28.5 72.5 q0 39 -20.5 76t-45 75.5t-45 80.5t-20.5 94q0 80 48 143t121 119.5t158 112t157.5 118t120.5 138t48 171.5q0 66 -37.5 105t-107.5 39q-100 0 -187 -49.5t-164 -161t-146.5 -294.5t-135.5 -452q-68 -279 -149.5 -460t-176 -288.5t-197.5 -150.5t-214 -43q-88 0 -128 42 t-38 108z" />
<glyph unicode="&#xe0;" d="M63 150q0 68 33 134t87.5 119.5t121 87t133.5 33.5q72 0 113 -35q20 14 52 24.5t56 10.5q8 0 9 -10q-47 -57 -81 -126t-52.5 -131t-22.5 -111.5t8 -67.5q10 -12 35 -7t68 58q4 4 10 0t4 -12q-37 -53 -82 -85t-86 -32q-47 0 -60.5 66.5t13.5 158.5q-55 -88 -119.5 -150.5 t-136.5 -74.5q-49 0 -76 45t-27 105zM178 174q0 -45 15.5 -71.5t35.5 -26.5q25 0 61 30.5t74.5 82t76.5 115t67 128.5q-8 27 -38 43.5t-69 16.5q-47 0 -88 -24t-70.5 -66t-47 -100t-17.5 -128zM326 744.5q0 5.5 4 9.5q27 23 58.5 33t37.5 4q25 -29 61.5 -63.5t73.5 -61.5 q4 -4 0 -11.5t-14 -7.5q-53 14 -114.5 39t-102.5 51q-4 2 -4 7.5z" />
<glyph unicode="&#xe1;" d="M63 150q0 68 33 134t87.5 119.5t121 87t133.5 33.5q72 0 113 -35q20 14 52 24.5t56 10.5q8 0 9 -10q-47 -57 -81 -126t-52.5 -131t-22.5 -111.5t8 -67.5q10 -12 35 -7t68 58q4 4 10 0t4 -12q-37 -53 -82 -85t-86 -32q-47 0 -60.5 66.5t13.5 158.5q-55 -88 -119.5 -150.5 t-136.5 -74.5q-49 0 -76 45t-27 105zM178 174q0 -45 15.5 -71.5t35.5 -26.5q25 0 61 30.5t74.5 82t76.5 115t67 128.5q-8 27 -38 43.5t-69 16.5q-47 0 -88 -24t-70.5 -66t-47 -100t-17.5 -128zM354 651q0 8 6 15q29 18 66.5 50.5t66.5 67.5q14 8 44 -3t59 -23q6 -2 7 -8.5 t-3 -10.5q-20 -14 -50 -27.5t-63 -25.5t-65.5 -23.5t-59.5 -19.5q-8 0 -8 8z" />
<glyph unicode="&#xe2;" d="M63 150q0 68 33 134t87.5 119.5t121 87t133.5 33.5q72 0 113 -35q20 14 52 24.5t56 10.5q8 0 9 -10q-47 -57 -81 -126t-52.5 -131t-22.5 -111.5t8 -67.5q10 -12 35 -7t68 58q4 4 10 0t4 -12q-37 -53 -82 -85t-86 -32q-47 0 -60.5 66.5t13.5 158.5q-55 -88 -119.5 -150.5 t-136.5 -74.5q-49 0 -76 45t-27 105zM178 174q0 -45 15.5 -71.5t35.5 -26.5q25 0 61 30.5t74.5 82t76.5 115t67 128.5q-8 27 -38 43.5t-69 16.5q-47 0 -88 -24t-70.5 -66t-47 -100t-17.5 -128zM288 663.5q-3 6.5 1 14.5q35 20 76 55t74 76q10 10 24 -2q25 -35 60.5 -61.5 t74.5 -45.5q10 -10 -11 -24t-48 -10q-35 14 -64.5 28.5t-58.5 32.5q-49 -35 -117 -70q-8 0 -11 6.5z" />
<glyph unicode="&#xe3;" d="M63 150q0 68 33 134t87.5 119.5t121 87t133.5 33.5q72 0 113 -35q20 14 52 24.5t56 10.5q8 0 9 -10q-47 -57 -81 -126t-52.5 -131t-22.5 -111.5t8 -67.5q10 -12 35 -7t68 58q4 4 10 0t4 -12q-37 -53 -82 -85t-86 -32q-47 0 -60.5 66.5t13.5 158.5q-55 -88 -119.5 -150.5 t-136.5 -74.5q-49 0 -76 45t-27 105zM178 174q0 -45 15.5 -71.5t35.5 -26.5q25 0 61 30.5t74.5 82t76.5 115t67 128.5q-8 27 -38 43.5t-69 16.5q-47 0 -88 -24t-70.5 -66t-47 -100t-17.5 -128zM246 680q25 29 57.5 54.5t55.5 31.5q14 4 27.5 -3t29.5 -16.5t36.5 -18.5 t51.5 -9t52.5 13t37.5 40q6 4 14.5 1t6.5 -9q-23 -37 -54.5 -66.5t-89.5 -29.5q-27 0 -47 8t-35.5 17t-29 16.5t-25.5 7.5q-16 -2 -32.5 -14.5t-39.5 -34.5q-20 -4 -16 12z" />
<glyph unicode="&#xe4;" d="M63 150q0 68 33 134t87.5 119.5t121 87t133.5 33.5q72 0 113 -35q20 14 52 24.5t56 10.5q8 0 9 -10q-47 -57 -81 -126t-52.5 -131t-22.5 -111.5t8 -67.5q10 -12 35 -7t68 58q4 4 10 0t4 -12q-37 -53 -82 -85t-86 -32q-47 0 -60.5 66.5t13.5 158.5q-55 -88 -119.5 -150.5 t-136.5 -74.5q-49 0 -76 45t-27 105zM178 174q0 -45 15.5 -71.5t35.5 -26.5q25 0 61 30.5t74.5 82t76.5 115t67 128.5q-8 27 -38 43.5t-69 16.5q-47 0 -88 -24t-70.5 -66t-47 -100t-17.5 -128zM289 692q0 12 7 27.5t18.5 30t26.5 24.5t34 10q10 0 19 -12t9 -24q0 -16 -7 -34 t-18.5 -32t-26 -24.5t-28.5 -10.5t-24 13.5t-10 31.5zM475 692q0 12 7 27.5t19.5 30t28 24.5t33.5 10q10 0 19.5 -12t9.5 -24q0 -16 -7.5 -34t-19.5 -32t-26.5 -24.5t-28.5 -10.5t-24.5 13.5t-10.5 31.5z" />
<glyph unicode="&#xe5;" d="M63 150q0 68 33 134t87.5 119.5t121 87t133.5 33.5q72 0 113 -35q20 14 52 24.5t56 10.5q8 0 9 -10q-47 -57 -81 -126t-52.5 -131t-22.5 -111.5t8 -67.5q10 -12 35 -7t68 58q4 4 10 0t4 -12q-37 -53 -82 -85t-86 -32q-47 0 -60.5 66.5t13.5 158.5q-55 -88 -119.5 -150.5 t-136.5 -74.5q-49 0 -76 45t-27 105zM178 174q0 -45 15.5 -71.5t35.5 -26.5q25 0 61 30.5t74.5 82t76.5 115t67 128.5q-8 27 -38 43.5t-69 16.5q-47 0 -88 -24t-70.5 -66t-47 -100t-17.5 -128zM348 688q0 41 33.5 75t78.5 34q27 0 41.5 -17.5t14.5 -42.5q0 -41 -33 -74.5 t-78 -33.5q-29 0 -43 17.5t-14 41.5zM383 707q0 -20 13 -35t34 -15q23 0 37 16.5t14 45.5q0 18 -11 33.5t-34 15.5q-25 0 -39 -16.5t-14 -44.5z" />
<glyph unicode="&#xe6;" horiz-adv-x="858" d="M63 150q0 68 33 134t87.5 119.5t121 87t133.5 33.5q37 0 63.5 -9t49.5 -26q18 16 50 38t56 22q14 0 11 -10q-25 -29 -45 -58q55 43 114 43q53 0 87 -32.5t34 -69.5q0 -117 -309 -162q-2 -18 -2 -39.5v-44.5q0 -51 23.5 -79.5t76.5 -28.5q39 0 80 22.5t68 56.5q8 4 12 -3 t0 -15q-41 -53 -103.5 -91t-134.5 -38t-103.5 36t-31.5 101q0 74 35 154q-72 -117 -145.5 -199t-159.5 -92q-47 0 -74 45t-27 105zM178 174q0 -45 15.5 -71.5t35.5 -26.5q23 0 59 30.5t75.5 82t77.5 115t67 128.5q-8 27 -38 43.5t-69 16.5q-47 0 -88 -24t-70.5 -66t-47 -100 t-17.5 -128zM553 291q98 10 145 37.5t47 68.5q0 31 -18 52.5t-47 21.5q-47 0 -80 -44t-47 -136z" />
<glyph unicode="&#xe7;" horiz-adv-x="468" d="M61 121q0 72 30 144.5t76 130t101.5 93t108.5 35.5q47 0 74.5 -26.5t27.5 -59.5q0 -12 -8 -26.5t-19.5 -28.5t-25 -26.5t-23.5 -16.5q-4 -2 -8 1t-4 7q16 45 -4 78t-72 33q-66 0 -105.5 -82t-39.5 -215q0 -94 76 -94q37 0 78 24.5t75 65.5q8 4 14.5 -1t2.5 -16 q-31 -39 -71 -70.5t-73 -47.5q-39 -16 -49 -41t0 -52q18 -51 -19.5 -110.5t-117.5 -91.5q-6 2 -6 10t4 12q57 29 74.5 61.5t3.5 77.5q-10 29 3 64t46 51q-10 -4 -22.5 -4h-22.5q-45 0 -75 31.5t-30 89.5z" />
<glyph unicode="&#xe8;" horiz-adv-x="485" d="M61 137q0 63 27 132t69 126.5t96 93t109 35.5t89 -31.5t34 -70.5q0 -117 -309 -160q-2 -20 -3 -40.5t-1 -43.5q0 -53 24.5 -81.5t77.5 -28.5q39 0 80 22.5t66 56.5q8 4 12 -3t2 -15q-41 -53 -103.5 -91t-133.5 -38q-72 0 -104 36t-32 101zM180 291q98 10 145.5 37.5 t47.5 68.5q0 31 -18.5 52.5t-47.5 21.5q-47 0 -80.5 -44t-46.5 -136zM232 744.5q0 5.5 4 9.5q27 23 58.5 33t37.5 4q25 -29 61.5 -63.5t73.5 -61.5q4 -4 0 -11.5t-14 -7.5q-53 14 -114.5 39t-102.5 51q-4 2 -4 7.5z" />
<glyph unicode="&#xe9;" horiz-adv-x="485" d="M61 137q0 63 27 132t69 126.5t96 93t109 35.5t89 -31.5t34 -70.5q0 -117 -309 -160q-2 -20 -3 -40.5t-1 -43.5q0 -53 24.5 -81.5t77.5 -28.5q39 0 80 22.5t66 56.5q8 4 12 -3t2 -15q-41 -53 -103.5 -91t-133.5 -38q-72 0 -104 36t-32 101zM180 291q98 10 145.5 37.5 t47.5 68.5q0 31 -18.5 52.5t-47.5 21.5q-47 0 -80.5 -44t-46.5 -136zM266 651q0 8 6 15q29 18 66.5 50.5t66.5 67.5q14 8 44 -3t59 -23q6 -2 7 -8.5t-3 -10.5q-20 -14 -50 -27.5t-63 -25.5t-65.5 -23.5t-59.5 -19.5q-8 0 -8 8z" />
<glyph unicode="&#xea;" horiz-adv-x="485" d="M61 137q0 63 27 132t69 126.5t96 93t109 35.5t89 -31.5t34 -70.5q0 -117 -309 -160q-2 -20 -3 -40.5t-1 -43.5q0 -53 24.5 -81.5t77.5 -28.5q39 0 80 22.5t66 56.5q8 4 12 -3t2 -15q-41 -53 -103.5 -91t-133.5 -38q-72 0 -104 36t-32 101zM173 663.5q-3 6.5 1 14.5 q35 20 76 55t74 76q10 10 24 -2q25 -35 60.5 -61.5t74.5 -45.5q10 -10 -11 -24t-48 -10q-35 14 -64.5 28.5t-58.5 32.5q-49 -35 -117 -70q-8 0 -11 6.5zM180 291q98 10 145.5 37.5t47.5 68.5q0 31 -18.5 52.5t-47.5 21.5q-47 0 -80.5 -44t-46.5 -136z" />
<glyph unicode="&#xeb;" horiz-adv-x="485" d="M61 137q0 63 27 132t69 126.5t96 93t109 35.5t89 -31.5t34 -70.5q0 -117 -309 -160q-2 -20 -3 -40.5t-1 -43.5q0 -53 24.5 -81.5t77.5 -28.5q39 0 80 22.5t66 56.5q8 4 12 -3t2 -15q-41 -53 -103.5 -91t-133.5 -38q-72 0 -104 36t-32 101zM180 291q98 10 145.5 37.5 t47.5 68.5q0 31 -18.5 52.5t-47.5 21.5q-47 0 -80.5 -44t-46.5 -136zM211 692q0 12 7 27.5t18.5 30t26.5 24.5t34 10q10 0 19 -12t9 -24q0 -16 -7 -34t-18.5 -32t-26 -24.5t-28.5 -10.5t-24 13.5t-10 31.5zM397 692q0 12 7 27.5t19.5 30t28 24.5t33.5 10q10 0 19.5 -12 t9.5 -24q0 -16 -7.5 -34t-19.5 -32t-26.5 -24.5t-28.5 -10.5t-24.5 13.5t-10.5 31.5z" />
<glyph unicode="&#xec;" horiz-adv-x="305" d="M70 68q0 37 11 87t30.5 102t43 102.5t48.5 86.5q-23 -12 -51 -30.5t-46 -34.5q-6 -4 -10 3t-2 13q76 61 211 127q16 0 17 -18q-27 -47 -52.5 -102.5t-45 -109.5t-32 -104.5t-12.5 -83.5q0 -41 29 -40q23 0 44 19t50 50q4 4 10 -1t2 -15q-45 -53 -89 -86t-85 -33 q-72 0 -71 68zM150 744.5q0 5.5 4 9.5q27 23 58.5 33t37.5 4q25 -29 61.5 -63.5t73.5 -61.5q4 -4 0 -11.5t-14 -7.5q-53 14 -114.5 39t-102.5 51q-4 2 -4 7.5z" />
<glyph unicode="&#xed;" horiz-adv-x="305" d="M70 68q0 37 11 87t30.5 102t43 102.5t48.5 86.5q-23 -12 -51 -30.5t-46 -34.5q-6 -4 -10 3t-2 13q76 61 211 127q16 0 17 -18q-27 -47 -52.5 -102.5t-45 -109.5t-32 -104.5t-12.5 -83.5q0 -41 29 -40q23 0 44 19t50 50q4 4 10 -1t2 -15q-45 -53 -89 -86t-85 -33 q-72 0 -71 68zM217 651q0 8 6 15q29 18 66.5 50.5t66.5 67.5q14 8 44 -3t59 -23q6 -2 7 -8.5t-3 -10.5q-20 -14 -50 -27.5t-63 -25.5t-65.5 -23.5t-59.5 -19.5q-8 0 -8 8z" />
<glyph unicode="&#xee;" horiz-adv-x="305" d="M70 68q0 37 11 87t30.5 102t43 102.5t48.5 86.5q-23 -12 -51 -30.5t-46 -34.5q-6 -4 -10 3t-2 13q76 61 211 127q16 0 17 -18q-27 -47 -52.5 -102.5t-45 -109.5t-32 -104.5t-12.5 -83.5q0 -41 29 -40q23 0 44 19t50 50q4 4 10 -1t2 -15q-45 -53 -89 -86t-85 -33 q-72 0 -71 68zM124 663.5q-3 6.5 1 14.5q35 20 76 55t74 76q10 10 24 -2q25 -35 60.5 -61.5t74.5 -45.5q10 -10 -11 -24t-48 -10q-35 14 -64.5 28.5t-58.5 32.5q-49 -35 -117 -70q-8 0 -11 6.5z" />
<glyph unicode="&#xef;" horiz-adv-x="305" d="M70 68q0 37 11 87t30.5 102t43 102.5t48.5 86.5q-23 -12 -51 -30.5t-46 -34.5q-6 -4 -10 3t-2 13q76 61 211 127q16 0 17 -18q-27 -47 -52.5 -102.5t-45 -109.5t-32 -104.5t-12.5 -83.5q0 -41 29 -40q23 0 44 19t50 50q4 4 10 -1t2 -15q-45 -53 -89 -86t-85 -33 q-72 0 -71 68zM168 692q0 12 7 27.5t18.5 30t26.5 24.5t34 10q10 0 19 -12t9 -24q0 -16 -7 -34t-18.5 -32t-26 -24.5t-28.5 -10.5t-24 13.5t-10 31.5zM354 692q0 12 7 27.5t19.5 30t28 24.5t33.5 10q10 0 19.5 -12t9.5 -24q0 -16 -7.5 -34t-19.5 -32t-26.5 -24.5 t-28.5 -10.5t-24.5 13.5t-10.5 31.5z" />
<glyph unicode="&#xf0;" horiz-adv-x="540" d="M68 137q0 84 33.5 163t88 135.5t119 79t125.5 -4.5q-12 117 -48 215t-103 201q-41 -31 -81 -63t-75 -62q-10 -2 -6 15.5t20 37.5q23 20 55.5 44t71.5 50q-20 29 -42.5 59.5t-49.5 61.5q-31 37 -40 79t1 84t36 81t67 67q8 2 12 -5t0 -15q-45 -53 -40 -112.5t54 -125.5 q23 -29 43.5 -59.5t38.5 -61.5q27 16 53.5 32t51.5 30q4 0 7 -6t-7 -17q-23 -14 -45.5 -28.5t-47.5 -30.5q158 -262 158 -522q0 -92 -31.5 -174t-80 -144.5t-105.5 -100.5t-108 -40q-55 0 -90 37t-35 100zM174 190q0 -47 19.5 -83.5t60.5 -36.5q31 0 63.5 25.5t59 69.5 t44 100.5t17.5 117.5q0 59 -19.5 84t-53.5 25q-84 0 -137.5 -83t-53.5 -219z" />
<glyph unicode="&#xf1;" horiz-adv-x="659" d="M41 18q35 88 70.5 193.5t62.5 212.5q6 20 2 29.5t-14 9.5q-23 0 -43.5 -19.5t-36.5 -42.5q-6 -4 -11 2.5t-3 12.5q10 14 27.5 32.5t40 36t47 28.5t48.5 11q35 0 46.5 -21.5t5.5 -51.5q-10 -45 -21.5 -85t-28.5 -90q25 45 61 89.5t80 80t95 57t109 21.5q25 0 38 -12 t13 -29q0 -29 -15 -51q-43 -78 -72.5 -161t-29.5 -148q0 -53 35 -53q23 0 45 18t51 55q4 4 10 -1t4 -13q-37 -51 -85 -90t-95 -39q-35 0 -54.5 22.5t-19.5 59.5q0 72 26 156t69 170q6 14 6 30q0 20 -19 21q-76 0 -168 -103.5t-170 -328.5q-2 -6 -13 -11.5t-25.5 -8.5 t-28.5 -5t-23 -2q-10 0 -15 4t-1 14zM254 680q25 29 57.5 54.5t55.5 31.5q14 4 27.5 -3t29.5 -16.5t36.5 -18.5t51.5 -9t52.5 13t37.5 40q6 4 14.5 1t6.5 -9q-23 -37 -54.5 -66.5t-89.5 -29.5q-27 0 -47 8t-35.5 17t-29 16.5t-25.5 7.5q-16 -2 -32.5 -14.5t-39.5 -34.5 q-20 -4 -16 12z" />
<glyph unicode="&#xf2;" horiz-adv-x="528" d="M61 150q0 59 26 124.5t68 121t97.5 92t114.5 36.5q72 0 106.5 -43t34.5 -100q0 -80 -32 -148.5t-78 -121t-99 -82t-96 -29.5q-70 0 -106 42t-36 108zM162 207q0 -72 25.5 -108t66.5 -36q63 0 107.5 67t44.5 183q0 61 -25 102.5t-72 41.5q-66 0 -106.5 -63.5t-40.5 -186.5 zM275 744.5q0 5.5 4 9.5q27 23 58.5 33t37.5 4q25 -29 61.5 -63.5t73.5 -61.5q4 -4 0 -11.5t-14 -7.5q-53 14 -114.5 39t-102.5 51q-4 2 -4 7.5z" />
<glyph unicode="&#xf3;" horiz-adv-x="528" d="M61 150q0 59 26 124.5t68 121t97.5 92t114.5 36.5q72 0 106.5 -43t34.5 -100q0 -80 -32 -148.5t-78 -121t-99 -82t-96 -29.5q-70 0 -106 42t-36 108zM162 207q0 -72 25.5 -108t66.5 -36q63 0 107.5 67t44.5 183q0 61 -25 102.5t-72 41.5q-66 0 -106.5 -63.5t-40.5 -186.5 zM324 651q0 8 6 15q29 18 66.5 50.5t66.5 67.5q14 8 44 -3t59 -23q6 -2 7 -8.5t-3 -10.5q-20 -14 -50 -27.5t-63 -25.5t-65.5 -23.5t-59.5 -19.5q-8 0 -8 8z" />
<glyph unicode="&#xf4;" horiz-adv-x="528" d="M61 150q0 59 26 124.5t68 121t97.5 92t114.5 36.5q72 0 106.5 -43t34.5 -100q0 -80 -32 -148.5t-78 -121t-99 -82t-96 -29.5q-70 0 -106 42t-36 108zM162 207q0 -72 25.5 -108t66.5 -36q63 0 107.5 67t44.5 183q0 61 -25 102.5t-72 41.5q-66 0 -106.5 -63.5t-40.5 -186.5 zM245 663.5q-3 6.5 1 14.5q35 20 76 55t74 76q10 10 24 -2q25 -35 60.5 -61.5t74.5 -45.5q10 -10 -11 -24t-48 -10q-35 14 -64.5 28.5t-58.5 32.5q-49 -35 -117 -70q-8 0 -11 6.5z" />
<glyph unicode="&#xf5;" horiz-adv-x="528" d="M61 150q0 59 26 124.5t68 121t97.5 92t114.5 36.5q72 0 106.5 -43t34.5 -100q0 -80 -32 -148.5t-78 -121t-99 -82t-96 -29.5q-70 0 -106 42t-36 108zM162 207q0 -72 25.5 -108t66.5 -36q63 0 107.5 67t44.5 183q0 61 -25 102.5t-72 41.5q-66 0 -106.5 -63.5t-40.5 -186.5 zM201 680q25 29 57.5 54.5t55.5 31.5q14 4 27.5 -3t29.5 -16.5t36.5 -18.5t51.5 -9t52.5 13t37.5 40q6 4 14.5 1t6.5 -9q-23 -37 -54.5 -66.5t-89.5 -29.5q-27 0 -47 8t-35.5 17t-29 16.5t-25.5 7.5q-16 -2 -32.5 -14.5t-39.5 -34.5q-20 -4 -16 12z" />
<glyph unicode="&#xf6;" horiz-adv-x="528" d="M61 150q0 59 26 124.5t68 121t97.5 92t114.5 36.5q72 0 106.5 -43t34.5 -100q0 -80 -32 -148.5t-78 -121t-99 -82t-96 -29.5q-70 0 -106 42t-36 108zM162 207q0 -72 25.5 -108t66.5 -36q63 0 107.5 67t44.5 183q0 61 -25 102.5t-72 41.5q-66 0 -106.5 -63.5t-40.5 -186.5 zM224 692q0 12 7 27.5t18.5 30t26.5 24.5t34 10q10 0 19 -12t9 -24q0 -16 -7 -34t-18.5 -32t-26 -24.5t-28.5 -10.5t-24 13.5t-10 31.5zM410 692q0 12 7 27.5t19.5 30t28 24.5t33.5 10q10 0 19.5 -12t9.5 -24q0 -16 -7.5 -34t-19.5 -32t-26.5 -24.5t-28.5 -10.5t-24.5 13.5 t-10.5 31.5z" />
<glyph unicode="&#xf7;" horiz-adv-x="616" d="M112 291.5q11 21.5 62 27.5q31 0 76 1.5t95 1.5t104.5 -1.5t103.5 -3.5q8 0 7 -7t-7 -15t-16.5 -15.5t-22.5 -9.5q-92 2 -197.5 1t-203.5 -5q-12 4 -1 25.5zM254 166q0 14 14.5 31.5t30.5 17.5q12 0 24.5 -14.5t12.5 -26.5q0 -16 -15.5 -32.5t-29.5 -16.5 q-12 0 -24.5 14.5t-12.5 26.5zM340 414q0 14 13.5 31.5t29.5 17.5q14 0 25.5 -14.5t11.5 -26.5q0 -16 -15.5 -33.5t-27.5 -17.5t-24.5 15t-12.5 28z" />
<glyph unicode="&#xf8;" horiz-adv-x="528" d="M55 -29q12 16 23.5 32.5t21.5 33.5q-39 39 -39 113q0 59 25 124.5t67 121t97 91t117 35.5q43 0 71 -16q14 18 28 36.5t30 41.5q14 10 26.5 7t5.5 -18q-16 -23 -32.5 -44t-30.5 -42q23 -18 33 -46.5t10 -59.5q0 -80 -32 -149.5t-78 -121t-99 -81t-98 -29.5t-76 18 q-10 -12 -18.5 -25t-18.5 -28q-12 -14 -24.5 -10t-8.5 16zM162 207q0 -45 8 -72q29 41 51.5 73t45 63.5t48 66.5t60.5 82q-25 37 -68 37q-66 0 -105.5 -63.5t-39.5 -186.5zM182 104q25 -43 70 -43q66 0 108.5 67.5t42.5 184.5q0 43 -12 78q-59 -78 -105 -141.5t-104 -145.5z " />
<glyph unicode="&#xf9;" horiz-adv-x="679" d="M66 94q0 33 7 76t22.5 89t36 93t48.5 90q-23 -14 -43 -29.5t-37 -31.5q-6 -4 -11 3t-1 13q35 37 99.5 76t123.5 62q10 0 15.5 -5.5t1.5 -13.5q-66 -86 -106 -186.5t-40 -194.5q0 -59 37 -59q27 0 66 35.5t82 94t87 132.5t81 149q6 12 35.5 24.5t60.5 12.5t18 -16 q-29 -53 -50 -99.5t-35.5 -91.5t-21.5 -91t-7 -101q0 -66 34 -66q35 0 78 62q6 4 12.5 0t4.5 -12q-35 -53 -77 -81t-77 -28q-86 0 -86 100q0 104 37 207q-78 -141 -164 -224t-145 -83q-86 0 -86 94zM299 744.5q0 5.5 4 9.5q27 23 58.5 33t37.5 4q25 -29 61.5 -63.5 t73.5 -61.5q4 -4 0 -11.5t-14 -7.5q-53 14 -114.5 39t-102.5 51q-4 2 -4 7.5z" />
<glyph unicode="&#xfa;" horiz-adv-x="679" d="M66 94q0 33 7 76t22.5 89t36 93t48.5 90q-23 -14 -43 -29.5t-37 -31.5q-6 -4 -11 3t-1 13q35 37 99.5 76t123.5 62q10 0 15.5 -5.5t1.5 -13.5q-66 -86 -106 -186.5t-40 -194.5q0 -59 37 -59q27 0 66 35.5t82 94t87 132.5t81 149q6 12 35.5 24.5t60.5 12.5t18 -16 q-29 -53 -50 -99.5t-35.5 -91.5t-21.5 -91t-7 -101q0 -66 34 -66q35 0 78 62q6 4 12.5 0t4.5 -12q-35 -53 -77 -81t-77 -28q-86 0 -86 100q0 104 37 207q-78 -141 -164 -224t-145 -83q-86 0 -86 94zM336 651q0 8 6 15q29 18 66.5 50.5t66.5 67.5q14 8 44 -3t59 -23 q6 -2 7 -8.5t-3 -10.5q-20 -14 -50 -27.5t-63 -25.5t-65.5 -23.5t-59.5 -19.5q-8 0 -8 8z" />
<glyph unicode="&#xfb;" horiz-adv-x="679" d="M66 94q0 33 7 76t22.5 89t36 93t48.5 90q-23 -14 -43 -29.5t-37 -31.5q-6 -4 -11 3t-1 13q35 37 99.5 76t123.5 62q10 0 15.5 -5.5t1.5 -13.5q-66 -86 -106 -186.5t-40 -194.5q0 -59 37 -59q27 0 66 35.5t82 94t87 132.5t81 149q6 12 35.5 24.5t60.5 12.5t18 -16 q-29 -53 -50 -99.5t-35.5 -91.5t-21.5 -91t-7 -101q0 -66 34 -66q35 0 78 62q6 4 12.5 0t4.5 -12q-35 -53 -77 -81t-77 -28q-86 0 -86 100q0 104 37 207q-78 -141 -164 -224t-145 -83q-86 0 -86 94zM259 663.5q-3 6.5 1 14.5q35 20 76 55t74 76q10 10 24 -2 q25 -35 60.5 -61.5t74.5 -45.5q10 -10 -11 -24t-48 -10q-35 14 -64.5 28.5t-58.5 32.5q-49 -35 -117 -70q-8 0 -11 6.5z" />
<glyph unicode="&#xfc;" horiz-adv-x="679" d="M66 94q0 33 7 76t22.5 89t36 93t48.5 90q-23 -14 -43 -29.5t-37 -31.5q-6 -4 -11 3t-1 13q35 37 99.5 76t123.5 62q10 0 15.5 -5.5t1.5 -13.5q-66 -86 -106 -186.5t-40 -194.5q0 -59 37 -59q27 0 66 35.5t82 94t87 132.5t81 149q6 12 35.5 24.5t60.5 12.5t18 -16 q-29 -53 -50 -99.5t-35.5 -91.5t-21.5 -91t-7 -101q0 -66 34 -66q35 0 78 62q6 4 12.5 0t4.5 -12q-35 -53 -77 -81t-77 -28q-86 0 -86 100q0 104 37 207q-78 -141 -164 -224t-145 -83q-86 0 -86 94zM260 692q0 12 7 27.5t18.5 30t26.5 24.5t34 10q10 0 19 -12t9 -24 q0 -16 -7 -34t-18.5 -32t-26 -24.5t-28.5 -10.5t-24 13.5t-10 31.5zM446 692q0 12 7 27.5t19.5 30t28 24.5t33.5 10q10 0 19.5 -12t9.5 -24q0 -16 -7.5 -34t-19.5 -32t-26.5 -24.5t-28.5 -10.5t-24.5 13.5t-10.5 31.5z" />
<glyph unicode="&#xfd;" horiz-adv-x="641" d="M-362 -309q0 45 30.5 88t83.5 61q8 2 12.5 -4t-0.5 -12q-33 -35 -32 -88q0 -86 53 -139.5t154 -53.5q72 0 131 22.5t111 80t101.5 154t100.5 241.5q25 68 44 121t40 117q-39 -61 -80 -112.5t-83 -88.5t-81 -57.5t-71 -20.5q-41 0 -59.5 24.5t-18.5 67.5q0 72 29.5 165 t80.5 179q-23 -14 -41 -26.5t-34 -28.5q-6 -4 -11.5 3t-1.5 13q14 14 39 31.5t53.5 34t58 33t58.5 28.5q20 0 17 -18q-33 -41 -58.5 -91t-44 -100.5t-28 -99.5t-9.5 -88q0 -57 37 -57q33 0 78 41t89 101t82 129t58 124q8 20 45 39.5t66 19.5q18 0 14 -14q-45 -127 -89 -247 t-91 -247q-102 -264 -255 -389t-325 -125q-119 0 -186 55.5t-67 133.5zM385 651q0 8 6 15q29 18 66.5 50.5t66.5 67.5q14 8 44 -3t59 -23q6 -2 7 -8.5t-3 -10.5q-20 -14 -50 -27.5t-63 -25.5t-65.5 -23.5t-59.5 -19.5q-8 0 -8 8z" />
<glyph unicode="&#xfe;" horiz-adv-x="604" d="M-70 -467q0 98 35 234.5t88 289.5q-4 8 -8 15.5t-8 15.5q0 10 33 18q35 98 74.5 196.5t78.5 192t76 176.5t68 150q39 86 34.5 105.5t-26.5 7.5q-14 -8 -31.5 -22.5t-34.5 -34.5q-4 -2 -10 4t-2 12q14 14 36.5 33.5t47.5 36t49.5 27.5t42.5 11q25 0 32 -18t-3 -43 q-4 -12 -22.5 -55t-44 -102.5t-54.5 -128t-54.5 -130t-46 -107.5t-26.5 -61q20 29 46 58.5t55.5 54.5t62 40t65.5 15q47 0 74 -44t27 -103q0 -84 -34 -152.5t-89 -119t-127 -78t-146 -27.5q-35 0 -59 8q-33 -102 -61.5 -216t-28.5 -212q0 -47 47 -37q16 2 30.5 8.5 t30.5 14.5q6 2 8.5 -7.5t-1.5 -15.5q-12 -6 -36 -14t-50.5 -14.5t-53 -10.5t-45.5 -4q-39 0 -39 33zM150 63q33 -22 90 -22q98 0 168.5 76t70.5 223q0 51 -18.5 82t-54.5 31q-47 0 -113 -84t-119 -236q-6 -16 -12 -33.5t-12 -36.5z" />
<glyph unicode="&#xff;" horiz-adv-x="641" d="M-362 -309q0 45 30.5 88t83.5 61q8 2 12.5 -4t-0.5 -12q-33 -35 -32 -88q0 -86 53 -139.5t154 -53.5q72 0 131 22.5t111 80t101.5 154t100.5 241.5q25 68 44 121t40 117q-39 -61 -80 -112.5t-83 -88.5t-81 -57.5t-71 -20.5q-41 0 -59.5 24.5t-18.5 67.5q0 72 29.5 165 t80.5 179q-23 -14 -41 -26.5t-34 -28.5q-6 -4 -11.5 3t-1.5 13q14 14 39 31.5t53.5 34t58 33t58.5 28.5q20 0 17 -18q-33 -41 -58.5 -91t-44 -100.5t-28 -99.5t-9.5 -88q0 -57 37 -57q33 0 78 41t89 101t82 129t58 124q8 20 45 39.5t66 19.5q18 0 14 -14q-45 -127 -89 -247 t-91 -247q-102 -264 -255 -389t-325 -125q-119 0 -186 55.5t-67 133.5zM293 692q0 12 7 27.5t18.5 30t26.5 24.5t34 10q10 0 19 -12t9 -24q0 -16 -7 -34t-18.5 -32t-26 -24.5t-28.5 -10.5t-24 13.5t-10 31.5zM479 692q0 12 7 27.5t19.5 30t28 24.5t33.5 10q10 0 19.5 -12 t9.5 -24q0 -16 -7.5 -34t-19.5 -32t-26.5 -24.5t-28.5 -10.5t-24.5 13.5t-10.5 31.5z" />
<glyph unicode="&#x152;" horiz-adv-x="1804" d="M143 475q0 104 30 207.5t84 197t129 174.5t165 139t191.5 92t209.5 34q106 0 188.5 -33t141.5 -92q51 55 140 90t216 35q55 0 105.5 -10.5t87.5 -26.5t58.5 -37.5t21.5 -42.5q0 -16 -7.5 -40.5t-18.5 -49.5t-22.5 -46.5t-17.5 -29.5q-4 -4 -11 0t-5 13q12 23 17 49t-9 55 q-25 51 -90.5 87t-155.5 36q-123 0 -184 -56.5t-61 -148.5q0 -72 48 -122t165 -85q6 -4 -1.5 -15t-18.5 -24.5t-25.5 -23.5t-22.5 -13q-227 10 -351 -97t-124 -318q0 -72 20.5 -133.5t60.5 -106.5t97 -70.5t129 -25.5q168 0 274.5 78t153.5 252q6 10 13.5 6t9.5 -17 q-27 -115 -60 -190.5t-61 -87.5q-86 -39 -174 -58.5t-209 -19.5q-201 0 -301 94q-80 -45 -167 -69.5t-179 -24.5q-115 0 -204 36t-150.5 100.5t-93.5 150.5t-32 188zM268 543q0 -106 31 -193.5t91.5 -149t147.5 -95t199 -33.5q102 0 205 51q-63 76 -63 201q0 98 38.5 181 t107.5 148.5t163 110.5t205 65q-76 33 -123 88.5t-47 126.5v7q-51 86 -139.5 138t-219.5 52q-137 0 -247.5 -54t-187.5 -148.5t-119 -222.5t-42 -273z" />
<glyph unicode="&#x153;" horiz-adv-x="813" d="M61 150q0 59 26 124.5t68 121t97 92t115 36.5q53 0 85.5 -31.5t41.5 -84.5q41 53 92 84.5t104 31.5t88 -32.5t35 -69.5q0 -117 -309 -162q-2 -18 -3 -39.5t-1 -44.5q0 -51 24.5 -79.5t75.5 -28.5q41 0 81 22.5t67 56.5q8 4 12 -3t2 -15q-41 -53 -103.5 -91t-134.5 -38 q-66 0 -97.5 29.5t-37.5 83.5q-35 -53 -83 -83t-103 -30q-72 0 -107 42t-35 108zM162 207q0 -74 25.5 -110t66.5 -36q63 0 106 68t43 184q0 61 -24.5 102.5t-71.5 41.5q-66 0 -105.5 -63.5t-39.5 -186.5zM508 291q98 10 145 37.5t47 68.5q0 31 -18 52.5t-47 21.5 q-47 0 -81 -44t-46 -136z" />
<glyph unicode="&#x178;" horiz-adv-x="1433" d="M14 90q0 78 32 151.5t92.5 134t148.5 101.5t202 53q10 -2 9.5 -10t-11.5 -18q-94 -12 -160.5 -43t-109.5 -78t-62.5 -107.5t-19.5 -128.5q0 -156 94.5 -244.5t272.5 -88.5q131 0 248.5 45t230.5 150.5t227.5 279.5t241.5 432q-57 -94 -126 -175t-143.5 -141.5 t-152.5 -94.5t-154 -34q-98 0 -141 52.5t-31 148.5q16 113 50 225.5t67 217.5q33 102 46.5 164.5t11 97t-17.5 46t-40 11.5q-47 0 -89 -36t-64 -73q-8 -6 -15.5 0.5t-5.5 16.5q18 33 48 64.5t65 56t73.5 39t77.5 14.5q35 0 58.5 -18.5t30 -60.5t-4 -110.5t-43.5 -168.5 q-41 -127 -73.5 -228.5t-49.5 -204.5q-12 -88 12.5 -133t104.5 -45q178 0 370.5 236.5t424.5 699.5q23 20 52.5 26.5t55.5 6.5q25 0 21 -21q-211 -451 -396.5 -750.5t-359.5 -480t-344 -255t-352 -74.5q-193 0 -297.5 98t-104.5 254zM1245 1401q0 20 20.5 48t53.5 28 q18 0 18 -27q0 -29 -20 -56.5t-49 -27.5q-23 0 -23 35zM1401 1401q0 20 20.5 48t51.5 28q18 0 18 -27q0 -29 -20.5 -56.5t-45.5 -27.5t-24 35z" />
<glyph unicode="&#x2c6;" horiz-adv-x="401" d="M46 663.5q-3 6.5 1 14.5q35 20 76 55t74 76q10 10 24 -2q25 -35 60.5 -61.5t74.5 -45.5q10 -10 -11 -24t-48 -10q-35 14 -64.5 28.5t-58.5 32.5q-49 -35 -117 -70q-8 0 -11 6.5z" />
<glyph unicode="&#x2dc;" horiz-adv-x="454" d="M43 680q25 29 57.5 54.5t55.5 31.5q14 4 27.5 -3t29.5 -16.5t36.5 -18.5t51.5 -9t52.5 13t37.5 40q6 4 14.5 1t6.5 -9q-23 -37 -54.5 -66.5t-89.5 -29.5q-27 0 -47 8t-35.5 17t-29 16.5t-25.5 7.5q-16 -2 -32.5 -14.5t-39.5 -34.5q-20 -4 -16 12z" />
<glyph unicode="&#x2000;" horiz-adv-x="783" />
<glyph unicode="&#x2001;" horiz-adv-x="1567" />
<glyph unicode="&#x2002;" horiz-adv-x="783" />
<glyph unicode="&#x2003;" horiz-adv-x="1567" />
<glyph unicode="&#x2004;" horiz-adv-x="522" />
<glyph unicode="&#x2005;" horiz-adv-x="391" />
<glyph unicode="&#x2006;" horiz-adv-x="261" />
<glyph unicode="&#x2007;" horiz-adv-x="261" />
<glyph unicode="&#x2008;" horiz-adv-x="195" />
<glyph unicode="&#x2009;" horiz-adv-x="313" />
<glyph unicode="&#x200a;" horiz-adv-x="87" />
<glyph unicode="&#x2010;" horiz-adv-x="501" d="M79 304q13 28 40 36q27 2 69.5 6t90 7t92.5 5t80 2q8 -4 8 -15t-8.5 -24.5t-21.5 -25.5t-28 -16q-37 0 -81 -1.5t-88 -2.5t-85 -2t-67 -1q-14 4 -1 32z" />
<glyph unicode="&#x2011;" horiz-adv-x="501" d="M79 304q13 28 40 36q27 2 69.5 6t90 7t92.5 5t80 2q8 -4 8 -15t-8.5 -24.5t-21.5 -25.5t-28 -16q-37 0 -81 -1.5t-88 -2.5t-85 -2t-67 -1q-14 4 -1 32z" />
<glyph unicode="&#x2012;" horiz-adv-x="501" d="M79 304q13 28 40 36q27 2 69.5 6t90 7t92.5 5t80 2q8 -4 8 -15t-8.5 -24.5t-21.5 -25.5t-28 -16q-37 0 -81 -1.5t-88 -2.5t-85 -2t-67 -1q-14 4 -1 32z" />
<glyph unicode="&#x2013;" horiz-adv-x="1024" d="M44 314.5q5 17.5 28 19.5q33 2 104.5 4t160.5 3t187.5 1h187.5h160.5h106.5q6 -4 3 -12t-13.5 -16.5t-22.5 -15.5t-24 -7q-53 2 -127 4t-159 3t-173 1h-168t-145.5 -2t-104.5 -4q-6 4 -1 21.5z" />
<glyph unicode="&#x2014;" horiz-adv-x="2048" d="M44 314.5q5 17.5 28 19.5q25 2 116 4t223 3t294.5 1h330.5h330h295h224h118q6 -4 3 -12t-13.5 -16.5t-22.5 -15.5t-24 -7q-39 2 -135.5 3t-228.5 3t-288.5 2h-317.5h-315.5t-281.5 -1t-216 -2t-118 -3q-6 4 -1 21.5z" />
<glyph unicode="&#x2018;" horiz-adv-x="192" d="M113 596q0 68 51 136.5t133 115.5q8 0 10 -6t-6 -17q-43 -27 -70.5 -67.5t-27.5 -87.5q0 -45 22 -56q6 -6 -1 -21t-21.5 -30.5t-32 -27t-31.5 -11.5q-10 4 -18 25.5t-8 46.5z" />
<glyph unicode="&#x2019;" horiz-adv-x="192" d="M100.5 530.5q-2.5 6.5 5.5 16.5q43 27 71 67.5t28 87.5q0 45 -23 56q-6 6 1 21.5t21.5 30.5t32 26.5t31.5 11.5q10 -4 18.5 -25.5t8.5 -46.5q0 -68 -51 -136.5t-133 -115.5q-8 0 -10.5 6.5z" />
<glyph unicode="&#x201a;" horiz-adv-x="249" d="M4 -174q-2 6 6 16q43 27 71 68t28 88q0 45 -23 55q-6 6 1 21.5t21.5 31t32 26.5t31.5 11q10 -4 18.5 -25.5t8.5 -45.5q0 -68 -51.5 -136.5t-133.5 -115.5q-8 0 -10 6z" />
<glyph unicode="&#x201c;" horiz-adv-x="376" d="M113 596q0 68 51 136.5t133 115.5q8 0 10 -6t-6 -17q-43 -27 -70.5 -67.5t-27.5 -87.5q0 -45 22 -56q6 -6 -1 -21t-21.5 -30.5t-32 -27t-31.5 -11.5q-10 4 -18 25.5t-8 46.5zM297 596q0 68 51 136.5t133 115.5q8 0 10.5 -6t-6.5 -17q-43 -27 -70.5 -67.5t-27.5 -87.5 q0 -45 23 -56q6 -6 -1.5 -21t-21.5 -30.5t-31.5 -27t-31.5 -11.5q-10 4 -18.5 25.5t-8.5 46.5z" />
<glyph unicode="&#x201d;" horiz-adv-x="376" d="M100.5 530.5q-2.5 6.5 5.5 16.5q43 27 71 67.5t28 87.5q0 45 -23 56q-6 6 1 21.5t21.5 30.5t32 26.5t31.5 11.5q10 -4 18.5 -25.5t8.5 -46.5q0 -68 -51 -136.5t-133 -115.5q-8 0 -10.5 6.5zM285 530.5q-2 6.5 6 16.5q43 27 70.5 67.5t27.5 87.5q0 45 -22 56q-6 6 1 21.5 t21 30.5t32 26.5t32 11.5q10 -4 18 -25.5t8 -46.5q0 -68 -51 -136.5t-133 -115.5q-8 0 -10 6.5z" />
<glyph unicode="&#x201e;" horiz-adv-x="434" d="M4 -174q-2 6 6 16q43 27 71 68t28 88q0 45 -23 55q-6 6 1 21.5t21.5 31t32 26.5t31.5 11q10 -4 18.5 -25.5t8.5 -45.5q0 -68 -51.5 -136.5t-133.5 -115.5q-8 0 -10 6zM188.5 -174q-2.5 6 6.5 16q43 27 70.5 68t27.5 88q0 45 -23 55q-6 6 1.5 21.5t21.5 31t31.5 26.5 t31.5 11q10 -4 18.5 -25.5t8.5 -45.5q0 -68 -51 -136.5t-133 -115.5q-8 0 -10.5 6z" />
<glyph unicode="&#x2022;" horiz-adv-x="423" d="M113 285q0 53 40 96t105 43q41 0 67.5 -25.5t26.5 -66.5q0 -59 -40.5 -102.5t-106.5 -43.5q-47 0 -69.5 27t-22.5 72z" />
<glyph unicode="&#x2026;" horiz-adv-x="819" d="M61 49q0 12 8.5 28.5t22.5 32t32.5 25.5t37.5 10q12 0 22.5 -9t10.5 -23q0 -16 -8.5 -37t-22.5 -37t-31 -27.5t-31 -11.5q-18 0 -29.5 10t-11.5 39zM348 49q0 12 8.5 28.5t22.5 32t32.5 25.5t37.5 10q12 0 22 -9t10 -23q0 -16 -8 -37t-22.5 -37t-31 -27.5t-30.5 -11.5 q-18 0 -29.5 10t-11.5 39zM635 49q0 12 8 28.5t22.5 32t33 25.5t36.5 10q12 0 22.5 -9t10.5 -23q0 -16 -8 -37t-22.5 -37t-31 -27.5t-30.5 -11.5q-18 0 -29.5 10t-11.5 39z" />
<glyph unicode="&#x202f;" horiz-adv-x="313" />
<glyph unicode="&#x2039;" horiz-adv-x="403" d="M39 230.5q2 9.5 10 17.5q78 70 168 139.5t172 126.5q14 4 19.5 -10.5t-13.5 -26.5q-29 -18 -66.5 -47t-75.5 -58.5t-74 -59t-56 -50.5q43 -35 90 -84t76 -90q4 -10 0 -25.5t-12.5 -30t-19.5 -22.5t-24 -4q-39 59 -92 115.5t-96 91.5q-8 8 -6 17.5z" />
<glyph unicode="&#x203a;" horiz-adv-x="376" d="M-23.5 15.5q-5.5 13.5 11.5 27.5q25 23 57.5 51.5t68.5 58t70.5 57.5t63.5 48q-23 16 -46.5 42t-47 53.5t-43 56t-33.5 53.5q-4 10 6 22.5t23.5 21.5t29 12t25.5 -5q31 -59 77 -115.5t91 -93.5q8 -6 6 -16t-10 -17q-84 -59 -174 -131t-158 -135q-12 -4 -17.5 9.5z" />
<glyph unicode="&#x205f;" horiz-adv-x="391" />
<glyph unicode="&#x20ac;" horiz-adv-x="770" d="M3 260q5 8 19.5 16.5t33 15.5t34.5 9q4 0 9 1t12 1q2 14 5 26.5t7 26.5q-20 -4 -40 -6t-38 -6q-10 2 -5 10t18.5 16.5t32 15.5t34.5 9h14q47 104 147.5 175t237.5 71q66 0 106 -24.5t40 -53.5q0 -18 -10.5 -54t-20.5 -65q-4 -4 -13.5 1.5t-7.5 13.5q20 47 -4 86 q-16 25 -50 41t-77 16q-94 0 -160.5 -52t-95.5 -151q53 2 115 1t129 -1q10 -4 8 -12t-18 -10q-59 -2 -120.5 -4t-121.5 -6q-4 -14 -5 -28.5t-3 -31.5q51 0 106.5 -1t116.5 -1q10 -4 8 -11t-18 -11q-109 0 -213 -7v-10q0 -117 42 -177t112 -60q53 0 91 29.5t62 97.5 q6 6 13.5 5t7.5 -9q-14 -49 -31.5 -89t-36.5 -47q-20 -6 -55 -11t-70 -5q-121 0 -183.5 59.5t-62.5 176.5v28q-25 -2 -48 -6t-48 -8q-10 2 -5 10z" />
<glyph unicode="&#x2122;" horiz-adv-x="808" d="M104 615.5q5 7.5 21 9.5q25 4 60.5 7t74.5 5t78 3t70 1q8 -2 -1.5 -15.5t-19.5 -17.5q-23 0 -47.5 1t-50.5 1q-18 -35 -32.5 -71.5t-31.5 -85.5q-14 -41 -14 -78q-2 -8 -21.5 -17.5t-42.5 -9.5q-10 0 -10 12q16 63 41 124t53 110q6 8 25 16q-39 0 -75 -1t-70 -3 q-12 2 -7 9.5zM325.5 336.5q-6.5 21.5 2.5 32.5q47 66 112.5 139.5t126.5 128.5q4 4 9.5 0t5.5 -8q-12 -53 -18.5 -97.5t-12.5 -91.5q35 49 79 100.5t97 98.5q10 6 10 -8q-18 -47 -25 -100.5t-7 -106.5q0 -23 4 -30t16 -7q14 0 20 8q4 4 8.5 -1t2.5 -9q-10 -10 -33 -23.5 t-39 -13.5t-24.5 10.5t-8.5 38.5q0 39 4 80t11 78q-41 -47 -71 -86t-67 -94q-6 -10 -14 -18.5t-16 -8.5t-9 8q12 121 27 205q-49 -51 -87 -106.5t-83 -135.5q-14 -4 -20.5 17.5z" />
<glyph unicode="&#xe000;" horiz-adv-x="522" d="M0 0v522h522v-522h-522z" />
<glyph unicode="&#xfb01;" horiz-adv-x="645" d="M-604 -383q0 53 37 100q6 4 11 1t5 -9q-10 -20 -8 -43.5t17.5 -44t47 -34t80.5 -13.5q61 0 114.5 11.5t101.5 44t93.5 91t91.5 154.5t96 234.5t110 328.5q4 10 6 17.5t6 17.5q-41 -4 -76 -8t-63 -10q-10 2 -5 10t18 16t31.5 15.5t34.5 9.5t35 3t37 1q82 254 175 439.5 t191.5 304t200 176t201.5 57.5q39 0 66.5 -19.5t42 -50.5t13.5 -67.5t-17 -73.5q-12 -12 -21 6q-4 41 -44 71.5t-130 30.5q-84 0 -148.5 -25.5t-127 -114.5t-132 -262t-161.5 -468h72.5t74.5 2q47 0 84 2t72 6q12 -6 10 -18q-29 -41 -57.5 -95.5t-46.5 -107.5 q-23 -57 -36.5 -109.5t-13.5 -87.5q0 -43 29 -43q23 0 44.5 19.5t49.5 52.5q4 4 10.5 -2t2.5 -14q-43 -53 -88.5 -86t-86.5 -33q-72 0 -71 68q0 39 14 95t37 116.5t51.5 117t57.5 95.5q-25 0 -86.5 -2.5t-133.5 -6.5l-12 -43q-80 -256 -172 -435t-191.5 -290.5t-203 -163 t-203.5 -51.5q-68 0 -102.5 33t-34.5 84zM602 652.5q0 13.5 6 23.5q23 31 67 74.5t91 74.5q6 2 12 -3t2 -9q-43 -39 -82 -93t-67 -108q-6 -6 -13.5 0t-11.5 16.5t-4 24z" />
<glyph unicode="&#xfb02;" horiz-adv-x="659" d="M-606 -383q0 55 39 100q6 4 11 1t3 -9q-10 -20 -7 -43.5t18.5 -44t46 -34t79.5 -13.5q61 0 114.5 11.5t101.5 44t93.5 91t92.5 154.5t97 234.5t110 328.5q4 10 5 18.5t5 18.5q-37 -4 -72 -9t-68 -11q-10 2 -3.5 10t19.5 16t31.5 15.5t34.5 9.5t33 3t37 1 q76 233 166 413.5t187.5 301.5t199.5 183t203 62q35 0 65.5 -14t48.5 -37q55 47 108.5 75t102.5 28q31 0 50.5 -15.5t25.5 -41t1 -58.5t-23 -66q-4 -4 -10.5 -1t-6.5 12q4 25 -17.5 41t-68.5 16q-84 0 -169 -62.5t-163.5 -165t-148.5 -235.5t-121 -274.5t-80.5 -281.5 t-29.5 -255q0 -59 34 -59q25 0 48.5 20.5t52.5 61.5q8 4 13 -1t3 -16q-41 -61 -96 -101t-101 -40q-41 0 -56 21.5t-15 56.5q0 78 26.5 184.5t71.5 229.5q-47 0 -97 -2.5t-104 -6.5q-4 -10 -7 -21t-7 -22q-80 -256 -172 -435t-191.5 -290.5t-202 -163t-202.5 -51.5 q-70 0 -104.5 33t-34.5 84zM324 514q49 0 100 1t100 1q43 113 99.5 229.5t121 227t134 210t141.5 173.5q-23 12 -47.5 19t-59.5 7q-55 0 -103 -9t-93 -41t-88 -89t-90 -154.5t-100.5 -237.5t-114.5 -337z" />
</font>
</defs>
</svg>
